<?xml version="1.0" encoding="UTF-8"?>
<?xml-stylesheet href="https://cdnjs.cloudflare.com/ajax/libs/font-awesome/6.7.2/css/all.min.css" type="text/css"?>
<svg xmlns="http://www.w3.org/2000/svg" xmlns:xlink="http://www.w3.org/1999/xlink" width="100%" height="100%" stroke-linecap="round" viewBox="0 0 1096 483" style="max-width: 100%;"><g><path d="M898.745 407.231 C898.745 407.231, 898.745 407.231, 898.745 407.231 M898.745 407.231 C898.745 407.231, 898.745 407.231, 898.745 407.231 M898.471 412.881 C899.966 411.15, 902.008 409.312, 905.136 406.834 M898.471 412.881 C900.771 410.714, 902.849 409.414, 905.136 406.834 M898.196 418.531 C901.813 416.184, 906.733 410.026, 910.786 407.109 M898.196 418.531 C900.612 415.874, 903.581 414.409, 910.786 407.109 M898.662 423.51 C905.746 416.35, 912.822 412.434, 917.177 406.711 M898.662 423.51 C902.93 418.799, 907.15 415.149, 917.177 406.711 M898.387 429.16 C905.91 423.57, 912.532 418.783, 922.827 406.986 M898.387 429.16 C903.321 423.739, 909.123 417.949, 922.827 406.986 M898.853 434.138 C907.029 427.459, 914.417 420.472, 928.478 407.261 M898.853 434.138 C906.641 427.06, 914.855 419.423, 928.478 407.261 M898.578 439.788 C914.118 426.784, 926.09 412.546, 934.868 406.864 M898.578 439.788 C911.893 426.967, 926.704 413.455, 934.868 406.864 M898.303 445.438 C916.712 428.209, 932.449 415.39, 940.519 407.139 M898.303 445.438 C906.658 437.597, 917.131 428.687, 940.519 407.139 M898.769 450.417 C913.041 440.212, 923.29 427.655, 946.169 407.413 M898.769 450.417 C914.672 435.243, 930.618 421.764, 946.169 407.413 M898.494 456.067 C913.664 443.612, 926.268 429.777, 952.56 407.016 M898.494 456.067 C913.782 443.579, 928.22 429.819, 952.56 407.016 M898.22 461.717 C912.198 451.687, 922.99 440.012, 958.21 407.291 M898.22 461.717 C920.867 443.122, 942.734 422.906, 958.21 407.291 M895.723 469.383 C918.257 451.233, 941.718 429.34, 964.601 406.894 M895.723 469.383 C918.904 447.827, 943.17 427.835, 964.601 406.894 M898.411 472.345 C922.249 448.361, 949.541 426.423, 970.251 407.169 M898.411 472.345 C918.471 454.739, 938.311 437.005, 970.251 407.169 M904.061 472.62 C932.413 447.251, 958.637 423.472, 975.901 407.443 M904.061 472.62 C925.931 453.22, 947.987 433.262, 975.901 407.443 M910.452 472.223 C933.628 451.185, 954.482 430.298, 982.292 407.046 M910.452 472.223 C926.525 456.373, 943.428 443.191, 982.292 407.046 M916.102 472.498 C942.87 448.184, 968.575 425.557, 987.942 407.321 M916.102 472.498 C937.835 451.968, 957.471 432.886, 987.942 407.321 M922.493 472.101 C942.456 451.422, 963.588 434.756, 994.333 406.924 M922.493 472.101 C947.48 450.745, 971.897 426.932, 994.333 406.924 M928.143 472.375 C945.274 460.092, 960.158 444.796, 999.983 407.199 M928.143 472.375 C951.148 451.144, 973.789 431.736, 999.983 407.199 M933.793 472.65 C956.706 452.108, 978.981 430.573, 1005.633 407.473 M933.793 472.65 C950.994 456.788, 967.842 441.597, 1005.633 407.473 M940.184 472.253 C964.214 451.233, 983.642 432.065, 1012.024 407.076 M940.184 472.253 C961.668 452.174, 984.375 432.001, 1012.024 407.076 M945.834 472.528 C962.239 456.478, 983.549 439.822, 1017.674 407.351 M945.834 472.528 C971.422 449.395, 997.829 425.028, 1017.674 407.351 M952.225 472.131 C970.719 453.127, 988.205 438.356, 1024.065 406.954 M952.225 472.131 C973.934 451.279, 996.466 431.083, 1024.065 406.954 M957.875 472.405 C975.09 453.584, 994.696 438.516, 1029.715 407.229 M957.875 472.405 C977.039 456.157, 996.129 437.622, 1029.715 407.229 M963.525 472.68 C983.861 451.66, 1007.894 433.696, 1035.365 407.504 M963.525 472.68 C984.899 453.418, 1006.175 433.828, 1035.365 407.504 M969.916 472.283 C995.893 447.357, 1022.28 424.894, 1041.756 407.106 M969.916 472.283 C988.708 453.974, 1007.287 438.144, 1041.756 407.106 M975.566 472.558 C995.924 456.139, 1013.161 436.664, 1045.925 408.725 M975.566 472.558 C991.656 459.092, 1007.475 444.566, 1045.925 408.725 M981.216 472.833 C1002.399 453.807, 1025.639 432.211, 1047.872 412.359 M981.216 472.833 C996.276 459.256, 1009.66 447.215, 1047.872 412.359 M987.607 472.436 C1007.06 454.945, 1030.024 435.024, 1048.338 417.338 M987.607 472.436 C1010.126 450.747, 1033.811 430.318, 1048.338 417.338 M993.257 472.71 C1006.537 463.275, 1016.085 452.739, 1048.063 422.988 M993.257 472.71 C1009.194 457.28, 1025.371 441.653, 1048.063 422.988 M999.648 472.313 C1011.61 461.195, 1022.686 453.487, 1047.788 428.638 M999.648 472.313 C1014.136 458.816, 1029.308 444.671, 1047.788 428.638 M1005.298 472.588 C1020.83 457.102, 1037.437 444.812, 1048.254 433.616 M1005.298 472.588 C1017.244 461.011, 1029.663 449.522, 1048.254 433.616 M1010.948 472.863 C1022.066 460.98, 1033.287 448.644, 1047.979 439.266 M1010.948 472.863 C1023.39 460.954, 1037.237 450.333, 1047.979 439.266 M1017.339 472.466 C1028.341 462.593, 1034.76 454.546, 1047.704 444.917 M1017.339 472.466 C1028.417 460.961, 1040.322 450.745, 1047.704 444.917 M1022.989 472.74 C1028.73 467.324, 1034.908 458.696, 1048.17 449.895 M1022.989 472.74 C1031.164 466.514, 1038.815 459.454, 1048.17 449.895 M1029.38 472.343 C1034.781 463.888, 1043.461 459.944, 1047.896 455.545 M1029.38 472.343 C1035.882 466.356, 1042.111 461.752, 1047.896 455.545 M1035.03 472.618 C1040.799 468.029, 1044.967 466.251, 1047.621 461.195 M1035.03 472.618 C1038.269 470.299, 1041.35 467.077, 1047.621 461.195 M1040.68 472.893 C1042.498 471.188, 1045.79 468.761, 1048.087 466.174 M1040.68 472.893 C1043.036 470.478, 1046.064 468.321, 1048.087 466.174" stroke="rgb(236, 236, 255)" stroke-width="2.709" fill="none"></path><path d="M899 407 C948.727 406.128, 1000.686 407.454, 1043 407 M899 407 C941.479 405.527, 983.991 407.074, 1043 407 M1043 407 C1042.877 406.126, 1047.927 410.559, 1046 410 M1043 407 C1043.707 405.731, 1043.88 407.745, 1046 410 M1046 410 C1044.266 423.123, 1046.967 434.56, 1046 469 M1046 410 C1046.378 422.685, 1045.453 435.361, 1046 469 M1046 469 C1044.594 469.095, 1044.874 471.713, 1043 472 M1046 469 C1044.011 469.949, 1045.602 473.175, 1043 472 M1043 472 C1000.072 474.972, 955.021 472.166, 899 472 M1043 472 C1010.926 473.438, 976.611 473.056, 899 472 M899 472 C895.977 470.091, 897.654 469.884, 896 469 M899 472 C897.426 473.702, 896.415 471.111, 896 469 M896 469 C898.38 448.102, 896.122 428.624, 896 410 M896 469 C895.707 454.241, 897.176 440.326, 896 410 M896 410 C896.415 406.757, 896.617 405.243, 899 407 M896 410 C894.267 409.851, 898.56 406.718, 899 407 M899 407 C899 407, 899 407, 899 407 M899 407 C899 407, 899 407, 899 407" stroke="rgb(218, 206, 243)" stroke-width="1" fill="none"></path></g><g class="text-container" transform="matrix(1 0 0 1 50 10)"><text style="text-anchor: middle; font-size: 16px; font-weight: 400;font-style: normal;font-weight: 400;font-size: 16px;font-family: Comic Sans MS, cursive;" class="actor actor-box" alignment-baseline="central" dominant-baseline="central" y="429.5" x="921" stroke="rgb(218, 206, 243)" stroke-width="1px" fill="rgb(236, 236, 255)" text-anchor="middle"><tspan dy="0" x="921" stroke="none" stroke-width="1px" fill="rgb(0, 0, 0)" text-anchor="middle" dominant-baseline="central">Neo4j</tspan></text></g><g><path d="M693.143 409.795 C693.143 409.795, 693.143 409.795, 693.143 409.795 M693.143 409.795 C693.143 409.795, 693.143 409.795, 693.143 409.795 M693.06 413.4 C694.442 411.596, 695.143 409.253, 697.65 406.847 M693.06 413.4 C694.717 411.589, 696.455 409.223, 697.65 406.847 M692.978 417.004 C694.315 415.411, 697.048 411.001, 699.862 407.176 M692.978 417.004 C695.137 413.306, 698.01 410.535, 699.862 407.176 M692.895 420.609 C694.998 417.85, 697.734 412.842, 702.074 407.504 M692.895 420.609 C697.11 415.592, 700.44 411.127, 702.074 407.504 M692.812 424.214 C695.553 419.726, 697.577 415.208, 704.859 407.013 M692.812 424.214 C696.519 420.618, 697.76 416.424, 704.859 407.013 M692.729 427.818 C697.757 422.741, 703.394 415.376, 707.071 407.341 M692.729 427.818 C697.548 419.857, 702.878 412.819, 707.071 407.341 M693.219 430.604 C695.531 422.957, 701.39 418.858, 709.857 406.851 M693.219 430.604 C697.736 422.602, 703.77 415.737, 709.857 406.851 M693.137 434.208 C699.404 427.8, 701.666 420.794, 712.068 407.179 M693.137 434.208 C698.527 425.088, 704.75 417.087, 712.068 407.179 M693.054 437.813 C699.675 428.346, 708.753 418.013, 714.28 407.507 M693.054 437.813 C697.191 430.803, 703.008 423.022, 714.28 407.507 M692.971 441.418 C696.422 434.763, 701.402 427.902, 717.066 407.017 M692.971 441.418 C701.326 428.67, 711.022 416.588, 717.066 407.017 M692.888 445.022 C701.556 429.431, 712.69 415.524, 719.278 407.345 M692.888 445.022 C703.638 430.493, 712.822 415.253, 719.278 407.345 M692.805 448.627 C697.389 438.035, 706.296 430.094, 722.063 406.854 M692.805 448.627 C699.74 436.878, 709.076 426.471, 722.063 406.854 M692.722 452.231 C700.414 439.268, 709.363 424.68, 724.275 407.182 M692.722 452.231 C700.074 441.871, 707.957 431.007, 724.275 407.182 M693.213 455.017 C699.798 443.6, 707.467 433.979, 726.487 407.511 M693.213 455.017 C701.023 443.296, 709.182 432.425, 726.487 407.511 M693.13 458.621 C705.713 444.265, 713.659 426.302, 729.272 407.02 M693.13 458.621 C704.494 443.851, 713.723 428.265, 729.272 407.02 M693.047 462.226 C703.428 445.439, 717.767 430.861, 731.484 407.348 M693.047 462.226 C701.959 448.921, 710.7 436.945, 731.484 407.348 M692.964 465.831 C702.334 451.701, 712.908 436.757, 734.27 406.858 M692.964 465.831 C704.675 449.248, 714.706 433.529, 734.27 406.858 M692.881 469.435 C703.01 451.776, 716.755 436.581, 736.482 407.186 M692.881 469.435 C708.103 447.987, 722.516 427.487, 736.482 407.186 M694.519 470.583 C709.4 446.011, 727.948 421.956, 738.693 407.514 M694.519 470.583 C709.223 450.223, 723.176 430.593, 738.693 407.514 M696.157 471.73 C709.203 452.345, 725.072 427.993, 741.479 407.023 M696.157 471.73 C712.709 447.961, 729.24 422.256, 741.479 407.023 M698.369 472.058 C710.201 453.704, 725.978 431.335, 743.691 407.352 M698.369 472.058 C708.867 457.494, 718.39 442.14, 743.691 407.352 M701.155 471.568 C716.703 447.523, 732.2 426.086, 746.476 406.861 M701.155 471.568 C715.02 453.281, 726.636 434.327, 746.476 406.861 M703.366 471.896 C721.569 446.558, 740.052 418.309, 748.688 407.189 M703.366 471.896 C718.558 448.591, 735.153 426.625, 748.688 407.189 M706.152 471.405 C717.121 454.633, 732.376 433.67, 750.9 407.518 M706.152 471.405 C715.707 455.911, 727.262 441.643, 750.9 407.518 M708.364 471.733 C720.627 452.351, 734.328 436.959, 753.685 407.027 M708.364 471.733 C721.796 451.998, 735.254 433.996, 753.685 407.027 M710.576 472.062 C728.152 447.906, 745.155 426.832, 755.897 407.355 M710.576 472.062 C719.583 458.274, 729.592 444.873, 755.897 407.355 M713.361 471.571 C724.392 453.809, 736.444 438.122, 758.683 406.864 M713.361 471.571 C726.659 449.964, 741.569 428.844, 758.683 406.864 M715.573 471.899 C732.791 448.012, 751.405 421.427, 760.895 407.193 M715.573 471.899 C724.397 456.95, 735.014 442.489, 760.895 407.193 M718.358 471.409 C732.571 452.573, 745.639 434.759, 763.106 407.521 M718.358 471.409 C734.212 446.449, 750.978 423.704, 763.106 407.521 M720.57 471.737 C733.808 451.832, 748.658 428.49, 765.892 407.03 M720.57 471.737 C737.642 447.47, 752.821 425.367, 765.892 407.03 M722.782 472.065 C740.492 449.66, 755.53 424.928, 768.104 407.359 M722.782 472.065 C738.976 447.007, 756.992 421.085, 768.104 407.359 M725.568 471.574 C737.23 455.697, 749.985 435.079, 770.316 407.687 M725.568 471.574 C741.215 451.723, 754.106 430.753, 770.316 407.687 M727.779 471.903 C743.265 447.456, 758.415 427.253, 773.101 407.196 M727.779 471.903 C742.692 451.46, 758.416 429.921, 773.101 407.196 M729.991 472.231 C742.275 455.274, 753.333 440.522, 775.313 407.525 M729.991 472.231 C748.405 446.419, 765.479 422.382, 775.313 407.525 M732.777 471.74 C748.323 447.574, 766.037 428.185, 778.099 407.034 M732.777 471.74 C745.757 453.475, 758.762 434.686, 778.099 407.034 M734.989 472.069 C750.819 452.026, 765.18 429.328, 780.31 407.362 M734.989 472.069 C749.433 450.817, 764.265 429.02, 780.31 407.362 M737.774 471.578 C749.816 452.721, 761.056 438.669, 782.522 407.69 M737.774 471.578 C749.005 454.262, 762.679 436.424, 782.522 407.69 M739.986 471.906 C754.531 446.51, 773.69 425.394, 785.308 407.2 M739.986 471.906 C757.676 447.703, 774.142 422.615, 785.308 407.2 M742.198 472.235 C758.321 450.395, 772.85 433.046, 787.52 407.528 M742.198 472.235 C761.284 446.677, 778.542 420.314, 787.52 407.528 M744.983 471.744 C754.12 457.952, 763.531 446.756, 790.305 407.037 M744.983 471.744 C760.679 449.873, 778.234 426.091, 790.305 407.037 M747.195 472.072 C755.797 456.997, 766.414 441.504, 792.517 407.365 M747.195 472.072 C765.096 447.626, 781.192 422.487, 792.517 407.365 M749.981 471.581 C763.843 450.238, 778.832 427.69, 794.729 407.694 M749.981 471.581 C764.886 452.393, 777.839 432.305, 794.729 407.694 M752.193 471.91 C768.984 452.226, 783.589 429.265, 797.514 407.203 M752.193 471.91 C768.726 447.281, 785.977 422.499, 797.514 407.203 M754.404 472.238 C765.633 455.362, 776.994 441.565, 799.726 407.531 M754.404 472.238 C767.906 452.748, 782.336 433.687, 799.726 407.531 M757.19 471.747 C771.961 447.724, 792.191 421.236, 802.512 407.041 M757.19 471.747 C774.872 446.517, 793.695 420.878, 802.512 407.041 M759.402 472.076 C769.81 457.945, 780.39 439.574, 804.723 407.369 M759.402 472.076 C774.795 450.386, 790.468 427.524, 804.723 407.369 M762.187 471.585 C776.231 451.615, 788.462 431.951, 806.935 407.697 M762.187 471.585 C774.156 455.157, 785.938 438.578, 806.935 407.697 M764.399 471.913 C778.56 450.977, 796.96 427.251, 809.721 407.206 M764.399 471.913 C775.612 455.611, 787.933 440.389, 809.721 407.206 M766.611 472.241 C779.042 451.608, 793.71 434.822, 811.933 407.535 M766.611 472.241 C783.681 447.383, 800.829 422.255, 811.933 407.535 M769.396 471.751 C780.725 454.526, 792.268 439.397, 814.718 407.044 M769.396 471.751 C780.017 457.339, 790.26 441.698, 814.718 407.044 M771.608 472.079 C782.69 454.864, 793.622 440.485, 816.93 407.372 M771.608 472.079 C785.821 452.697, 801.389 431.155, 816.93 407.372 M774.394 471.588 C781.715 458.816, 793.244 441.758, 819.142 407.701 M774.394 471.588 C785.652 455.892, 798.045 437.592, 819.142 407.701 M776.606 471.917 C790.094 455.219, 800.415 437.601, 821.927 407.21 M776.606 471.917 C787.208 455.203, 800.085 438.061, 821.927 407.21 M778.818 472.245 C790.606 456.431, 802.781 439.408, 824.139 407.538 M778.818 472.245 C796.9 447.114, 814.221 422.015, 824.139 407.538 M781.603 471.754 C797.991 450.528, 809.668 429.159, 826.925 407.047 M781.603 471.754 C796.009 452.468, 810.479 431.941, 826.925 407.047 M783.815 472.082 C793.23 455.709, 805.199 442.552, 829.137 407.376 M783.815 472.082 C801.316 449.822, 817.878 425.576, 829.137 407.376 M786.6 471.592 C799.021 456.684, 808.345 439.322, 831.348 407.704 M786.6 471.592 C799.794 452.758, 812.807 433.939, 831.348 407.704 M788.812 471.92 C802.453 452.464, 811.479 438.909, 834.134 407.213 M788.812 471.92 C798.464 458.826, 808.278 444.976, 834.134 407.213 M791.024 472.248 C807.199 448.283, 825.322 423.874, 836.346 407.542 M791.024 472.248 C810.074 446.744, 826.979 420.811, 836.346 407.542 M793.81 471.757 C806.236 457.874, 815.839 441.36, 839.131 407.051 M793.81 471.757 C807.056 452.552, 820.822 434.729, 839.131 407.051 M796.021 472.086 C809.228 450.351, 824.808 430.424, 841.343 407.379 M796.021 472.086 C812.673 447.807, 831.032 422.772, 841.343 407.379 M798.807 471.595 C809.021 456.132, 820.472 438.646, 842.408 409.346 M798.807 471.595 C813.287 451.048, 827.286 430.072, 842.408 409.346 M801.019 471.923 C815.526 449.462, 834.932 424.995, 842.898 412.131 M801.019 471.923 C814.679 451.34, 829.689 430.72, 842.898 412.131 M803.231 472.252 C811.162 460.411, 819.063 446.409, 842.815 415.736 M803.231 472.252 C812.923 457.569, 822.507 443.521, 842.815 415.736 M806.016 471.761 C813.239 461.358, 819.91 452.091, 843.306 418.521 M806.016 471.761 C818.86 451.459, 832.685 433.332, 843.306 418.521 M808.228 472.089 C822.008 453.974, 834.142 436.412, 843.223 422.126 M808.228 472.089 C816.226 461.467, 823.693 449.52, 843.223 422.126 M811.014 471.598 C821.824 455.362, 832.037 441.993, 843.14 425.731 M811.014 471.598 C824.744 453.021, 837.09 434.898, 843.14 425.731 M813.225 471.927 C826.01 457.463, 834.504 441.019, 843.057 429.335 M813.225 471.927 C823.73 456.687, 833.286 442.193, 843.057 429.335 M815.437 472.255 C825.14 457.045, 833.831 444.552, 842.974 432.94 M815.437 472.255 C825.749 457.428, 836.973 442.087, 842.974 432.94 M818.223 471.764 C826.965 460.124, 834.99 446.375, 842.891 436.544 M818.223 471.764 C825.71 461.572, 832.34 451.753, 842.891 436.544 M820.435 472.093 C828.585 459.466, 839.885 448.975, 842.809 440.149 M820.435 472.093 C826.762 461.194, 834.994 452.115, 842.809 440.149 M822.646 472.421 C830.623 462.918, 833.303 452.929, 842.726 443.754 M822.646 472.421 C828.544 464.614, 832.909 457.969, 842.726 443.754 M825.432 471.93 C831.542 464.929, 836.326 455.474, 843.216 446.539 M825.432 471.93 C831.306 463.243, 838.703 453.075, 843.216 446.539 M827.644 472.259 C834.219 465.064, 838.464 458.849, 843.133 450.144 M827.644 472.259 C830.189 467.056, 835.15 462.216, 843.133 450.144 M830.429 471.768 C832.589 467.372, 839.848 459.722, 843.05 453.748 M830.429 471.768 C832.656 467.898, 836.081 464.259, 843.05 453.748 M832.641 472.096 C836.86 466.737, 839.749 459.727, 842.968 457.353 M832.641 472.096 C835.754 467.527, 839.342 462.748, 842.968 457.353 M834.853 472.424 C838.182 468.705, 840.149 466.279, 842.885 460.957 M834.853 472.424 C836.969 469.965, 838.135 467.158, 842.885 460.957 M837.638 471.934 C838.431 468.876, 841.032 466.845, 842.802 464.562 M837.638 471.934 C839.266 469.949, 841.392 466.702, 842.802 464.562 M839.85 472.262 C840.892 470.249, 842.601 469.411, 842.719 468.167 M839.85 472.262 C840.308 471.213, 841.029 470.373, 842.719 468.167" stroke="rgb(236, 236, 255)" stroke-width="1.541" fill="none"></path><path d="M696 407 C736.538 408.546, 774.086 405.385, 840 407 M696 407 C737.145 406.26, 777.072 405.176, 840 407 M840 407 C842.436 406.644, 843.365 410.289, 843 410 M840 407 C842.86 409.006, 844.331 407.713, 843 410 M843 410 C841.582 424.578, 842.587 436.697, 843 469 M843 410 C843.25 425.323, 842.609 441.057, 843 469 M843 469 C844.416 469.783, 841.632 470.311, 840 472 M843 469 C842.555 470.952, 839.553 470.441, 840 472 M840 472 C790.759 475.165, 738.61 471.899, 696 472 M840 472 C784.676 471.785, 728.053 471.5, 696 472 M696 472 C695.262 470.759, 694.029 470.389, 693 469 M696 472 C694.346 471.987, 690.996 468.428, 693 469 M693 469 C693.353 448.777, 693.069 426.198, 693 410 M693 469 C693.22 452.816, 692.856 434.911, 693 410 M693 410 C692.359 410.538, 692.762 405.55, 696 407 M693 410 C694.433 408.171, 696.002 408.343, 696 407 M696 407 C696 407, 696 407, 696 407 M696 407 C696 407, 696 407, 696 407" stroke="rgb(218, 206, 243)" stroke-width="1" fill="none"></path></g><g class="text-container" transform="matrix(1 0 0 1 50 10)"><text style="text-anchor: middle; font-size: 16px; font-weight: 400;font-style: normal;font-weight: 400;font-size: 16px;font-family: Comic Sans MS, cursive;" class="actor actor-box" alignment-baseline="central" dominant-baseline="central" y="429.5" x="718" stroke="rgb(218, 206, 243)" stroke-width="1px" fill="rgb(236, 236, 255)" text-anchor="middle"><tspan dy="0" x="718" stroke="none" stroke-width="1px" fill="rgb(0, 0, 0)" text-anchor="middle" dominant-baseline="central">Backend</tspan></text></g><g><path d="M489.842 410.203 C489.842 410.203, 489.842 410.203, 489.842 410.203 M489.842 410.203 C489.842 410.203, 489.842 410.203, 489.842 410.203 M490.193 413.01 C491.438 411.498, 491.835 409.801, 493.877 408.274 M490.193 413.01 C491.168 411.453, 492.187 410.084, 493.877 408.274 M489.929 416.606 C492.903 413.739, 492.743 412.43, 496.683 407.923 M489.929 416.606 C492.454 414.232, 494.001 410.976, 496.683 407.923 M490.28 419.412 C492.082 416.201, 496.324 413.304, 499.49 407.573 M490.28 419.412 C492.199 416.532, 495.153 414.122, 499.49 407.573 M490.016 423.008 C493.215 418.873, 497.505 413.132, 501.683 408.011 M490.016 423.008 C493.631 416.959, 499.139 412.405, 501.683 408.011 M489.753 426.604 C494.262 422.284, 496.625 415.675, 504.489 407.661 M489.753 426.604 C494.245 422.319, 498.373 415.938, 504.489 407.661 M490.103 429.411 C494.69 423.884, 497.328 422.204, 506.682 408.1 M490.103 429.411 C495.543 422.516, 500.685 416.271, 506.682 408.1 M489.84 433.006 C492.586 427.33, 497.692 420.777, 509.488 407.749 M489.84 433.006 C494.216 427.636, 498.752 422.018, 509.488 407.749 M490.19 435.813 C498.733 426.858, 506.589 413.243, 511.681 408.188 M490.19 435.813 C497.873 427.063, 504.647 418.555, 511.681 408.188 M489.927 439.409 C498.525 429.096, 509.52 413.594, 514.488 407.837 M489.927 439.409 C496.73 429.548, 504.935 421.804, 514.488 407.837 M490.278 442.216 C496.141 434.588, 501.983 424.322, 516.68 408.276 M490.278 442.216 C499.337 431.461, 506.04 420.431, 516.68 408.276 M490.014 445.812 C500.91 430.495, 513.202 413.77, 519.487 407.925 M490.014 445.812 C495.891 436.572, 502.879 429.74, 519.487 407.925 M489.751 449.407 C500.688 433.749, 512.712 420.288, 522.293 407.575 M489.751 449.407 C500.183 434.441, 511.422 421.705, 522.293 407.575 M490.101 452.214 C501.457 437.896, 510.858 425.311, 524.486 408.014 M490.101 452.214 C500.696 438.848, 510.456 426.345, 524.486 408.014 M489.838 455.81 C503.828 438.838, 517.086 422.152, 527.293 407.663 M489.838 455.81 C502.918 437.413, 518.417 419.536, 527.293 407.663 M490.188 458.617 C504.615 440.373, 521.937 417.599, 529.485 408.102 M490.188 458.617 C501.95 443.672, 513.241 430.998, 529.485 408.102 M489.925 462.213 C499.989 447.809, 512.745 431.646, 532.292 407.751 M489.925 462.213 C503.142 445.428, 514.184 430.139, 532.292 407.751 M490.275 465.019 C504.613 446.758, 518.972 431.867, 534.485 408.19 M490.275 465.019 C503.956 448.511, 514.962 432.28, 534.485 408.19 M490.012 468.615 C506.122 446.177, 526.892 424.96, 537.291 407.839 M490.012 468.615 C507.693 446.613, 524.468 424.38, 537.291 407.839 M491.591 469.843 C507.718 449.023, 524.054 429.638, 539.484 408.278 M491.591 469.843 C508.919 445.851, 528.313 422.984, 539.484 408.278 M492.555 471.86 C510.346 445.819, 531.622 421.098, 542.29 407.928 M492.555 471.86 C512.325 447.292, 531.183 420.567, 542.29 407.928 M494.748 472.299 C510.409 453.811, 522.583 435.909, 544.483 408.366 M494.748 472.299 C512.652 448.737, 531.461 426.681, 544.483 408.366 M497.554 471.949 C514.273 451.59, 529.034 431.184, 547.29 408.016 M497.554 471.949 C508.546 456.416, 519.288 443.211, 547.29 408.016 M499.747 472.387 C516.151 453.996, 529.472 433.416, 550.096 407.665 M499.747 472.387 C518.867 446.72, 538.533 422.338, 550.096 407.665 M502.554 472.037 C514.728 457.401, 522.276 445.757, 552.289 408.104 M502.554 472.037 C518.878 450.878, 537.292 427.869, 552.289 408.104 M504.746 472.476 C519.457 454.984, 532.132 439.081, 555.095 407.753 M504.746 472.476 C516.185 458.409, 527.37 444.685, 555.095 407.753 M507.553 472.125 C519.95 458.621, 527.658 444.126, 557.288 408.192 M507.553 472.125 C527.895 447.894, 546.385 422.11, 557.288 408.192 M510.359 471.774 C524.145 453.422, 538.943 436.929, 560.095 407.842 M510.359 471.774 C530.042 446.073, 549.884 422.201, 560.095 407.842 M512.552 472.213 C525.818 451.397, 541.893 432.892, 562.287 408.28 M512.552 472.213 C525.288 456.053, 536.42 440.901, 562.287 408.28 M515.359 471.863 C529.738 453.846, 546.452 430.678, 565.094 407.93 M515.359 471.863 C527.597 455.663, 541.69 438.773, 565.094 407.93 M517.551 472.301 C526.533 458.085, 538.278 444.274, 567.286 408.369 M517.551 472.301 C531.43 454.664, 546.53 436.031, 567.286 408.369 M520.358 471.951 C531.434 457.689, 539.185 446.169, 570.093 408.018 M520.358 471.951 C537.599 450.13, 554.712 428.056, 570.093 408.018 M522.55 472.39 C541.375 447.976, 559.782 425.593, 572.9 407.667 M522.55 472.39 C533.278 459.401, 545.612 444.149, 572.9 407.667 M525.357 472.039 C545.422 447.654, 564.173 422.673, 575.092 408.106 M525.357 472.039 C543.855 447.256, 564.181 423.716, 575.092 408.106 M527.55 472.478 C545.249 451.14, 560.581 428.76, 577.899 407.756 M527.55 472.478 C537.066 458.417, 547.835 446.151, 577.899 407.756 M530.356 472.127 C546.34 454.073, 560.826 436.554, 580.092 408.194 M530.356 472.127 C544.016 453.654, 558.777 434.663, 580.092 408.194 M532.549 472.566 C543.924 455.942, 555.139 444.83, 582.898 407.844 M532.549 472.566 C552.5 447.509, 571.915 422.626, 582.898 407.844 M535.356 472.215 C547.79 457.395, 560.342 438.407, 585.091 408.283 M535.356 472.215 C553.044 447.878, 571.622 424.714, 585.091 408.283 M538.162 471.865 C548.192 458.228, 559.545 445.388, 587.897 407.932 M538.162 471.865 C551.224 455.487, 564.371 439.144, 587.897 407.932 M540.355 472.303 C559.188 448.591, 574.98 427.322, 590.09 408.371 M540.355 472.303 C552.478 455.424, 565.711 439.851, 590.09 408.371 M543.161 471.953 C554.892 458.455, 563.341 445.191, 592.897 408.02 M543.161 471.953 C561.545 449.096, 579.134 425.358, 592.897 408.02 M545.354 472.392 C562.81 451.849, 578.994 427.102, 595.089 408.459 M545.354 472.392 C559.013 455.582, 571.24 437.903, 595.089 408.459 M548.161 472.041 C565.952 452.023, 581.362 427.504, 597.896 408.108 M548.161 472.041 C559.487 458.113, 571.446 441.391, 597.896 408.108 M550.353 472.48 C566.668 452.292, 580.992 434.997, 600.702 407.758 M550.353 472.48 C560.68 458.505, 572.199 445.084, 600.702 407.758 M553.16 472.129 C568.265 451.175, 582.602 434.655, 602.895 408.197 M553.16 472.129 C568.936 450.297, 587.001 429.436, 602.895 408.197 M555.352 472.568 C567.868 456.702, 582.773 436.076, 605.702 407.846 M555.352 472.568 C570.303 452.337, 586.093 432.831, 605.702 407.846 M558.159 472.217 C571.706 455.935, 584.979 439.405, 607.894 408.285 M558.159 472.217 C576.656 450.619, 593.01 428.31, 607.894 408.285 M560.966 471.867 C574.33 454, 586.198 440.563, 610.701 407.934 M560.966 471.867 C575.97 455.276, 588.667 436.684, 610.701 407.934 M563.158 472.306 C577.815 454.023, 589.337 435.569, 612.894 408.373 M563.158 472.306 C578.202 454.595, 592.863 435.188, 612.894 408.373 M565.965 471.955 C581.456 449.292, 599.579 430.369, 615.7 408.022 M565.965 471.955 C576.338 457.204, 588.202 443.123, 615.7 408.022 M568.157 472.394 C582.226 454.942, 592.765 440.862, 617.893 408.461 M568.157 472.394 C584.591 452.774, 599.302 433.318, 617.893 408.461 M570.964 472.043 C582.274 459.121, 593.085 443.715, 620.699 408.11 M570.964 472.043 C587.614 450.598, 603.051 428.715, 620.699 408.11 M573.157 472.482 C592.95 449.082, 611.232 424.578, 623.506 407.76 M573.157 472.482 C589.05 452.34, 606.374 431.287, 623.506 407.76 M575.963 472.131 C588.508 456.671, 600.948 440.082, 625.699 408.199 M575.963 472.131 C591.895 452.258, 607.263 432.579, 625.699 408.199 M578.156 472.57 C590.09 455.218, 604.48 441.806, 628.505 407.848 M578.156 472.57 C597.244 448.954, 614.079 425.591, 628.505 407.848 M580.963 472.22 C598.654 448.38, 621.725 421.603, 630.698 408.287 M580.963 472.22 C598.247 449.236, 613.214 428.555, 630.698 408.287 M583.155 472.658 C598.717 451.583, 616.771 431.53, 633.504 407.936 M583.155 472.658 C599.647 452.468, 614.881 432.345, 633.504 407.936 M585.962 472.308 C603.235 448.082, 623.011 424.373, 635.697 408.375 M585.962 472.308 C596.548 457.415, 609.234 442.936, 635.697 408.375 M588.768 471.957 C607.741 447.672, 624.216 426.013, 638.504 408.024 M588.768 471.957 C604.964 450.738, 621.352 429.715, 638.504 408.024 M590.961 472.396 C608.935 446.635, 631.391 421.692, 640.082 409.253 M590.961 472.396 C609.175 449.242, 624.465 427.774, 640.082 409.253 M593.768 472.045 C610.299 451.389, 624.89 427.557, 641.047 411.27 M593.768 472.045 C606.489 453.648, 620.669 436.943, 641.047 411.27 M595.96 472.484 C612.596 453.932, 627.151 433.147, 641.397 414.076 M595.96 472.484 C610.336 456.312, 622.726 439.3, 641.397 414.076 M598.767 472.134 C608.176 460.946, 618.341 445.592, 641.134 417.672 M598.767 472.134 C614.171 451.148, 631.935 430.242, 641.134 417.672 M600.959 472.572 C613.121 456.267, 625.688 440.944, 641.484 420.479 M600.959 472.572 C616.264 453.206, 631.905 432.809, 641.484 420.479 M603.766 472.222 C616.515 454.395, 634.319 433.812, 641.221 424.075 M603.766 472.222 C616.159 456.032, 627.175 441.464, 641.221 424.075 M605.959 472.661 C616.734 458.471, 623.205 446.748, 640.958 427.671 M605.959 472.661 C613.664 462.753, 622.568 451.369, 640.958 427.671 M608.765 472.31 C618.414 461.698, 623.889 452.1, 641.308 430.477 M608.765 472.31 C619.925 457.47, 631.867 442.285, 641.308 430.477 M611.572 471.959 C621.034 458.422, 629.662 447.488, 641.045 434.073 M611.572 471.959 C622.664 458.093, 633.946 443.843, 641.045 434.073 M613.764 472.398 C623.232 460.545, 630.122 452.743, 641.395 436.88 M613.764 472.398 C624.843 458.448, 634.862 445.457, 641.395 436.88 M616.571 472.048 C627.481 460.223, 637.335 447.701, 641.132 440.476 M616.571 472.048 C622.371 463.078, 629.287 454.029, 641.132 440.476 M618.764 472.486 C625.574 463.749, 630.399 458.624, 640.868 444.072 M618.764 472.486 C626.029 464.744, 633.026 455.581, 640.868 444.072 M621.57 472.136 C625.635 467.521, 629.25 462.408, 641.219 446.878 M621.57 472.136 C628.792 462.062, 635.643 452.856, 641.219 446.878 M623.763 472.575 C627.414 464.109, 636.534 459.942, 640.955 450.474 M623.763 472.575 C628.569 467.832, 632.426 462.247, 640.955 450.474 M626.57 472.224 C629.121 467.323, 631.659 465.289, 641.306 453.281 M626.57 472.224 C631.601 467.121, 636.225 459.48, 641.306 453.281 M628.762 472.663 C633.636 468.15, 637.129 460.361, 641.042 456.877 M628.762 472.663 C633.761 467.167, 637.159 461.889, 641.042 456.877 M631.569 472.312 C635.736 466.895, 639.015 464.454, 640.779 460.473 M631.569 472.312 C634.06 467.823, 637.958 464.031, 640.779 460.473 M633.761 472.751 C636.953 469.64, 638.108 466.716, 641.13 463.279 M633.761 472.751 C636.388 468.89, 638.975 466.001, 641.13 463.279 M636.568 472.4 C638.804 470.247, 639.319 468.481, 640.866 466.875 M636.568 472.4 C638.269 470.445, 640.279 468.146, 640.866 466.875" stroke="rgb(236, 236, 255)" stroke-width="1.187" fill="none"></path><path d="M493 407 C536.714 405.473, 580.645 407.91, 637 407 M637 407 C637.034 405.24, 641.893 408.937, 640 410 M640 410 C640.111 428.086, 639.784 448.531, 640 469 M640 469 C640.444 470.049, 638.71 472.589, 637 472 M637 472 C603.039 472.816, 570.404 469.809, 493 472 M493 472 C492.269 473.256, 491.845 469.169, 490 469 M490 469 C490.667 452.921, 490.51 441.693, 490 410 M490 410 C488.651 407.975, 492.027 408.986, 493 407 M493 407 C493 407, 493 407, 493 407" stroke="rgb(218, 206, 243)" stroke-width="1" fill="none"></path></g><g class="text-container" transform="matrix(1 0 0 1 50 10)"><text style="text-anchor: middle; font-size: 16px; font-weight: 400;font-style: normal;font-weight: 400;font-size: 16px;font-family: Comic Sans MS, cursive;" class="actor actor-box" alignment-baseline="central" dominant-baseline="central" y="429.5" x="515" stroke="rgb(218, 206, 243)" stroke-width="1px" fill="rgb(236, 236, 255)" text-anchor="middle"><tspan dy="0" x="515" stroke="none" stroke-width="1px" fill="rgb(0, 0, 0)" text-anchor="middle" dominant-baseline="central">Angular Frontend</tspan></text></g><g><path d="M972.114 75.555 C971.306 195.197, 971.247 316.425, 969.936 406.725 M971.545 74.971 C970.964 205.363, 969.843 337.198, 970.785 407.456" stroke="rgb(218, 206, 243)" stroke-width="2" fill="none"></path></g><g><path d="M895.77 13.347 C895.77 13.347, 895.77 13.347, 895.77 13.347 M895.77 13.347 C895.77 13.347, 895.77 13.347, 895.77 13.347 M895.787 20.558 C898.358 16.424, 900.658 14.578, 902.973 9.724 M895.787 20.558 C898.185 16.5, 900.947 13.366, 902.973 9.724 M895.804 27.769 C899.822 25.278, 900.634 18.625, 907.412 10.268 M895.804 27.769 C898.803 23.247, 899.986 19.796, 907.412 10.268 M895.821 34.98 C901.542 29.99, 906.244 22.381, 912.403 9.979 M895.821 34.98 C900.383 27.775, 904.918 21.202, 912.403 9.979 M895.838 42.191 C902.706 32.006, 909.753 23.607, 916.842 10.523 M895.838 42.191 C900.084 35.842, 904.606 30.567, 916.842 10.523 M895.855 49.402 C901.836 39.958, 909.064 29.548, 921.834 10.234 M895.855 49.402 C905.191 33.684, 915.81 19.82, 921.834 10.234 M895.872 56.613 C904.838 39.281, 915.482 23.638, 926.825 9.945 M895.872 56.613 C908.302 38.437, 920.656 20.05, 926.825 9.945 M895.889 63.824 C908.366 43.419, 925.014 23.288, 931.264 10.489 M895.889 63.824 C907.685 46.563, 918.232 28.893, 931.264 10.489 M895.906 71.035 C910.201 48.634, 929.209 22.922, 936.256 10.2 M895.906 71.035 C906.273 56.856, 915.111 40.849, 936.256 10.2 M898.134 74.913 C912.184 54.758, 925.632 31.052, 941.248 9.911 M898.134 74.913 C912.575 52.985, 929.198 29.503, 941.248 9.911 M903.126 74.624 C913.197 58.221, 923.518 44.359, 945.686 10.455 M903.126 74.624 C919.054 50.818, 935.678 26.706, 945.686 10.455 M907.565 75.168 C916.787 60.365, 925.412 46.391, 950.678 10.166 M907.565 75.168 C920.22 54.522, 933.497 35.498, 950.678 10.166 M912.556 74.879 C922.611 56.274, 936.406 39.487, 955.67 9.877 M912.556 74.879 C922.426 60.725, 933.424 44.966, 955.67 9.877 M917.548 74.59 C926.408 58.379, 940.678 41.781, 960.109 10.421 M917.548 74.59 C931.599 54.016, 947.44 30.801, 960.109 10.421 M921.987 75.134 C934.918 52.398, 951.332 31.709, 965.1 10.132 M921.987 75.134 C935.689 55.362, 949.019 35.157, 965.1 10.132 M926.979 74.845 C940.985 54.99, 951.742 35.134, 970.092 9.843 M926.979 74.845 C936.352 61.731, 943.903 48.308, 970.092 9.843 M931.418 75.389 C944.135 55.287, 958.396 38.151, 974.531 10.387 M931.418 75.389 C949.524 48.848, 966.847 24.337, 974.531 10.387 M936.409 75.1 C950.078 50.78, 968.604 26.328, 979.522 10.098 M936.409 75.1 C949.316 55.169, 963.613 35.49, 979.522 10.098 M941.401 74.811 C954.094 57.903, 965.861 41.577, 983.961 10.642 M941.401 74.811 C957.103 49.711, 972.721 25.446, 983.961 10.642 M945.84 75.355 C963.006 50.996, 976.446 25.607, 988.953 10.353 M945.84 75.355 C954.703 61.762, 964.401 49.841, 988.953 10.353 M950.831 75.066 C965.851 54.917, 975.114 38.671, 993.945 10.064 M950.831 75.066 C963.43 55.589, 974.831 37.988, 993.945 10.064 M955.823 74.777 C965.543 59.54, 972.895 47.744, 998.383 10.608 M955.823 74.777 C967.582 57.734, 979.895 41.139, 998.383 10.608 M960.262 75.321 C968.56 61.107, 977.231 47.706, 1003.375 10.319 M960.262 75.321 C973.825 53.622, 987.345 32.774, 1003.375 10.319 M965.253 75.032 C976.643 58.713, 985.51 45.764, 1008.367 10.03 M965.253 75.032 C980.586 53.226, 993.715 31.916, 1008.367 10.03 M970.245 74.743 C980.828 58.915, 990.69 45.119, 1012.806 10.574 M970.245 74.743 C982.806 55.206, 994.641 35.844, 1012.806 10.574 M974.684 75.287 C982.767 61.749, 989.781 50.402, 1017.797 10.285 M974.684 75.287 C988.189 54.811, 1002.169 35.897, 1017.797 10.285 M979.676 74.998 C993.435 55.623, 1006.803 38.059, 1022.789 9.996 M979.676 74.998 C989.397 60.352, 998.313 47.13, 1022.789 9.996 M984.667 74.709 C998.126 57.151, 1012.357 37.956, 1027.228 10.54 M984.667 74.709 C999.86 51.136, 1016.648 26.679, 1027.228 10.54 M989.106 75.253 C998.007 59.439, 1010.761 45.725, 1032.219 10.251 M989.106 75.253 C1001.983 54.388, 1016.365 34.981, 1032.219 10.251 M994.098 74.964 C1009.151 51.58, 1021.519 33.303, 1037.211 9.962 M994.098 74.964 C1009.248 53.872, 1023.167 30.832, 1037.211 9.962 M998.537 75.508 C1005.473 63.86, 1014.796 49.154, 1041.65 10.506 M998.537 75.508 C1008.522 62.095, 1017.089 47.868, 1041.65 10.506 M1003.528 75.219 C1017.931 53.926, 1032.465 32.019, 1045.536 11.884 M1003.528 75.219 C1017.405 52.916, 1032.872 30.933, 1045.536 11.884 M1008.52 74.93 C1023.118 54.403, 1036.629 31.916, 1046.659 17.428 M1008.52 74.93 C1019.352 60.116, 1029.377 45.358, 1046.659 17.428 M1012.959 75.474 C1019.402 64.546, 1027.217 49.944, 1046.676 24.639 M1012.959 75.474 C1023.156 59.447, 1033.281 45.411, 1046.676 24.639 M1017.951 75.185 C1024.086 67.461, 1031.019 53.978, 1046.693 31.85 M1017.951 75.185 C1028.984 59.496, 1039.375 44.03, 1046.693 31.85 M1022.942 74.896 C1027.956 66.503, 1033.692 56.645, 1046.71 39.061 M1022.942 74.896 C1031.562 61.404, 1040.684 47.263, 1046.71 39.061 M1027.381 75.44 C1032.552 66.103, 1040.988 52.084, 1046.727 46.272 M1027.381 75.44 C1032.683 66.992, 1039.236 57.158, 1046.727 46.272 M1032.373 75.151 C1036.471 69.081, 1039.967 64.228, 1046.744 53.483 M1032.373 75.151 C1036.105 68.358, 1041.55 61.562, 1046.744 53.483 M1037.364 74.862 C1041.684 69.686, 1044.68 65.35, 1046.761 60.694 M1037.364 74.862 C1040.023 70.574, 1042.44 66.917, 1046.761 60.694 M1041.803 75.406 C1043.419 74.026, 1043.847 70.72, 1046.778 67.906 M1041.803 75.406 C1042.705 73.607, 1044.654 71.982, 1046.778 67.906" stroke="rgb(236, 236, 255)" stroke-width="2.938" fill="none"></path><path d="M899 10 C952.523 10.761, 1007.006 10.443, 1043 10 M1043 10 C1043.272 9.206, 1044.988 12.516, 1046 13 M1046 13 C1047.614 30.162, 1044.452 51.175, 1046 72 M1046 72 C1046.999 75.27, 1042.965 75.409, 1043 75 M1043 75 C996.173 75.345, 946.578 72.93, 899 75 M899 75 C896.82 75.482, 894.375 74.502, 896 72 M896 72 C896.139 55.59, 896.087 36.759, 896 13 M896 13 C896.243 10.973, 899.654 9.103, 899 10 M899 10 C899 10, 899 10, 899 10" stroke="rgb(218, 206, 243)" stroke-width="1" fill="none"></path></g><g class="text-container" transform="matrix(1 0 0 1 50 10)"><text style="text-anchor: middle; font-size: 16px; font-weight: 400;font-style: normal;font-weight: 400;font-size: 16px;font-family: Comic Sans MS, cursive;" class="actor actor-box" alignment-baseline="central" dominant-baseline="central" y="32.5" x="921" stroke="rgb(218, 206, 243)" stroke-width="1px" fill="rgb(236, 236, 255)" text-anchor="middle"><tspan dy="0" x="921" stroke="none" stroke-width="1px" fill="rgb(0, 0, 0)" text-anchor="middle" dominant-baseline="central">Neo4j</tspan></text></g><g><path d="M767.234 74.649 C766.857 184.639, 766.267 291.977, 767.651 407.079" stroke="rgb(218, 206, 243)" stroke-width="2" fill="none"></path></g><g><path d="M692.781 13.338 C692.781 13.338, 692.781 13.338, 692.781 13.338 M692.781 13.338 C692.781 13.338, 692.781 13.338, 692.781 13.338 M692.869 20.548 C693.512 17.876, 694.568 17.375, 698.858 11.322 M692.869 20.548 C695.111 17.464, 697.266 14.892, 698.858 11.322 M692.958 27.759 C695.298 23.286, 698.028 18.745, 703.302 11.822 M692.958 27.759 C696.114 22.885, 700.374 18.794, 703.302 11.822 M693.046 34.969 C698.971 27.11, 701.38 19.862, 708.291 11.483 M693.046 34.969 C697.569 26.663, 704.058 19.375, 708.291 11.483 M693.135 42.18 C699.072 36.065, 704.918 25.255, 712.735 11.983 M693.135 42.18 C697.185 34.521, 701.702 26.486, 712.735 11.983 M693.223 49.39 C699.491 39.474, 704.692 32.112, 717.723 11.645 M693.223 49.39 C700.208 37.884, 709.446 25.966, 717.723 11.645 M692.767 57.44 C698.618 49.855, 703.794 37.975, 722.168 12.145 M692.767 57.44 C703.761 38.677, 716.376 21.059, 722.168 12.145 M692.855 64.65 C703.895 44.795, 719.277 28.136, 727.156 11.807 M692.855 64.65 C705.891 44.39, 718.982 25.523, 727.156 11.807 M692.944 71.861 C707.654 49.953, 724.342 23.505, 732.145 11.468 M692.944 71.861 C702.398 56.166, 712.042 42.243, 732.145 11.468 M695.755 74.878 C711.304 49.892, 725.809 28.48, 736.589 11.968 M695.755 74.878 C705.31 60.151, 715.32 43.486, 736.589 11.968 M700.199 75.378 C717.04 48.502, 734.738 23.84, 741.577 11.63 M700.199 75.378 C713.818 55.666, 726.29 35.25, 741.577 11.63 M705.187 75.039 C720.546 48.99, 736.359 23.208, 746.021 12.13 M705.187 75.039 C715.846 59.482, 725.647 43.787, 746.021 12.13 M709.631 75.539 C723.58 54.033, 736.083 32.973, 751.01 11.791 M709.631 75.539 C724.154 52.611, 738.157 31.232, 751.01 11.791 M714.62 75.201 C723.652 62.452, 734.198 44.738, 755.998 11.453 M714.62 75.201 C728.627 52.943, 743.265 31.164, 755.998 11.453 M719.608 74.862 C727.303 60.167, 734.29 49.13, 760.442 11.953 M719.608 74.862 C735.217 50.552, 753.199 24.32, 760.442 11.953 M724.052 75.363 C735.989 57.676, 744.695 42.869, 765.431 11.615 M724.052 75.363 C737 52.832, 753.222 31.55, 765.431 11.615 M729.041 75.024 C740.75 58.048, 752.097 40.341, 769.875 12.115 M729.041 75.024 C742.382 53.31, 757.11 32.178, 769.875 12.115 M733.485 75.524 C749.208 53.119, 762.192 33.86, 774.863 11.776 M733.485 75.524 C743.109 59.953, 753.332 45.222, 774.863 11.776 M738.473 75.186 C749.521 59.305, 760.872 41.187, 779.852 11.438 M738.473 75.186 C756.203 50.197, 772.462 25.078, 779.852 11.438 M742.918 75.686 C758.09 52.982, 770.698 30.927, 784.296 11.938 M742.918 75.686 C756.39 56.835, 768.516 35.958, 784.296 11.938 M747.906 75.347 C756.19 60.857, 763.619 48.673, 789.285 11.599 M747.906 75.347 C761.574 55.105, 775.585 33.128, 789.285 11.599 M752.895 75.009 C766.322 59.297, 775.187 40.088, 793.729 12.1 M752.895 75.009 C769.919 51.675, 783.595 26.846, 793.729 12.1 M757.339 75.509 C767.014 61.876, 774.788 48.101, 798.717 11.761 M757.339 75.509 C770.682 55.761, 784.907 33.464, 798.717 11.761 M762.327 75.171 C780.411 51.677, 795.159 24.908, 803.161 12.261 M762.327 75.171 C771.098 61.393, 780.856 47.607, 803.161 12.261 M766.771 75.671 C783.265 50.284, 800.657 27.621, 808.15 11.923 M766.771 75.671 C782.955 51.809, 799.304 27.444, 808.15 11.923 M771.76 75.332 C784.458 53.236, 800.675 32.614, 813.138 11.584 M771.76 75.332 C779.243 62.405, 788.143 49.848, 813.138 11.584 M776.748 74.994 C788.597 55.886, 802.598 35.835, 817.582 12.084 M776.748 74.994 C792.702 51.285, 809.202 25.507, 817.582 12.084 M781.192 75.494 C789.928 59.983, 797.702 48.604, 822.571 11.746 M781.192 75.494 C793.329 56.566, 804.801 39.395, 822.571 11.746 M786.181 75.155 C797.779 55.453, 812.407 35.564, 827.015 12.246 M786.181 75.155 C803.381 50.586, 819.664 25.674, 827.015 12.246 M790.625 75.656 C805.292 53.682, 817.621 35.149, 832.004 11.907 M790.625 75.656 C803.083 57.709, 814.547 40.366, 832.004 11.907 M795.614 75.317 C808.126 53.976, 822.277 29.562, 836.992 11.569 M795.614 75.317 C806.178 59.15, 816.008 44.105, 836.992 11.569 M800.602 74.978 C812.965 57.601, 822.65 41.656, 841.981 11.23 M800.602 74.978 C814.534 54.386, 828.035 33.183, 841.981 11.23 M805.046 75.479 C814.45 58.852, 826.975 43.05, 844.791 14.247 M805.046 75.479 C818.711 53.365, 833.372 31.375, 844.791 14.247 M810.035 75.14 C820.732 58.269, 830.068 44.711, 844.88 21.458 M810.035 75.14 C822.982 54.586, 836.798 34.539, 844.88 21.458 M814.479 75.64 C824.609 58.602, 838.711 40.502, 844.968 28.668 M814.479 75.64 C825.33 60.848, 834.302 45.93, 844.968 28.668 M819.467 75.302 C828.266 62.371, 838.665 45.855, 844.512 36.717 M819.467 75.302 C825.373 65.405, 833.385 54.946, 844.512 36.717 M823.911 75.802 C830.627 64.051, 839.799 54.969, 844.601 43.928 M823.911 75.802 C828.74 67.732, 833.872 60.241, 844.601 43.928 M828.9 75.464 C834.92 69.481, 838.029 61.511, 844.689 51.139 M828.9 75.464 C833.747 69.807, 837.252 63.251, 844.689 51.139 M833.888 75.125 C836.393 68.526, 842.548 62.854, 844.777 58.349 M833.888 75.125 C835.776 71.329, 838.747 68.018, 844.777 58.349 M838.332 75.625 C840.444 74.127, 842.066 72.058, 844.321 66.398 M838.332 75.625 C840.14 73.359, 841.888 70.337, 844.321 66.398" stroke="rgb(236, 236, 255)" stroke-width="2.494" fill="none"></path><path d="M696 10 C752.165 10.093, 806.485 10.42, 840 10 M840 10 C841.036 8.459, 841.782 11.417, 843 13 M843 13 C842.091 31.975, 842.596 50.101, 843 72 M843 72 C843.142 71.845, 843.031 75.941, 840 75 M840 75 C783.413 75.695, 728.594 76.544, 696 75 M696 75 C693.952 75.433, 692.19 72.836, 693 72 M693 72 C691.756 50.74, 692.915 28.91, 693 13 M693 13 C693.367 12.532, 694.248 10.885, 696 10 M696 10 C696 10, 696 10, 696 10" stroke="rgb(218, 206, 243)" stroke-width="1" fill="none"></path></g><g class="text-container" transform="matrix(1 0 0 1 50 10)"><text style="text-anchor: middle; font-size: 16px; font-weight: 400;font-style: normal;font-weight: 400;font-size: 16px;font-family: Comic Sans MS, cursive;" class="actor actor-box" alignment-baseline="central" dominant-baseline="central" y="32.5" x="718" stroke="rgb(218, 206, 243)" stroke-width="1px" fill="rgb(236, 236, 255)" text-anchor="middle"><tspan dy="0" x="718" stroke="none" stroke-width="1px" fill="rgb(0, 0, 0)" text-anchor="middle" dominant-baseline="central">Backend</tspan></text></g><g><path d="M563.737 73.989 C565.645 183.272, 565.638 292.84, 563.83 407.843" stroke="rgb(218, 206, 243)" stroke-width="2" fill="none"></path></g><g><path d="M489.997 13.003 C489.997 13.003, 489.997 13.003, 489.997 13.003 M489.997 13.003 C489.997 13.003, 489.997 13.003, 489.997 13.003 M490.045 19.406 C492.175 16.675, 494.819 14.804, 495.615 12.336 M490.045 19.406 C492.326 16.595, 493.976 14.09, 495.615 12.336 M490.094 25.809 C493.846 22.27, 497.172 20.078, 500.613 12.455 M490.094 25.809 C492.716 22.915, 495.875 19.112, 500.613 12.455 M490.142 32.212 C493.285 25.937, 499.218 20.737, 505.612 12.574 M490.142 32.212 C496.219 24.661, 500.443 17.527, 505.612 12.574 M490.19 38.615 C497.495 30.584, 502.397 21.776, 511.229 11.907 M490.19 38.615 C495.321 32.549, 499.66 25.712, 511.229 11.907 M490.238 45.018 C499.602 35.034, 510.165 20.896, 516.228 12.025 M490.238 45.018 C496.105 38.332, 500.366 31.052, 516.228 12.025 M490.286 51.421 C496.36 43.028, 502.522 37.17, 521.226 12.144 M490.286 51.421 C500.404 37.451, 511.584 25.542, 521.226 12.144 M489.715 58.61 C498.002 47.728, 507.621 36.629, 526.225 12.263 M489.715 58.61 C499.47 46.977, 509.009 35.515, 526.225 12.263 M489.763 65.012 C496.607 52.935, 508.043 43.066, 531.224 12.381 M489.763 65.012 C506.583 45.398, 521.258 23.396, 531.224 12.381 M489.812 71.415 C504.629 53.634, 520.861 33.224, 536.222 12.5 M489.812 71.415 C504.69 52.23, 519.869 34.218, 536.222 12.5 M492.335 74.676 C510.237 49.855, 529.839 27.453, 541.221 12.618 M492.335 74.676 C502.892 61.036, 513.579 48.571, 541.221 12.618 M497.334 74.795 C515.939 56.186, 531.451 34.812, 546.838 11.951 M497.334 74.795 C516.011 51.461, 535.478 27.26, 546.838 11.951 M502.332 74.913 C515.615 55.664, 529.965 36.39, 551.837 12.07 M502.332 74.913 C515.469 58.08, 528.955 39.911, 551.837 12.07 M507.331 75.032 C524.923 52.937, 543.847 30.447, 556.835 12.189 M507.331 75.032 C522.42 54.028, 538.881 35.774, 556.835 12.189 M512.329 75.151 C521.177 62.379, 532.318 49.067, 561.834 12.307 M512.329 75.151 C531.394 50.699, 550.974 26.737, 561.834 12.307 M517.328 75.269 C527.189 58.715, 541.179 44.33, 566.833 12.426 M517.328 75.269 C533.108 55.43, 548.534 36.397, 566.833 12.426 M522.327 75.388 C537.62 58.378, 551.125 38.845, 571.831 12.545 M522.327 75.388 C536.513 57.559, 550.186 39.406, 571.831 12.545 M527.944 74.721 C536.772 63.233, 547.402 48.815, 576.83 12.663 M527.944 74.721 C546.069 52.886, 562.733 30.623, 576.83 12.663 M532.943 74.84 C548.421 58.606, 562.987 39.817, 582.447 11.996 M532.943 74.84 C550.898 52.851, 566.397 32.867, 582.447 11.996 M537.941 74.958 C555.341 53.459, 573.757 31.868, 587.446 12.115 M537.941 74.958 C552.065 56.181, 567.081 38.362, 587.446 12.115 M542.94 75.077 C553.322 64.181, 561.524 51.017, 592.444 12.233 M542.94 75.077 C554.09 61.022, 565.616 46.842, 592.444 12.233 M547.938 75.195 C565.662 51.633, 587.966 24.266, 597.443 12.352 M547.938 75.195 C560.057 59.652, 573.238 43.284, 597.443 12.352 M552.937 75.314 C572.732 51.997, 592.476 26.813, 602.442 12.471 M552.937 75.314 C572.728 50.963, 590.942 27.029, 602.442 12.471 M557.935 75.433 C570.801 56.766, 584.769 40.893, 607.44 12.589 M557.935 75.433 C571.588 57.485, 587.52 39.391, 607.44 12.589 M563.553 74.766 C578.818 52.713, 596.138 32.45, 612.439 12.708 M563.553 74.766 C577.381 56.199, 592.038 38.409, 612.439 12.708 M568.551 74.884 C583.5 52.971, 601.397 33.091, 618.056 12.041 M568.551 74.884 C577.797 61.812, 588.833 49.808, 618.056 12.041 M573.55 75.003 C588.594 54.464, 600.454 36.717, 623.055 12.16 M573.55 75.003 C583.132 61.515, 595.362 49.788, 623.055 12.16 M578.549 75.122 C596.216 55.353, 611.579 33.244, 628.053 12.278 M578.549 75.122 C596.98 51.987, 615.873 28.223, 628.053 12.278 M583.547 75.24 C599.118 53.912, 620.507 28.102, 633.052 12.397 M583.547 75.24 C600.206 54.411, 615.484 34.454, 633.052 12.397 M588.546 75.359 C605.432 51.269, 623.154 31.273, 639.288 10.944 M588.546 75.359 C600.077 60.847, 612.996 44.854, 639.288 10.944 M593.544 75.477 C604.24 57.781, 616.95 44.791, 641.812 14.205 M593.544 75.477 C609.203 55.111, 624.215 34.998, 641.812 14.205 M599.162 74.81 C610.846 61.691, 619.663 46.63, 641.86 20.608 M599.162 74.81 C608.345 63.207, 617.948 50.929, 641.86 20.608 M604.16 74.929 C619.418 56.988, 633.402 39.254, 641.908 27.011 M604.16 74.929 C612.189 64.914, 621.458 53.291, 641.908 27.011 M609.159 75.048 C619.058 61.507, 630.145 49.854, 641.337 34.199 M609.159 75.048 C618.262 64.535, 626.467 52.794, 641.337 34.199 M614.158 75.166 C623.302 67.185, 629.996 54.346, 641.385 40.602 M614.158 75.166 C622.701 62.611, 632.826 50.622, 641.385 40.602 M619.156 75.285 C626.72 64.444, 635.991 55.441, 641.433 47.005 M619.156 75.285 C626.503 66.749, 632.226 58.669, 641.433 47.005 M624.155 75.403 C630.314 65.9, 635.143 59.748, 641.481 53.408 M624.155 75.403 C629.136 69.067, 635.001 60.388, 641.481 53.408 M629.153 75.522 C634.562 68.986, 639.886 61.868, 641.53 59.811 M629.153 75.522 C632.099 70.976, 635.841 67.798, 641.53 59.811 M634.771 74.855 C637.004 72.342, 639.185 70.111, 641.578 66.214 M634.771 74.855 C636.91 71.938, 639.082 68.743, 641.578 66.214" stroke="rgb(236, 236, 255)" stroke-width="2.29" fill="none"></path><path d="M493 10 C549.273 9.567, 603.456 9.685, 637 10 M637 10 C639.633 11.411, 639.682 12.825, 640 13 M640 13 C642.151 24.615, 641.141 38.084, 640 72 M640 72 C640.351 73.305, 638.997 75.705, 637 75 M637 75 C590.619 73.629, 544.576 75.296, 493 75 M493 75 C490.589 75.436, 490.198 75.301, 490 72 M490 72 C491.356 48.762, 491.485 29.421, 490 13 M490 13 C490.241 13.229, 490.223 11.559, 493 10 M493 10 C493 10, 493 10, 493 10" stroke="rgb(218, 206, 243)" stroke-width="1" fill="none"></path></g><g class="text-container" transform="matrix(1 0 0 1 50 10)"><text style="text-anchor: middle; font-size: 16px; font-weight: 400;font-style: normal;font-weight: 400;font-size: 16px;font-family: Comic Sans MS, cursive;" class="actor actor-box" alignment-baseline="central" dominant-baseline="central" y="32.5" x="515" stroke="rgb(218, 206, 243)" stroke-width="1px" fill="rgb(236, 236, 255)" text-anchor="middle"><tspan dy="0" x="515" stroke="none" stroke-width="1px" fill="rgb(0, 0, 0)" text-anchor="middle" dominant-baseline="central">Angular Frontend</tspan></text></g><g><path d="M124.228 89.293 C122.227 158.915, 122.893 227.929, 126.136 407.906 M125.189 90.258 C123.254 213.687, 123.232 335.997, 124.401 406.533" stroke="rgb(218, 206, 243)" stroke-width="2" fill="none"></path></g><g><path d="M126.465 33.767 C124.473 43.818, 125.291 49.448, 123.336 55.595 M125.289 34.424 C125.868 41.763, 124.632 47.329, 124.004 54.664" stroke="rgb(218, 206, 243)" stroke-width="2" fill="none"></path></g><g><path d="M105.205 43.236 C120.17 42.583, 131.982 43.559, 143.656 42.539" stroke="rgb(218, 206, 243)" stroke-width="2" fill="none"></path></g><g><path d="M107.599 71.421 C112.09 64.989, 114.521 63.13, 124.561 56.703 M106.359 70.246 C113.251 65.133, 120.078 58.728, 125.042 54.688" stroke="rgb(218, 206, 243)" stroke-width="2" fill="none"></path></g><g><path d="M124.415 53.511 C129.185 57.375, 135.3 64.163, 139.157 70.813 M124.213 54.631 C130.836 60.686, 136.892 66.063, 140.444 69.176" stroke="rgb(218, 206, 243)" stroke-width="2" fill="none"></path></g><g><path d="M110.76 16.658 C110.76 16.658, 110.76 16.658, 110.76 16.658 M110.76 16.658 C110.76 16.658, 110.76 16.658, 110.76 16.658 M111.275 19.439 C114.749 16.009, 116.553 9.058, 119.204 7.901 M111.275 19.439 C112.711 16.532, 116.101 13.879, 119.204 7.901 M111.791 22.22 C112.769 17.092, 118.514 15.531, 122.551 6.561 M111.791 22.22 C115.264 16.288, 120.613 9.055, 122.551 6.561 M111.74 25.825 C116.85 17.308, 122.082 10.272, 125.899 5.221 M111.74 25.825 C113.961 21.406, 117.015 18.507, 125.899 5.221 M113.388 26.958 C117.784 17.79, 123.859 12.528, 127.547 6.354 M113.388 26.958 C115.604 22.644, 119.297 17.424, 127.547 6.354 M114.47 28.915 C121.247 21.067, 124.129 11.616, 129.196 7.486 M114.47 28.915 C118.8 23.772, 122.13 18.194, 129.196 7.486 M115.552 30.872 C118.681 23.191, 124.322 21.104, 130.844 8.619 M115.552 30.872 C120.52 24.31, 124.532 17.807, 130.844 8.619 M117.201 32.004 C122.579 23.646, 129.593 15.814, 133.059 8.928 M117.201 32.004 C122.219 25.101, 127.11 19.949, 133.059 8.928 M118.283 33.961 C125.469 24.858, 131.67 14.501, 134.707 10.06 M118.283 33.961 C121.747 29.689, 124.883 23.743, 134.707 10.06 M121.064 33.446 C126.071 25.322, 132.122 17.19, 136.355 11.193 M121.064 33.446 C123.977 28.158, 128.406 23.828, 136.355 11.193 M123.278 33.754 C127.497 28.053, 133.266 19.167, 137.437 13.15 M123.278 33.754 C125.924 28.159, 129.943 23.868, 137.437 13.15 M125.493 34.063 C131.015 28.36, 135.25 19.482, 138.519 15.107 M125.493 34.063 C131.141 26.911, 135.094 18.369, 138.519 15.107 M128.274 33.547 C130.808 26.356, 135.937 22.254, 139.601 17.064 M128.274 33.547 C132.096 27.083, 136.818 20.847, 139.601 17.064 M131.621 32.207 C134.11 27.794, 135.364 25.771, 140.683 19.021 M131.621 32.207 C134.392 28.178, 138.499 23.073, 140.683 19.021 M134.969 30.867 C136.892 28.068, 138.44 26.09, 139.5 24.274 M134.969 30.867 C136.062 28.322, 138.164 26.191, 139.5 24.274" stroke="rgb(236, 236, 255)" stroke-width="1.31" fill="none"></path><path d="M126.376 5.24 C129.375 5.555, 133.038 8.531, 135.374 10.907 C137.711 13.284, 140.159 16.447, 140.397 19.499 C140.634 22.551, 138.687 26.923, 136.798 29.22 C134.908 31.517, 132.238 32.631, 129.059 33.281 C125.881 33.931, 120.577 34.434, 117.726 33.122 C114.875 31.81, 113.079 28.204, 111.954 25.408 C110.829 22.611, 110.095 19.111, 110.976 16.342 C111.858 13.574, 114.378 10.507, 117.244 8.798 C120.109 7.09, 125.976 6.325, 128.17 6.091 C130.365 5.857, 130.447 7.081, 130.411 7.393" stroke="rgb(218, 206, 243)" stroke-width="2" fill="none"></path></g><g class="text-container" transform="matrix(1 0 0 1 50 10)"><text style="text-anchor: middle; font-size: 16px; font-weight: 400;font-style: normal;font-weight: 400;font-size: 16px;font-family: Comic Sans MS, cursive;" class="actor actor-man" alignment-baseline="central" dominant-baseline="central" y="67.5" x="75" stroke="rgb(218, 206, 243)" stroke-width="1px" fill="rgb(236, 236, 255)" text-anchor="middle"><tspan dy="0" x="75" stroke="none" stroke-width="1px" fill="rgb(0, 0, 0)" text-anchor="middle" dominant-baseline="central">User</tspan></text></g><g class="text-container" transform="matrix(1 0 0 1 50 10)"><text style="font-size: 16px; font-weight: 400;font-style: normal;font-weight: 400;font-size: 16px;font-family: Comic Sans MS, cursive;" dy="1em" class="messageText" alignment-baseline="middle" dominant-baseline="middle" text-anchor="middle" y="80" x="294" stroke="none" stroke-width="1px" fill="rgb(51, 51, 51)">Edits the graph (Add/Remove/Update Nodes/Edges)</text></g><g><path d="M125.226 127.344 C226.349 125.738, 327.214 127.231, 561.624 127.588" stroke="rgb(51, 51, 51)" stroke-width="1.5" fill="none"></path></g><g><path d="M552.331 121.761 C552.331 121.761, 552.331 121.761, 552.331 121.761 M552.331 121.761 C552.331 121.761, 552.331 121.761, 552.331 121.761 M552.266 124.643 C552.987 123.973, 553.4 123.487, 553.668 123.107 M552.439 124.526 C552.843 124.246, 553.144 123.859, 553.736 123.057 M552.23 127.904 C553.454 126.465, 553.706 126.017, 556.154 124.072 M552.648 127.546 C553.259 126.346, 554.049 125.884, 556.007 123.61 M552.485 128.879 C554.446 128.063, 555.076 126.881, 557.483 124.222 M552.937 129.386 C554.88 127.9, 556.422 126.39, 558.141 124.665 M552.41 132.307 C554.222 130.858, 555.825 127.997, 560.724 125.332 M553.678 132.208 C554.998 130.344, 556.379 129.191, 560.151 125.095 M558.693 129.299 C559.925 128.674, 560.617 127.852, 561.551 126.653 M558.935 129.393 C559.407 128.808, 560.443 127.897, 561.6 126.551" stroke="rgb(51, 51, 51)" stroke-width="1.426" fill="none"></path><path d="M551.549 121.08 C555.251 122.73, 558.68 125.46, 562.618 127.042 M562.627 126.47 C559.902 128.95, 559.506 129.239, 553.323 130.954 M554.009 131.171 C552.048 128.207, 552.874 124.645, 551.864 121.703" stroke="rgb(51, 51, 51)" stroke-width="1" fill="none"></path></g><g class="text-container" transform="matrix(1 0 0 1 50 10)"><text style="font-size: 16px; font-weight: 400;font-style: normal;font-weight: 400;font-size: 16px;font-family: Comic Sans MS, cursive;" dy="1em" class="messageText" alignment-baseline="middle" dominant-baseline="middle" text-anchor="middle" y="132" x="615" stroke="none" stroke-width="1px" fill="rgb(51, 51, 51)">Send the edits</text></g><g><path d="M567.454 180.06 C612.078 177.377, 655.402 178.571, 765.761 178.358" stroke="rgb(51, 51, 51)" stroke-width="1.5" fill="none"></path></g><g><path d="M755.118 173.976 C755.118 173.976, 755.118 173.976, 755.118 173.976 M755.118 173.976 C755.118 173.976, 755.118 173.976, 755.118 173.976 M755.516 176.802 C755.975 176.029, 756.266 175.816, 756.633 175.23 M755.491 176.785 C756.022 176.194, 756.289 175.658, 756.629 175.2 M756.059 179.396 C756.459 178.319, 757.247 176.985, 758.843 175.213 M755.811 179.679 C757.07 178.257, 758.12 176.703, 758.732 175.646 M755.136 183.609 C756.65 180.856, 758 179.444, 760.006 176.775 M755.606 183.313 C757.286 181.048, 759.785 178.296, 760.509 176.731 M758.371 183.288 C760.468 181.107, 761.041 178.644, 762.106 177.634 M758.229 183.101 C759.75 181.184, 761.328 178.826, 762.669 177.106 M761.833 181.45 C762.433 180.534, 763.458 179.672, 764.388 177.956 M761.771 181.683 C762.758 180.821, 763.337 179.688, 764.17 178.507" stroke="rgb(51, 51, 51)" stroke-width="1.586" fill="none"></path><path d="M755.609 172.975 C757.955 175.974, 760.729 175.769, 765.989 179.823 M765.593 179.516 C762.446 180.457, 759.996 182.073, 756.042 183.725 M755.904 183.457 C756.666 179.208, 755.672 176.061, 756.073 173.108" stroke="rgb(51, 51, 51)" stroke-width="1" fill="none"></path></g><g class="text-container" transform="matrix(1 0 0 1 50 10)"><text style="font-size: 16px; font-weight: 400;font-style: normal;font-weight: 400;font-size: 16px;font-family: Comic Sans MS, cursive;" dy="1em" class="messageText" alignment-baseline="middle" dominant-baseline="middle" text-anchor="middle" y="184" x="818" stroke="none" stroke-width="1px" fill="rgb(51, 51, 51)">Process edits</text></g><g><path d="M768.413 231.436 C826.338 228.491, 880.91 231.191, 966.625 231.49" stroke="rgb(51, 51, 51)" stroke-width="1.5" fill="none"></path></g><g><path d="M957.955 226.204 C957.955 226.204, 957.955 226.204, 957.955 226.204 M957.955 226.204 C957.955 226.204, 957.955 226.204, 957.955 226.204 M958.578 228.891 C958.599 228.218, 959.31 227.863, 960.241 226.771 M958.342 228.869 C958.792 228.554, 959.093 228.063, 960.029 226.485 M958.623 231.495 C960.326 230.16, 960.846 229.324, 961.436 227.647 M958.789 231.784 C959.497 230.795, 960.564 229.761, 961.754 227.7 M959.183 234.77 C960.815 232.808, 961.528 231.781, 964.133 228.908 M958.775 235.254 C960.867 232.825, 962.51 230.34, 963.319 229.078 M960.895 236.384 C961.593 235.861, 963.317 233.83, 966.518 228.509 M960.175 236.797 C962.128 233.879, 963.759 232.124, 965.265 228.952 M963.446 234.888 C964.718 234.079, 965.102 233.069, 967.836 230.34 M963.73 235.113 C964.909 233.939, 965.883 232.688, 967.126 230.618" stroke="rgb(51, 51, 51)" stroke-width="1.204" fill="none"></path><path d="M958.959 226.048 C962.175 226.973, 965.9 228.687, 969.662 231.396 M968.895 230.332 C966.178 231.817, 964.219 233.928, 958.402 236.885 M959.745 236.736 C958.742 232.414, 958.593 227.84, 958.974 225.415" stroke="rgb(51, 51, 51)" stroke-width="1" fill="none"></path></g><g class="text-container" transform="matrix(1 0 0 1 50 10)"><text style="font-size: 16px; font-weight: 400;font-style: normal;font-weight: 400;font-size: 16px;font-family: Comic Sans MS, cursive;" dy="1em" class="messageText" alignment-baseline="middle" dominant-baseline="middle" text-anchor="middle" y="236" x="821" stroke="none" stroke-width="1px" fill="rgb(51, 51, 51)">Updated full graph</text></g><g><path d="M970.025 284.846 C900.305 281.294, 830.527 279.899, 773.734 282.783" stroke="rgb(51, 51, 51)" stroke-width="1.5" fill="none"></path></g><g><path d="M769.736 283.185 C769.736 283.185, 769.736 283.185, 769.736 283.185 M769.736 283.185 C769.736 283.185, 769.736 283.185, 769.736 283.185 M772.68 284.78 C774.047 282.068, 775.512 281.01, 777.014 279.372 M772.401 284.583 C774.582 282.295, 775.949 281.061, 776.942 279.246 M776.194 285.58 C776.546 284.899, 777.692 282.325, 781.415 279.96 M775.569 285.693 C777.486 283.819, 779.039 281.58, 780.972 279.98 M778.428 287.164 C779.225 285.765, 780.274 285.045, 781.177 284.155 M778.484 286.809 C779.003 286.086, 779.485 285.611, 781 283.715" stroke="rgb(51, 51, 51)" stroke-width="0.775" fill="none"></path><path d="M779.999 288.166 C776.14 285.328, 772.403 284.425, 770.734 283.209 M781.381 287.749 C776.685 286.064, 772.374 284.668, 769.742 283.251 M770.679 283.725 C772.123 281.333, 774.048 280.067, 780.949 277.197 M769.957 282.854 C773.365 280.95, 777.74 278.852, 779.969 277.909 M779.639 277.76 C780.21 279.832, 779.342 282.467, 780.655 287.103 M779.766 277.605 C779.754 280.555, 780.792 282.465, 781.17 287.654" stroke="rgb(51, 51, 51)" stroke-width="1" fill="none"></path></g><g class="text-container" transform="matrix(1 0 0 1 50 10)"><text style="font-size: 16px; font-weight: 400;font-style: normal;font-weight: 400;font-size: 16px;font-family: Comic Sans MS, cursive;" dy="1em" class="messageText" alignment-baseline="middle" dominant-baseline="middle" text-anchor="middle" y="288" x="618" stroke="none" stroke-width="1px" fill="rgb(51, 51, 51)">Updated full graph</text></g><g><path d="M767.996 336.107 C706.038 335.128, 643.575 335.569, 568.556 333.563 M767.807 334.357 C691.981 336.101, 616.591 336.789, 569.677 334.467" stroke="rgb(51, 51, 51)" stroke-width="1.5" fill="none"></path></g><g><path d="M566.969 334.906 C566.969 334.906, 566.969 334.906, 566.969 334.906 M566.969 334.906 C566.969 334.906, 566.969 334.906, 566.969 334.906 M567.616 335.427 C567.856 335.081, 568.232 334.896, 569.147 334.048 M567.726 335.571 C568.221 334.818, 568.696 334.336, 569.036 333.892 M568.864 336.186 C569.395 335.482, 570.125 334.492, 570.953 333.166 M568.499 336.039 C569.187 335.212, 569.692 334.251, 571.063 332.848 M570.195 335.617 C570.437 334.665, 571.32 333.73, 572.869 331.438 M570.032 335.715 C570.506 335.117, 571.075 334.306, 573.062 331.592 M571.075 336.705 C571.88 334.412, 573.773 333.442, 575.152 330.164 M571.093 336.449 C572.483 334.23, 573.421 332.325, 574.652 331.071 M571.978 337.414 C574.638 334.884, 575.05 332.158, 576.615 329.847 M571.252 336.744 C573.667 334.193, 575.546 331.441, 576.955 329.489 M572.855 337.371 C574.404 335.838, 575.244 333.075, 577.18 330.014 M572.304 337.921 C573.75 335.858, 575.393 333.274, 578.02 330.243 M573.352 337.719 C574.965 336.625, 576.285 334.095, 578.125 331.926 M573.378 338.44 C574.407 336.925, 575.632 335.235, 577.663 331.908 M574.974 337.442 C575.153 337.175, 577.103 335.372, 577.67 333.14 M574.791 337.852 C575.548 336.769, 576.143 335.53, 577.854 333.095 M575.117 338.792 C576.223 338.133, 576.536 336.599, 577.461 335.218 M575.288 338.775 C576.031 337.489, 577.048 336.478, 577.889 335.197 M576.169 339.269 C576.725 338.773, 577.115 338.222, 578.237 336.853 M576.196 339.198 C576.62 338.476, 577.223 337.757, 577.857 336.671 M576.92 339.677 C577.477 339.524, 577.499 338.818, 578.066 338.178 M577.064 339.86 C577.372 339.444, 577.564 338.993, 578.282 338.097" stroke="rgb(51, 51, 51)" stroke-width="0.946" fill="none"></path><path d="M577.043 340.2 C575.467 337.981, 571.363 337.569, 567.44 334.71 M577.454 340.419 C573.496 338.13, 568.724 336.146, 567.417 334.809 M567.576 335.741 C571.846 332.809, 575.457 331.318, 577.918 329.826 M566.551 335.047 C570.833 332.713, 574.23 331.718, 576.778 329.698 M577.094 330.745 C577.615 331.324, 578.319 334.784, 577.352 339.89 M576.763 329.751 C576.872 332.686, 577.866 335.539, 578.271 339.946" stroke="rgb(51, 51, 51)" stroke-width="1" fill="none"></path></g><g class="text-container" transform="matrix(1 0 0 1 50 10)"><text style="font-size: 16px; font-weight: 400;font-style: normal;font-weight: 400;font-size: 16px;font-family: Comic Sans MS, cursive;" dy="1em" class="messageText" alignment-baseline="middle" dominant-baseline="middle" text-anchor="middle" y="340" x="297" stroke="none" stroke-width="1px" fill="rgb(51, 51, 51)">Display updated graph</text></g><g><path d="M564.472 386.493 C405.937 385.387, 249.19 385.951, 129.929 386.003" stroke="rgb(51, 51, 51)" stroke-width="1.5" fill="none"></path></g><g><path d="M126.723 387.207 C126.723 387.207, 126.723 387.207, 126.723 387.207 M126.723 387.207 C126.723 387.207, 126.723 387.207, 126.723 387.207 M128.813 387.391 C129.849 386.53, 130.779 385.274, 131.453 384.655 M128.871 387.747 C129.68 386.83, 130.542 385.578, 131.486 384.526 M129.955 389.406 C131.673 387.955, 133.376 385.73, 135.528 383.093 M130.415 389.124 C131.93 387.504, 133.594 384.953, 136.49 382.307 M132.053 389.353 C133.593 387.631, 136.28 386.024, 138.244 383.578 M132.636 389.778 C134.347 387.849, 135.613 385.894, 137.774 383.464 M134.322 390.334 C136.046 389.264, 137.035 387.874, 138.072 386.475 M134.518 390.13 C135.319 389.513, 136.055 388.568, 138.105 386.268 M136.221 391.398 C136.657 390.68, 137.25 389.746, 138.219 388.924 M136.151 391.343 C136.71 390.825, 137.072 390.256, 138.234 389.193" stroke="rgb(51, 51, 51)" stroke-width="0.573" fill="none"></path><path d="M138.548 392.401 C133.836 391.156, 129.58 389.405, 126.604 387.196 M127.352 387.272 C131.157 385.853, 134.601 383.739, 135.877 382.607 M136.011 381.656 C136.696 384.035, 138.193 387.062, 137.016 391.501" stroke="rgb(51, 51, 51)" stroke-width="1" fill="none"></path></g><g><path d="M123.667 430.632 C124.806 438.968, 125.633 445.635, 124.141 451.938" stroke="rgb(218, 206, 243)" stroke-width="2" fill="none"></path></g><g><path d="M105.885 441.682 C116.587 439.19, 131.406 438.224, 142.977 440.747 M106.472 439.774 C118.531 440.706, 131.243 439.256, 142.22 440.648" stroke="rgb(218, 206, 243)" stroke-width="2" fill="none"></path></g><g><path d="M105.311 468.278 C109.807 462.57, 114.768 459.456, 126.475 453.321 M107.993 466.641 C112.266 462.851, 119.155 456.24, 124.811 452.812" stroke="rgb(218, 206, 243)" stroke-width="2" fill="none"></path></g><g><path d="M123.507 453.455 C129.895 454.271, 131.071 459.918, 142.191 465.573" stroke="rgb(218, 206, 243)" stroke-width="2" fill="none"></path></g><g><path d="M112.789 409.476 C112.789 409.476, 112.789 409.476, 112.789 409.476 M112.789 409.476 C112.789 409.476, 112.789 409.476, 112.789 409.476 M112.189 411.63 C113.078 408.762, 116.19 408.068, 120.24 402.731 M112.189 411.63 C114.736 409.258, 116.847 406.521, 120.24 402.731 M111.589 413.784 C113.67 409.333, 116.892 406.842, 121.652 402.66 M111.589 413.784 C115.168 410.04, 118.355 405.053, 121.652 402.66 M110.989 415.938 C115.759 411.29, 121.743 403.915, 123.064 402.589 M110.989 415.938 C113.188 413.154, 115.325 410.236, 123.064 402.589 M110.389 418.092 C112.914 413.366, 119.248 410.575, 124.477 402.519 M110.389 418.092 C115.228 414.784, 118.14 408.606, 124.477 402.519 M109.789 420.246 C114.043 415.86, 117.864 409.413, 125.889 402.448 M109.789 420.246 C115.613 414.317, 119.262 410.157, 125.889 402.448 M110.53 420.917 C115.65 416.651, 117.629 411.591, 127.302 402.377 M110.53 420.917 C114.561 417.477, 117.208 414.122, 127.302 402.377 M111.272 421.588 C116.62 413.294, 124.399 407.435, 128.714 402.306 M111.272 421.588 C115.613 416.501, 118.632 413.379, 128.714 402.306 M112.014 422.259 C116.456 418.81, 119.112 414.338, 129.456 402.977 M112.014 422.259 C117.197 416.52, 124.075 408.835, 129.456 402.977 M112.084 423.671 C118.632 419.984, 122.539 413.815, 130.868 402.907 M112.084 423.671 C118.056 416.821, 124.072 410.28, 130.868 402.907 M112.826 424.342 C117.049 417.238, 123.656 410.453, 131.61 403.577 M112.826 424.342 C120.603 415.584, 127.258 408.388, 131.61 403.577 M113.568 425.013 C118.813 421.261, 120.634 414.217, 132.351 404.248 M113.568 425.013 C118.803 418.664, 123.971 414.177, 132.351 404.248 M114.309 425.684 C118.141 420.412, 121.68 417.766, 132.422 405.661 M114.309 425.684 C120.89 419.169, 127.6 411.944, 132.422 405.661 M114.38 427.096 C122.935 417.487, 127.805 410.71, 133.164 406.332 M114.38 427.096 C121.477 420.963, 127.304 413.309, 133.164 406.332 M115.122 427.767 C119.793 423.415, 121.195 420.695, 133.905 407.002 M115.122 427.767 C122.895 420.031, 130.656 410.487, 133.905 407.002 M115.863 428.438 C119.628 422.631, 123.502 418.017, 134.647 407.673 M115.863 428.438 C119.976 422.446, 125.52 418.026, 134.647 407.673 M116.605 429.109 C120.813 425.281, 127.025 418.11, 135.389 408.344 M116.605 429.109 C121.756 423.266, 125.658 418.347, 135.389 408.344 M118.017 429.038 C125.303 421.861, 130.351 412.298, 136.13 409.015 M118.017 429.038 C123.612 423.824, 128.991 417.414, 136.13 409.015 M118.759 429.709 C124.034 423.118, 128.293 417.623, 136.872 409.686 M118.759 429.709 C123.847 422.769, 129.585 417.649, 136.872 409.686 M119.5 430.38 C125.244 423.933, 130.426 416.469, 137.613 410.357 M119.5 430.38 C124.916 426.185, 128.156 421.014, 137.613 410.357 M120.913 430.309 C124.703 424.342, 129.099 422.968, 137.684 411.769 M120.913 430.309 C125.549 423.125, 132.822 417.471, 137.684 411.769 M121.654 430.98 C126.576 426.191, 130.305 422.466, 137.755 413.181 M121.654 430.98 C126.957 424.256, 133.022 419.172, 137.755 413.181 M122.396 431.651 C126.027 425.055, 132.762 420.255, 138.496 413.852 M122.396 431.651 C128.382 426, 131.861 419.541, 138.496 413.852 M123.808 431.58 C130.568 426.638, 133.549 418.117, 138.567 415.265 M123.808 431.58 C127.355 428.43, 130.212 423.243, 138.567 415.265 M124.55 432.251 C129.582 427.442, 135.269 421.312, 138.638 416.677 M124.55 432.251 C128.664 428.029, 132.677 421.927, 138.638 416.677 M125.292 432.922 C127.927 427.949, 129.56 427.245, 138.709 418.09 M125.292 432.922 C128.193 430.352, 131.329 426.224, 138.709 418.09 M128.046 431.368 C132.969 425.524, 138.066 420.732, 139.45 418.761 M128.046 431.368 C129.664 429.686, 132.766 426.303, 139.45 418.761 M130.129 430.555 C133.089 427.916, 137.048 424.535, 140.192 419.431 M130.129 430.555 C133.257 426.664, 137.812 421.82, 140.192 419.431 M132.212 429.743 C133.955 427.908, 137.091 425.282, 138.25 423.069 M132.212 429.743 C134.46 427.193, 136.1 425.727, 138.25 423.069 M134.296 428.931 C135.088 428.077, 136.258 427.478, 136.979 425.964 M134.296 428.931 C135.209 427.757, 135.978 427.01, 136.979 425.964" stroke="rgb(236, 236, 255)" stroke-width="0.571" fill="none"></path><path d="M119.974 402.626 C122.63 401.439, 127.013 401.178, 129.935 402.46 C132.858 403.743, 135.964 407.54, 137.507 410.319 C139.051 413.098, 139.663 416.109, 139.198 419.134 C138.734 422.159, 137.039 426.277, 134.72 428.47 C132.401 430.662, 128.496 432.362, 125.284 432.286 C122.072 432.211, 118.011 430.092, 115.446 428.015 C112.881 425.938, 110.354 422.896, 109.894 419.826 C109.433 416.756, 110.699 412.342, 112.683 409.594 C114.667 406.845, 119.734 404.665, 121.798 403.336 C123.862 402.007, 125.08 401.483, 125.067 401.619 M121.4 402.276 C124.325 401.115, 128.035 402.83, 130.717 404.14 C133.399 405.451, 135.803 407.439, 137.491 410.139 C139.179 412.839, 141.384 417.05, 140.844 420.34 C140.305 423.631, 137.145 428.064, 134.253 429.884 C131.361 431.704, 126.7 431.504, 123.493 431.262 C120.285 431.02, 117.384 430.502, 115.009 428.43 C112.633 426.358, 109.943 421.913, 109.24 418.83 C108.537 415.747, 109.001 412.522, 110.793 409.931 C112.584 407.341, 118.424 404.376, 119.989 403.287 C121.554 402.198, 120.331 403.009, 120.182 403.397" stroke="rgb(218, 206, 243)" stroke-width="2" fill="none"></path></g><g class="text-container" transform="matrix(1 0 0 1 50 10)"><text style="text-anchor: middle; font-size: 16px; font-weight: 400;font-style: normal;font-weight: 400;font-size: 16px;font-family: Comic Sans MS, cursive;" class="actor actor-man" alignment-baseline="central" dominant-baseline="central" y="464.5" x="75" stroke="rgb(218, 206, 243)" stroke-width="1px" fill="rgb(236, 236, 255)" text-anchor="middle"><tspan dy="0" x="75" stroke="none" stroke-width="1px" fill="rgb(0, 0, 0)" text-anchor="middle" dominant-baseline="central">User</tspan></text></g></svg>