<?xml version="1.0" encoding="UTF-8"?>
<?xml-stylesheet href="https://cdnjs.cloudflare.com/ajax/libs/font-awesome/6.7.2/css/all.min.css" type="text/css"?>
<svg xmlns="http://www.w3.org/2000/svg" xmlns:xlink="http://www.w3.org/1999/xlink" width="100%" height="100%" stroke-linecap="round" viewBox="0 0 1289 881" style="max-width: 100%;"><g><path d="M1092.33 804.676 C1092.33 804.676, 1092.33 804.676, 1092.33 804.676 M1092.33 804.676 C1092.33 804.676, 1092.33 804.676, 1092.33 804.676 M1089.445 811.724 C1090.985 809.837, 1092.965 808.327, 1096.572 804.709 M1089.445 811.724 C1091.327 809.809, 1092.929 808.213, 1096.572 804.709 M1089.412 815.966 C1094.283 811.624, 1097.619 807.375, 1100.815 804.743 M1089.412 815.966 C1092.579 813.008, 1094.67 809.762, 1100.815 804.743 M1089.378 820.209 C1093.374 816.287, 1098.792 812.85, 1105.057 804.776 M1089.378 820.209 C1095.555 813.577, 1100.071 808.585, 1105.057 804.776 M1089.345 824.452 C1094.589 819.92, 1100.13 814.136, 1109.3 804.81 M1089.345 824.452 C1094.892 818.869, 1101.31 812.848, 1109.3 804.81 M1090.024 827.993 C1098.482 821.347, 1104.374 814.806, 1113.542 804.843 M1090.024 827.993 C1097.703 819.817, 1106.368 811.501, 1113.542 804.843 M1089.99 832.235 C1095.991 824.869, 1101.052 818.611, 1117.785 804.877 M1089.99 832.235 C1095.441 827.051, 1102.054 821.007, 1117.785 804.877 M1089.957 836.478 C1096.065 827.236, 1104.019 823.569, 1122.027 804.91 M1089.957 836.478 C1103.748 823.19, 1114.685 810.617, 1122.027 804.91 M1089.923 840.72 C1100.368 833.785, 1105.478 824.857, 1126.27 804.944 M1089.923 840.72 C1102.703 828.05, 1114.388 816.678, 1126.27 804.944 M1089.89 844.963 C1100.451 834.553, 1115.442 823.25, 1130.512 804.977 M1089.89 844.963 C1106.151 829.564, 1120.647 814.554, 1130.512 804.977 M1089.856 849.205 C1100.033 837.171, 1113.989 825.409, 1134.755 805.011 M1089.856 849.205 C1101.582 835.97, 1115.892 824.147, 1134.755 805.011 M1089.823 853.448 C1108.094 838.494, 1125.049 821.581, 1138.997 805.044 M1089.823 853.448 C1104.429 839.106, 1120.833 823.213, 1138.997 805.044 M1089.789 857.69 C1112.555 836.861, 1134.567 816.433, 1143.24 805.078 M1089.789 857.69 C1109.62 839.374, 1128.004 819.505, 1143.24 805.078 M1089.756 861.933 C1104.129 845.243, 1119.873 834.048, 1147.482 805.112 M1089.756 861.933 C1109.45 843.255, 1128.751 822.794, 1147.482 805.112 M1089.722 866.175 C1112.681 845.978, 1134.553 820.055, 1151.725 805.145 M1089.722 866.175 C1104.037 851.145, 1119.821 836.901, 1151.725 805.145 M1091.114 869.015 C1112.779 848.018, 1134.3 830.249, 1155.967 805.179 M1091.114 869.015 C1112.973 846.248, 1137.572 824.054, 1155.967 805.179 M1093.931 870.451 C1110.843 853.044, 1129.134 834.982, 1160.21 805.212 M1093.931 870.451 C1114.883 849.798, 1135.977 828.64, 1160.21 805.212 M1098.174 870.485 C1119.918 849.978, 1141.52 828.858, 1164.452 805.246 M1098.174 870.485 C1111.411 856.853, 1125.015 843.201, 1164.452 805.246 M1102.416 870.518 C1119.493 854.01, 1133.011 839.841, 1168.695 805.279 M1102.416 870.518 C1124.103 849.055, 1146.844 827.476, 1168.695 805.279 M1106.659 870.552 C1128.956 847.774, 1149.446 828.401, 1172.937 805.313 M1106.659 870.552 C1125.791 851.967, 1145.765 831.832, 1172.937 805.313 M1110.901 870.585 C1134.911 844.943, 1162.767 820.689, 1177.18 805.346 M1110.901 870.585 C1136.282 848.104, 1158.901 823.44, 1177.18 805.346 M1115.856 869.917 C1138.838 848.555, 1159.791 824.962, 1181.422 805.38 M1115.856 869.917 C1132.5 853.186, 1149.805 836.083, 1181.422 805.38 M1120.099 869.951 C1137.899 852.493, 1153.911 837.615, 1185.665 805.413 M1120.099 869.951 C1142.445 847.76, 1164.448 824.296, 1185.665 805.413 M1124.341 869.984 C1141.902 853.083, 1155.473 836.449, 1189.907 805.447 M1124.341 869.984 C1145.836 849.103, 1166.45 828.904, 1189.907 805.447 M1128.584 870.018 C1154.026 845.406, 1179.586 819.99, 1194.15 805.48 M1128.584 870.018 C1154.882 844.402, 1180.722 817.95, 1194.15 805.48 M1132.826 870.052 C1154.821 850.194, 1177.381 829.833, 1198.392 805.514 M1132.826 870.052 C1150.51 851.919, 1167.384 835.338, 1198.392 805.514 M1137.069 870.085 C1163.957 844.452, 1187.679 820.118, 1202.635 805.548 M1137.069 870.085 C1159.595 849.641, 1182.155 825.829, 1202.635 805.548 M1141.311 870.119 C1154.373 854.818, 1170.36 843.99, 1207.59 804.88 M1141.311 870.119 C1165.088 848.31, 1186.63 827.024, 1207.59 804.88 M1145.554 870.152 C1160.865 855.158, 1175.92 840.285, 1211.833 804.913 M1145.554 870.152 C1157.963 856.235, 1172.964 843.805, 1211.833 804.913 M1149.796 870.186 C1175.08 844.643, 1197.277 823.933, 1216.075 804.947 M1149.796 870.186 C1174.387 845.421, 1199.118 821.959, 1216.075 804.947 M1154.039 870.219 C1180.943 846.005, 1204.408 821.443, 1220.318 804.98 M1154.039 870.219 C1180.095 843.829, 1205.565 819.919, 1220.318 804.98 M1158.281 870.253 C1178.248 850.349, 1197.113 831.09, 1224.56 805.014 M1158.281 870.253 C1174.134 855.184, 1188.868 840.885, 1224.56 805.014 M1162.524 870.286 C1179.867 857.246, 1194.8 838.882, 1228.803 805.047 M1162.524 870.286 C1186.542 846.439, 1210.928 823.375, 1228.803 805.047 M1166.766 870.32 C1188.527 848.77, 1206.595 832.677, 1233.045 805.081 M1166.766 870.32 C1181.078 858.111, 1194.143 844.491, 1233.045 805.081 M1171.009 870.353 C1187.735 852.048, 1208.001 832.621, 1237.288 805.114 M1171.009 870.353 C1184.183 856.714, 1196.672 844.013, 1237.288 805.114 M1175.251 870.387 C1197.981 845.86, 1226.948 822.997, 1238.679 807.954 M1175.251 870.387 C1187.537 858.174, 1200.916 845.435, 1238.679 807.954 M1179.494 870.42 C1194.601 855.624, 1205.686 844.48, 1239.359 811.495 M1179.494 870.42 C1200.612 850.656, 1220.831 829.125, 1239.359 811.495 M1183.736 870.454 C1198.915 856.007, 1218.093 841.055, 1239.325 815.737 M1183.736 870.454 C1197.092 857.136, 1209.957 844.106, 1239.325 815.737 M1187.979 870.488 C1205.274 852.175, 1227.492 830.34, 1239.291 819.98 M1187.979 870.488 C1202.138 856.487, 1213.956 844.061, 1239.291 819.98 M1192.221 870.521 C1209.065 850.911, 1229.661 835.566, 1239.258 824.222 M1192.221 870.521 C1205.546 856.095, 1219.58 843.48, 1239.258 824.222 M1196.464 870.555 C1209.691 859.423, 1221.077 846.269, 1239.224 828.465 M1196.464 870.555 C1212.861 854.35, 1230.472 838.353, 1239.224 828.465 M1200.706 870.588 C1208.649 861.368, 1219.755 851.479, 1239.191 832.707 M1200.706 870.588 C1213.177 856.752, 1227.32 843.295, 1239.191 832.707 M1204.949 870.622 C1210.586 862.22, 1221.385 856.951, 1239.157 836.95 M1204.949 870.622 C1214.65 861.748, 1225.804 851.914, 1239.157 836.95 M1209.191 870.655 C1219.083 862.21, 1224.246 852.31, 1239.124 841.192 M1209.191 870.655 C1219.58 860.966, 1227.252 852.28, 1239.124 841.192 M1213.434 870.689 C1223.81 861.703, 1233.082 853.881, 1239.09 845.435 M1213.434 870.689 C1219.939 862.975, 1229.105 856.734, 1239.09 845.435 M1217.676 870.722 C1226.629 863.584, 1233.062 857.393, 1239.057 849.677 M1217.676 870.722 C1224.186 863.693, 1231.658 856.823, 1239.057 849.677 M1221.919 870.756 C1225.851 866.965, 1233.302 858.799, 1239.023 853.92 M1221.919 870.756 C1225.42 867.554, 1230.671 862.342, 1239.023 853.92 M1226.161 870.789 C1231.316 868.546, 1232.475 863.01, 1238.99 858.162 M1226.161 870.789 C1230.845 866.621, 1234.757 862.481, 1238.99 858.162 M1230.404 870.823 C1233.103 869.343, 1233.225 867.517, 1238.956 862.405 M1230.404 870.823 C1233.501 867.737, 1236.443 865.22, 1238.956 862.405 M1235.359 870.155 C1236.429 869.127, 1238.313 867.303, 1238.923 866.647 M1235.359 870.155 C1236.246 869.265, 1236.986 868.624, 1238.923 866.647" stroke="rgb(236, 236, 255)" stroke-width="2.088" fill="none"></path><path d="M1092 805 C1148.363 804.56, 1201.291 805.365, 1236 805 M1092 805 C1130.299 804.863, 1167.755 803.618, 1236 805 M1236 805 C1236.798 803.434, 1239.473 808.252, 1239 808 M1236 805 C1237.855 806.575, 1241.014 805.752, 1239 808 M1239 808 C1239.774 822.242, 1236.513 837.15, 1239 867 M1239 808 C1239.108 828.88, 1239.314 849.439, 1239 867 M1239 867 C1238.668 870.398, 1235.36 870.86, 1236 870 M1239 867 C1240.429 869.7, 1235.931 868.294, 1236 870 M1236 870 C1190.357 870.807, 1143.554 868.809, 1092 870 M1236 870 C1206.497 869.366, 1175.046 869.532, 1092 870 M1092 870 C1089.315 871.846, 1088.008 869.652, 1089 867 M1092 870 C1088.2 869.909, 1087.592 870.114, 1089 867 M1089 867 C1088.642 849.565, 1089.643 835.349, 1089 808 M1089 867 C1088.773 845.071, 1089.638 821.721, 1089 808 M1089 808 C1090.039 807.007, 1091.905 804.232, 1092 805 M1089 808 C1090.658 808.154, 1089.857 806.763, 1092 805 M1092 805 C1092 805, 1092 805, 1092 805 M1092 805 C1092 805, 1092 805, 1092 805" stroke="rgb(218, 206, 243)" stroke-width="1" fill="none"></path></g><g class="text-container" transform="matrix(1 0 0 1 50 10)"><text style="text-anchor: middle; font-size: 16px; font-weight: 400;font-style: normal;font-weight: 400;font-size: 16px;font-family: Comic Sans MS, cursive;" class="actor actor-box" alignment-baseline="central" dominant-baseline="central" y="827.5" x="1114" stroke="rgb(218, 206, 243)" stroke-width="1px" fill="rgb(236, 236, 255)" text-anchor="middle"><tspan dy="0" x="1114" stroke="none" stroke-width="1px" fill="rgb(0, 0, 0)" text-anchor="middle" dominant-baseline="central">Neo4j</tspan></text></g><g><path d="M889.159 807.793 C889.159 807.793, 889.159 807.793, 889.159 807.793 M889.159 807.793 C889.159 807.793, 889.159 807.793, 889.159 807.793 M889.301 814.194 C892.152 811.498, 893.468 806.514, 895.98 805.454 M889.301 814.194 C891.561 811.842, 893.404 808.592, 895.98 805.454 M888.836 821.39 C891.813 818.574, 892.728 813.577, 900.98 805.499 M888.836 821.39 C892.599 815.245, 897.562 809.98, 900.98 805.499 M888.979 827.792 C895.513 821.851, 899.287 812.629, 905.979 805.543 M888.979 827.792 C893.937 820.013, 898.793 813.744, 905.979 805.543 M889.122 834.193 C898.57 824.519, 906.037 813.411, 910.979 805.588 M889.122 834.193 C897.813 824.191, 904.382 814.137, 910.979 805.588 M889.264 840.595 C896.702 833.715, 902.79 823.411, 915.979 805.633 M889.264 840.595 C898.293 828.844, 908.158 817.102, 915.979 805.633 M888.8 847.791 C902.155 831.784, 913.967 815.948, 920.979 805.678 M888.8 847.791 C897.925 835.697, 906.852 825.072, 920.979 805.678 M888.942 854.192 C897.224 843.614, 904.733 834.017, 925.979 805.723 M888.942 854.192 C903.487 836.659, 916.251 818.741, 925.979 805.723 M889.085 860.594 C899.681 848.391, 909.601 835.313, 931.586 804.973 M889.085 860.594 C899.769 846.668, 910.65 832.061, 931.586 804.973 M889.227 866.996 C904.991 846.789, 923.406 821.779, 936.585 805.018 M889.227 866.996 C907.63 842.591, 927.182 819.783, 936.585 805.018 M892.406 869.424 C910.084 846.996, 924.416 825.663, 941.585 805.063 M892.406 869.424 C902.365 854.67, 913.67 839.953, 941.585 805.063 M897.405 869.469 C914.241 849.244, 931.117 826.179, 946.585 805.108 M897.405 869.469 C915.646 846.598, 933.84 821.595, 946.585 805.108 M902.405 869.514 C921.549 847.223, 936.496 824.229, 951.585 805.153 M902.405 869.514 C920 844.949, 937.383 821.923, 951.585 805.153 M907.405 869.559 C921.291 852.388, 934.216 833.469, 956.585 805.198 M907.405 869.559 C918.871 853.715, 930.931 839.544, 956.585 805.198 M912.405 869.604 C927.082 849.844, 945.412 829.223, 961.584 805.242 M912.405 869.604 C926.886 850.26, 941.139 831.969, 961.584 805.242 M917.405 869.649 C932.058 847.271, 951.835 825.739, 966.584 805.287 M917.405 869.649 C935.477 845.227, 953.547 822.119, 966.584 805.287 M922.404 869.693 C938.98 847.73, 957.586 822.201, 971.584 805.332 M922.404 869.693 C934.372 853.733, 946.175 836.334, 971.584 805.332 M927.404 869.738 C947.62 845.852, 965.059 818.473, 976.584 805.377 M927.404 869.738 C945.684 844.689, 964.125 820.17, 976.584 805.377 M932.404 869.783 C945.919 853.627, 957.658 839.712, 981.584 805.422 M932.404 869.783 C948.424 847.186, 965.612 826.009, 981.584 805.422 M937.404 869.828 C959.142 846.097, 977.325 818.484, 986.583 805.467 M937.404 869.828 C947.841 857.482, 957.53 844.267, 986.583 805.467 M942.404 869.873 C957.899 849.482, 975.591 828.13, 991.583 805.512 M942.404 869.873 C955.247 852.907, 969.556 834.257, 991.583 805.512 M947.403 869.918 C962.508 849.039, 979.977 827.294, 996.583 805.557 M947.403 869.918 C965.106 845.504, 983.631 822.794, 996.583 805.557 M952.403 869.963 C967.851 850.702, 982.317 829.986, 1001.583 805.601 M952.403 869.963 C971.226 843.454, 992.131 818.568, 1001.583 805.601 M957.403 870.008 C970.245 853.443, 980.91 840.619, 1006.583 805.646 M957.403 870.008 C976.342 847.204, 993.19 822.672, 1006.583 805.646 M962.403 870.052 C974.597 852.916, 985.192 840.78, 1011.582 805.691 M962.403 870.052 C975.952 850.438, 991.034 831.261, 1011.582 805.691 M967.403 870.097 C981.519 850.252, 995.881 833.242, 1016.582 805.736 M967.403 870.097 C979.085 855.204, 991.622 839.492, 1016.582 805.736 M972.402 870.142 C990.111 848.162, 1004.871 827.127, 1021.582 805.781 M972.402 870.142 C987.325 849.875, 1003.316 830.883, 1021.582 805.781 M977.402 870.187 C991.815 851.103, 1005.772 835.44, 1026.582 805.826 M977.402 870.187 C986.75 857.304, 997.492 844.844, 1026.582 805.826 M982.402 870.232 C995.811 853.915, 1005.886 838.451, 1031.582 805.871 M982.402 870.232 C993.427 854.883, 1004.695 841.557, 1031.582 805.871 M987.402 870.277 C998.257 853.454, 1008.738 837.578, 1036.581 805.916 M987.402 870.277 C1006.23 846.77, 1025.147 820.4, 1036.581 805.916 M992.402 870.322 C1002.351 856.115, 1012.17 846.205, 1039.76 808.344 M992.402 870.322 C1002.151 856.42, 1012.684 842.521, 1039.76 808.344 M998.008 869.572 C1010.958 851.683, 1027.182 833.98, 1039.902 814.746 M998.008 869.572 C1006.932 858.428, 1014.801 847.844, 1039.902 814.746 M1003.008 869.617 C1016.816 851.497, 1031.264 832.368, 1039.438 821.942 M1003.008 869.617 C1017.23 852.19, 1029.932 832.716, 1039.438 821.942 M1008.008 869.662 C1018.069 854.023, 1029.671 838.212, 1039.58 828.343 M1008.008 869.662 C1016.003 859.456, 1023.321 850.205, 1039.58 828.343 M1013.008 869.707 C1019.277 861.485, 1027.419 851.041, 1039.723 834.745 M1013.008 869.707 C1022.865 858.036, 1032.231 843.772, 1039.723 834.745 M1018.008 869.751 C1023.693 860.631, 1030.338 851.216, 1039.258 841.941 M1018.008 869.751 C1025.039 858.644, 1034.493 849.317, 1039.258 841.941 M1023.007 869.796 C1028.817 863.933, 1036.311 854.742, 1039.401 848.343 M1023.007 869.796 C1028.138 862.868, 1033.188 857.493, 1039.401 848.343 M1028.007 869.841 C1033.411 864.028, 1036.121 859.05, 1039.543 854.744 M1028.007 869.841 C1031.859 865.102, 1035.643 859.776, 1039.543 854.744 M1033.007 869.886 C1035.17 868.031, 1036.444 866.198, 1039.686 861.146 M1033.007 869.886 C1033.932 868.198, 1036.004 866.338, 1039.686 861.146" stroke="rgb(236, 236, 255)" stroke-width="1.896" fill="none"></path><path d="M892 805 C948.547 806.204, 1004.293 805.285, 1036 805 M1036 805 C1037.123 804.133, 1039.185 805.829, 1039 808 M1039 808 C1037.702 823.686, 1038.958 842.997, 1039 867 M1039 867 C1037.402 870.207, 1039.12 868.837, 1036 870 M1036 870 C992.317 869.29, 950.284 869.204, 892 870 M892 870 C889.237 868.684, 887.117 870.05, 889 867 M889 867 C887.792 849.901, 889.604 832.485, 889 808 M889 808 C890.561 806.862, 890.629 804.483, 892 805 M892 805 C892 805, 892 805, 892 805" stroke="rgb(218, 206, 243)" stroke-width="1" fill="none"></path></g><g class="text-container" transform="matrix(1 0 0 1 50 10)"><text style="text-anchor: middle; font-size: 16px; font-weight: 400;font-style: normal;font-weight: 400;font-size: 16px;font-family: Comic Sans MS, cursive;" class="actor actor-box" alignment-baseline="central" dominant-baseline="central" y="827.5" x="914" stroke="rgb(218, 206, 243)" stroke-width="1px" fill="rgb(236, 236, 255)" text-anchor="middle"><tspan dy="0" x="914" stroke="none" stroke-width="1px" fill="rgb(0, 0, 0)" text-anchor="middle" dominant-baseline="central">LLM</tspan></text></g><g><path d="M503.832 808.264 C503.832 808.264, 503.832 808.264, 503.832 808.264 M503.832 808.264 C503.832 808.264, 503.832 808.264, 503.832 808.264 M504.213 813.25 C505.392 811.822, 506.159 809.381, 508.511 806.503 M504.213 813.25 C505.815 810.794, 507.197 808.199, 508.511 806.503 M504.057 819.079 C506.952 814.448, 509.617 809.697, 512.116 806.428 M504.057 819.079 C505.406 815.397, 508.786 813.275, 512.116 806.428 M503.9 824.908 C507.758 817.906, 510.6 812.414, 515.72 806.353 M503.9 824.908 C508.915 819.217, 512.207 811.735, 515.72 806.353 M503.744 830.736 C510.825 820.68, 517.047 812.506, 519.325 806.278 M503.744 830.736 C507.641 822.593, 512.492 816.209, 519.325 806.278 M504.125 835.722 C509.601 831.239, 511.149 822.902, 522.93 806.203 M504.125 835.722 C510.502 827.443, 515.149 819.387, 522.93 806.203 M503.969 841.551 C510.518 832.042, 511.555 827.224, 526.535 806.128 M503.969 841.551 C511.696 831.859, 517.818 821.317, 526.535 806.128 M503.813 847.38 C512.629 837.429, 519.099 825.761, 530.14 806.053 M503.813 847.38 C510.214 836.964, 518.397 824.091, 530.14 806.053 M504.194 852.365 C513.497 840.406, 520.22 827.422, 533.744 805.978 M504.194 852.365 C513.313 839.042, 522.92 823.807, 533.744 805.978 M504.038 858.194 C513.575 842.063, 525.093 821.838, 537.349 805.903 M504.038 858.194 C512.86 842.499, 524.038 825.491, 537.349 805.903 M503.882 864.023 C517.999 843.348, 532.783 819.374, 540.954 805.828 M503.882 864.023 C517.364 843.345, 528.772 823.971, 540.954 805.828 M505.338 867.321 C516.372 848.195, 526.269 832.036, 544.021 806.596 M505.338 867.321 C515.788 850.432, 527.32 832.832, 544.021 806.596 M506.793 870.62 C519.878 849.537, 532.325 829.437, 547.626 806.521 M506.793 870.62 C518.102 850.839, 531.859 831.084, 547.626 806.521 M510.398 870.545 C525.671 846.435, 543.626 819.268, 551.231 806.446 M510.398 870.545 C524.924 849.484, 537.985 826.196, 551.231 806.446 M514.003 870.47 C527.452 849.738, 540.331 829.135, 554.836 806.371 M514.003 870.47 C527.712 850.061, 540.62 829.193, 554.836 806.371 M517.608 870.395 C528.849 852.309, 539.781 833.742, 558.44 806.296 M517.608 870.395 C526.825 854.224, 537.112 839.442, 558.44 806.296 M521.212 870.32 C533.162 852.31, 546.07 834.998, 562.045 806.221 M521.212 870.32 C536.667 845.104, 552.856 820.779, 562.045 806.221 M524.817 870.245 C537.889 852.505, 548.272 830.857, 565.65 806.146 M524.817 870.245 C539.754 844.552, 557.355 820.955, 565.65 806.146 M528.422 870.17 C545.679 847.058, 558.424 822.191, 569.255 806.071 M528.422 870.17 C537.559 856.373, 545.233 843.588, 569.255 806.071 M532.027 870.095 C545.213 849.057, 557.888 825.739, 572.86 805.996 M532.027 870.095 C540.58 857.276, 548.569 843.434, 572.86 805.996 M535.094 870.864 C547.989 851.87, 562.257 830.431, 576.464 805.921 M535.094 870.864 C550.799 845.151, 566.407 820.712, 576.464 805.921 M538.699 870.789 C550.441 849.657, 566.13 831.089, 580.069 805.846 M538.699 870.789 C553.003 849.615, 565.871 830, 580.069 805.846 M542.304 870.714 C555.542 847.197, 569.978 825.76, 583.137 806.615 M542.304 870.714 C557.986 845.416, 574.365 820.969, 583.137 806.615 M545.908 870.639 C559.802 849.564, 568.984 832.708, 586.741 806.54 M545.908 870.639 C563.009 845.698, 578.764 819.555, 586.741 806.54 M549.513 870.564 C565.419 847.327, 578.766 825.36, 590.346 806.465 M549.513 870.564 C560.103 852.754, 573.352 833.598, 590.346 806.465 M553.118 870.489 C566.256 848.581, 583.448 824.291, 593.951 806.39 M553.118 870.489 C568.071 847.193, 582.383 823.592, 593.951 806.39 M556.723 870.414 C571.344 848.856, 581.321 827.522, 597.556 806.315 M556.723 870.414 C565.733 856.122, 574.278 843.21, 597.556 806.315 M560.328 870.339 C573.123 848.714, 583.693 829.614, 601.16 806.24 M560.328 870.339 C574.731 848.091, 587.834 825.831, 601.16 806.24 M563.932 870.264 C580.672 846.995, 594.42 822.389, 604.765 806.165 M563.932 870.264 C573.127 854.217, 583.319 837.071, 604.765 806.165 M567.537 870.189 C580.377 848.82, 594.874 827.576, 608.37 806.09 M567.537 870.189 C581.04 849.543, 593.063 828.739, 608.37 806.09 M570.605 870.957 C580.017 855.62, 586.239 842.905, 611.975 806.015 M570.605 870.957 C579.74 853.561, 590.8 838.039, 611.975 806.015 M574.209 870.882 C587.807 847.327, 604.481 826.67, 615.58 805.94 M574.209 870.882 C585.296 855.073, 594.941 837.744, 615.58 805.94 M577.814 870.807 C588.642 852.546, 601.427 835.419, 618.647 806.708 M577.814 870.807 C588.627 850.778, 602.842 831.562, 618.647 806.708 M581.419 870.732 C598.857 845.846, 613.885 817.513, 622.252 806.633 M581.419 870.732 C593.073 853.623, 603.9 836.461, 622.252 806.633 M585.024 870.657 C598.604 847.537, 612.024 823.615, 625.857 806.558 M585.024 870.657 C593.873 856.719, 602.221 843.909, 625.857 806.558 M588.628 870.582 C604.265 847.473, 617.94 826.89, 629.461 806.483 M588.628 870.582 C597.381 855.465, 607.977 840.312, 629.461 806.483 M592.233 870.507 C606.531 850.476, 617 831.35, 633.066 806.408 M592.233 870.507 C604.811 852.437, 615.483 834.927, 633.066 806.408 M595.838 870.432 C611.668 850.108, 624.434 827.727, 636.671 806.333 M595.838 870.432 C608.784 849.508, 621.182 830.305, 636.671 806.333 M599.443 870.357 C608.047 856.442, 617.577 840.472, 640.276 806.258 M599.443 870.357 C615.059 846.27, 629.963 822.136, 640.276 806.258 M603.048 870.282 C616.443 848.95, 629.458 828.429, 643.88 806.183 M603.048 870.282 C617.649 848.379, 630.852 826.317, 643.88 806.183 M606.652 870.207 C617.587 851.125, 629.87 833.862, 647.485 806.108 M606.652 870.207 C620.264 848.616, 633.658 826.888, 647.485 806.108 M609.72 870.976 C618.967 851.842, 633.299 838.132, 651.09 806.033 M609.72 870.976 C624.694 847.527, 638.519 824.624, 651.09 806.033 M613.325 870.901 C626.432 851.022, 637.747 828.666, 654.157 806.802 M613.325 870.901 C627.052 848.571, 642.396 826.284, 654.157 806.802 M616.929 870.826 C632.834 845.38, 648.919 823.574, 656.15 809.257 M616.929 870.826 C631.983 846.806, 646.231 825.612, 656.15 809.257 M620.534 870.751 C636.316 850.667, 646.941 826.156, 655.994 815.086 M620.534 870.751 C632.83 851.431, 644.287 834.349, 655.994 815.086 M624.139 870.676 C631.317 857.779, 642.284 842.927, 655.838 820.915 M624.139 870.676 C635.548 851.8, 647.453 833.449, 655.838 820.915 M627.744 870.601 C634.716 856.14, 645.148 845.09, 656.219 825.9 M627.744 870.601 C636.199 855.415, 646.023 840.378, 656.219 825.9 M631.348 870.526 C638.976 857.471, 645.618 847.506, 656.063 831.729 M631.348 870.526 C637.279 861.368, 643.004 850.719, 656.063 831.729 M634.953 870.451 C644.308 856.865, 652.481 843.449, 655.907 837.558 M634.953 870.451 C640.126 861.849, 647.14 852.271, 655.907 837.558 M638.558 870.376 C644.949 860.553, 650.445 850.782, 655.751 843.387 M638.558 870.376 C642.257 863.778, 648.019 857.151, 655.751 843.387 M642.163 870.301 C647.057 864.529, 650.203 858.305, 656.132 848.372 M642.163 870.301 C647.292 863.735, 651.234 856.382, 656.132 848.372 M645.23 871.069 C646.864 867.085, 648.57 864.1, 655.976 854.201 M645.23 871.069 C649.078 865.56, 653.046 859.601, 655.976 854.201 M648.835 870.994 C652.485 867.08, 654.351 862.089, 655.82 860.03 M648.835 870.994 C651.029 867.607, 652.686 864.854, 655.82 860.03" stroke="rgb(236, 236, 255)" stroke-width="2.516" fill="none"></path><path d="M507 805 C548.6 804.683, 587.455 805.435, 651 805 M651 805 C653.274 804.68, 655.315 805.053, 654 808 M654 808 C655.021 828.868, 653.863 853.062, 654 867 M654 867 C655.599 870.167, 653.238 868.86, 651 870 M651 870 C605.303 868.05, 558.657 867.554, 507 870 M507 870 C506.225 868.768, 504.248 869.54, 504 867 M504 867 C502.251 843.577, 503.602 819.336, 504 808 M504 808 C504.75 807.095, 507.114 804.083, 507 805 M507 805 C507 805, 507 805, 507 805" stroke="rgb(218, 206, 243)" stroke-width="1" fill="none"></path></g><g class="text-container" transform="matrix(1 0 0 1 50 10)"><text style="text-anchor: middle; font-size: 16px; font-weight: 400;font-style: normal;font-weight: 400;font-size: 16px;font-family: Comic Sans MS, cursive;" class="actor actor-box" alignment-baseline="central" dominant-baseline="central" y="827.5" x="529" stroke="rgb(218, 206, 243)" stroke-width="1px" fill="rgb(236, 236, 255)" text-anchor="middle"><tspan dy="0" x="529" stroke="none" stroke-width="1px" fill="rgb(0, 0, 0)" text-anchor="middle" dominant-baseline="central">Backend</tspan></text></g><g><path d="M257.767 805.226 C257.767 805.226, 257.767 805.226, 257.767 805.226 M257.767 805.226 C257.767 805.226, 257.767 805.226, 257.767 805.226 M255.51 814.386 C257.344 811.86, 259.768 808.542, 264.837 805.33 M255.51 814.386 C257.668 811.236, 261.419 809.292, 264.837 805.33 M255.406 821.457 C263.158 815.699, 268.696 810.592, 272.625 804.738 M255.406 821.457 C261.88 815.992, 267.008 809.338, 272.625 804.738 M255.302 828.527 C258.87 823.628, 264.167 819.175, 279.695 804.842 M255.302 828.527 C264.82 819.522, 274.709 809.979, 279.695 804.842 M255.915 834.901 C268.432 826.151, 275.884 812.985, 286.766 804.946 M255.915 834.901 C263.734 826.123, 273.394 819.055, 286.766 804.946 M255.811 841.971 C266.804 832.286, 276.126 821.116, 293.836 805.05 M255.811 841.971 C266.119 833.357, 276.491 823.123, 293.836 805.05 M255.707 849.041 C268.546 836.989, 280.097 826.802, 300.906 805.155 M255.707 849.041 C265.236 838.849, 274.087 829.84, 300.906 805.155 M255.603 856.112 C274.888 838.762, 294.652 816.951, 307.976 805.259 M255.603 856.112 C266.663 845.413, 278.722 833.168, 307.976 805.259 M255.499 863.182 C268.45 850.282, 284.021 837.138, 315.047 805.363 M255.499 863.182 C275.68 844.758, 296.275 825.542, 315.047 805.363 M256.83 868.859 C274.804 849.382, 295.819 833.243, 322.117 805.467 M256.83 868.859 C283.499 844.92, 308.183 819.551, 322.117 805.467 M263.183 869.66 C277.712 855.107, 287.563 843.734, 329.905 804.874 M263.183 869.66 C289.595 845.097, 317.473 818.067, 329.905 804.874 M270.253 869.764 C284.662 858.621, 297.214 845.033, 336.975 804.979 M270.253 869.764 C287.729 851.962, 304.948 834.617, 336.975 804.979 M277.323 869.868 C294.383 854.756, 307.413 840.442, 344.045 805.083 M277.323 869.868 C302.896 846.187, 327.215 822.792, 344.045 805.083 M284.393 869.972 C306.019 849.844, 326.375 828.573, 351.116 805.187 M284.393 869.972 C305.227 850.129, 324.503 829.308, 351.116 805.187 M291.464 870.076 C306.601 856.041, 319.587 843.311, 358.186 805.291 M291.464 870.076 C308.787 855.061, 325.455 838.341, 358.186 805.291 M298.534 870.18 C314.027 855.491, 328.131 842.176, 365.256 805.395 M298.534 870.18 C320.718 849.546, 340.462 828.08, 365.256 805.395 M305.604 870.285 C323.379 851.01, 344.524 831.429, 372.327 805.499 M305.604 870.285 C324.179 852.211, 342.363 835.708, 372.327 805.499 M312.675 870.389 C331.667 849.524, 350.86 831.055, 380.114 804.907 M312.675 870.389 C338.897 844.006, 367.023 817.463, 380.114 804.907 M320.462 869.796 C334.398 856.344, 352.11 840.922, 387.185 805.011 M320.462 869.796 C334.071 855.036, 349.159 842.89, 387.185 805.011 M327.533 869.9 C349.706 848.479, 371.531 829.887, 394.255 805.115 M327.533 869.9 C353.3 845.621, 380.668 819.66, 394.255 805.115 M334.603 870.005 C351.858 852.475, 366.311 839.529, 401.325 805.219 M334.603 870.005 C348.228 855.229, 363.355 842.745, 401.325 805.219 M341.673 870.109 C362.685 851.767, 383.557 828.625, 405.526 808.11 M341.673 870.109 C362.696 849.052, 385.033 828.151, 405.526 808.11 M348.744 870.213 C361.634 858.648, 372.719 847.272, 405.422 815.18 M348.744 870.213 C371.124 848.375, 391.996 828.646, 405.422 815.18 M355.814 870.317 C367.113 859.727, 380.576 847.025, 405.318 822.25 M355.814 870.317 C367.193 859.518, 378.857 847.869, 405.318 822.25 M362.884 870.421 C376.038 858.355, 385.195 846.294, 405.213 829.321 M362.884 870.421 C372.443 860.595, 382.169 851.41, 405.213 829.321 M369.954 870.525 C380.109 863.113, 387.52 855.084, 405.109 836.391 M369.954 870.525 C383.497 858.302, 397.607 844.649, 405.109 836.391 M377.742 869.933 C388.726 862.004, 395.47 849.85, 405.005 843.461 M377.742 869.933 C386.302 860.348, 396.033 851.689, 405.005 843.461 M384.813 870.037 C391.477 860.671, 398.696 853.579, 404.901 850.532 M384.813 870.037 C391.034 863.767, 398.184 857.637, 404.901 850.532 M391.883 870.141 C395.625 867.863, 397.712 865.031, 404.797 857.602 M391.883 870.141 C394.31 868.571, 397.353 864.917, 404.797 857.602 M398.953 870.245 C399.709 868.542, 402.033 867.75, 404.693 864.672 M398.953 870.245 C400.797 868.543, 403.375 866.321, 404.693 864.672" stroke="rgb(236, 236, 255)" stroke-width="2.558" fill="none"></path><path d="M258 805 C300.338 804.721, 340.545 807.128, 402 805 M402 805 C402.631 803.002, 406.836 805.953, 405 808 M405 808 C403.299 828.882, 404.99 852.037, 405 867 M405 867 C405.358 870.484, 404.383 871.39, 402 870 M402 870 C352.379 871.387, 299.955 870.51, 258 870 M258 870 C257.642 870.41, 256.815 869.914, 255 867 M255 867 C257.002 848.699, 255.454 830.388, 255 808 M255 808 C253.497 806.191, 256.711 804.192, 258 805 M258 805 C258 805, 258 805, 258 805" stroke="rgb(218, 206, 243)" stroke-width="1" fill="none"></path></g><g class="text-container" transform="matrix(1 0 0 1 50 10)"><text style="text-anchor: middle; font-size: 16px; font-weight: 400;font-style: normal;font-weight: 400;font-size: 16px;font-family: Comic Sans MS, cursive;" class="actor actor-box" alignment-baseline="central" dominant-baseline="central" y="827.5" x="280" stroke="rgb(218, 206, 243)" stroke-width="1px" fill="rgb(236, 236, 255)" text-anchor="middle"><tspan dy="0" x="280" stroke="none" stroke-width="1px" fill="rgb(0, 0, 0)" text-anchor="middle" dominant-baseline="central">Angular Frontend</tspan></text></g><g><path d="M1163.491 74.718 C1162.803 250.466, 1163.283 427.898, 1164.113 805.236" stroke="rgb(218, 206, 243)" stroke-width="2" fill="none"></path></g><g><path d="M1089.23 12.626 C1089.23 12.626, 1089.23 12.626, 1089.23 12.626 M1089.23 12.626 C1089.23 12.626, 1089.23 12.626, 1089.23 12.626 M1088.969 20.684 C1090.835 15.466, 1094.88 13.192, 1095.781 9.612 M1088.969 20.684 C1090.955 17.364, 1093.129 12.393, 1095.781 9.612 M1089.232 27.89 C1092.404 24.252, 1096.57 16.145, 1100.236 10.004 M1089.232 27.89 C1092.486 22.591, 1095.508 17.371, 1100.236 10.004 M1088.971 35.949 C1092.503 29.025, 1099.37 21.695, 1104.691 10.397 M1088.971 35.949 C1093.238 27.707, 1097.973 21.491, 1104.691 10.397 M1089.234 43.155 C1093.895 35.234, 1101.747 23.38, 1109.669 9.938 M1089.234 43.155 C1096.549 29.571, 1105.859 16.091, 1109.669 9.938 M1088.972 51.213 C1094.041 44.207, 1100.074 35.324, 1114.124 10.33 M1088.972 51.213 C1095.391 39.834, 1102.482 28.87, 1114.124 10.33 M1089.235 58.419 C1097.38 43.014, 1110.534 23.082, 1119.103 9.871 M1089.235 58.419 C1100.189 40.475, 1113.433 20.211, 1119.103 9.871 M1088.974 66.477 C1100.53 45.994, 1111.495 28.691, 1123.558 10.264 M1088.974 66.477 C1098.18 50.594, 1107.886 35.602, 1123.558 10.264 M1089.761 72.832 C1098.375 61.305, 1106.348 46.347, 1128.537 9.805 M1089.761 72.832 C1104.848 48.479, 1118.062 25.847, 1128.537 9.805 M1093.168 74.928 C1103.75 59.957, 1109.383 46.421, 1132.992 10.197 M1093.168 74.928 C1107.072 49.212, 1122.425 25.775, 1132.992 10.197 M1098.147 74.469 C1114.619 48.277, 1127.882 26.972, 1137.971 9.738 M1098.147 74.469 C1108.704 55.854, 1120.048 37.979, 1137.971 9.738 M1102.602 74.861 C1113.987 53.693, 1128.673 32.774, 1142.426 10.13 M1102.602 74.861 C1110.456 62.445, 1118.658 48.314, 1142.426 10.13 M1107.581 74.402 C1116.398 63.406, 1125.535 47.2, 1146.88 10.523 M1107.581 74.402 C1116.795 57.764, 1125.72 41.499, 1146.88 10.523 M1112.036 74.795 C1124.299 53.822, 1139.387 31.566, 1151.859 10.064 M1112.036 74.795 C1121.665 60.482, 1130.666 46.03, 1151.859 10.064 M1116.49 75.187 C1131.959 50.857, 1145.06 27.526, 1156.314 10.456 M1116.49 75.187 C1125.936 61.875, 1134.587 46.604, 1156.314 10.456 M1121.469 74.728 C1133.307 58.144, 1144.558 39.117, 1161.293 9.997 M1121.469 74.728 C1137.145 50.394, 1151.667 26.665, 1161.293 9.997 M1125.924 75.12 C1134.563 60.179, 1146.604 43.524, 1165.748 10.39 M1125.924 75.12 C1139.112 54.421, 1150.668 33.712, 1165.748 10.39 M1130.903 74.661 C1141.547 54.734, 1153.257 34.82, 1170.727 9.931 M1130.903 74.661 C1138.067 61.561, 1145.834 48.12, 1170.727 9.931 M1135.358 75.054 C1146.993 57.849, 1160.952 35.408, 1175.182 10.323 M1135.358 75.054 C1145.365 58.877, 1154.851 43.965, 1175.182 10.323 M1140.337 74.595 C1151.012 59.91, 1160.988 42.985, 1180.161 9.864 M1140.337 74.595 C1154.912 51.13, 1169.27 28.542, 1180.161 9.864 M1144.792 74.987 C1159.461 51.87, 1172.202 27.948, 1184.615 10.257 M1144.792 74.987 C1157.335 53.818, 1169.839 33.591, 1184.615 10.257 M1149.771 74.528 C1157.944 60.33, 1168.723 45.541, 1189.594 9.797 M1149.771 74.528 C1163.494 51.321, 1179.186 29.736, 1189.594 9.797 M1154.225 74.921 C1162.058 62.47, 1171.418 48.337, 1194.049 10.19 M1154.225 74.921 C1163.874 62.486, 1171.256 47.659, 1194.049 10.19 M1158.68 75.313 C1174.359 49.024, 1189.563 27.217, 1198.504 10.582 M1158.68 75.313 C1167.584 60.478, 1176.65 47.094, 1198.504 10.582 M1163.659 74.854 C1177.313 54.693, 1189.116 32.355, 1203.483 10.123 M1163.659 74.854 C1176.058 54.849, 1187.681 36.542, 1203.483 10.123 M1168.114 75.247 C1179.07 55.25, 1192.506 36.554, 1207.938 10.516 M1168.114 75.247 C1182.948 51.672, 1196.771 27.882, 1207.938 10.516 M1173.093 74.787 C1187.444 53.556, 1202.276 31.011, 1212.917 10.057 M1173.093 74.787 C1184.229 56.398, 1195.917 36.485, 1212.917 10.057 M1177.548 75.18 C1190.003 52.356, 1205.854 33.372, 1217.372 10.449 M1177.548 75.18 C1186.944 61.157, 1193.853 48.652, 1217.372 10.449 M1182.527 74.721 C1191.33 61.079, 1199.769 48.888, 1222.35 9.99 M1182.527 74.721 C1196.992 52.579, 1211.624 28.265, 1222.35 9.99 M1186.982 75.113 C1195.352 62.444, 1204.549 49.005, 1226.805 10.383 M1186.982 75.113 C1198.783 55.033, 1211.76 36.832, 1226.805 10.383 M1191.96 74.654 C1204.877 51.88, 1219.998 30.139, 1231.784 9.923 M1191.96 74.654 C1200.154 60.692, 1208.657 48.14, 1231.784 9.923 M1196.415 75.047 C1208.254 54.4, 1222.062 34.21, 1236.239 10.316 M1196.415 75.047 C1205.733 58.889, 1216.602 41.162, 1236.239 10.316 M1201.394 74.588 C1216.678 51.971, 1227.125 30.331, 1239.122 13.264 M1201.394 74.588 C1211.124 58.745, 1220.936 43.777, 1239.122 13.264 M1205.849 74.98 C1218.102 54.584, 1231.41 36.782, 1239.385 20.47 M1205.849 74.98 C1217.184 55.659, 1229.588 34.337, 1239.385 20.47 M1210.304 75.373 C1220.047 60.777, 1231.509 42.71, 1239.124 28.528 M1210.304 75.373 C1221.416 58.785, 1231.619 39.715, 1239.124 28.528 M1215.283 74.913 C1223.724 60.235, 1232.875 48.764, 1238.863 36.586 M1215.283 74.913 C1225.218 62.103, 1232.558 47.073, 1238.863 36.586 M1219.738 75.306 C1227.894 65.488, 1233.905 53.059, 1239.126 43.792 M1219.738 75.306 C1226.143 65.015, 1232.288 53.891, 1239.126 43.792 M1224.716 74.847 C1227.799 67.964, 1234.993 58.975, 1238.864 51.85 M1224.716 74.847 C1229.595 66.227, 1234.895 56.845, 1238.864 51.85 M1229.171 75.239 C1233.235 70.622, 1233.166 67.03, 1239.127 59.057 M1229.171 75.239 C1233.075 69.338, 1235.558 64.086, 1239.127 59.057 M1234.15 74.78 C1236.125 72.579, 1237.52 69.863, 1238.866 67.115 M1234.15 74.78 C1235.378 71.969, 1237.445 69.773, 1238.866 67.115" stroke="rgb(236, 236, 255)" stroke-width="2.598" fill="none"></path><path d="M1092 10 C1136.529 11.533, 1180.072 10.771, 1236 10 M1236 10 C1237.282 11.627, 1240.129 10.795, 1239 13 M1239 13 C1237.597 37.174, 1238.358 59.108, 1239 72 M1239 72 C1239.752 74.011, 1239.138 73.198, 1236 75 M1236 75 C1180.891 75.814, 1128.546 77.31, 1092 75 M1092 75 C1088.824 73.278, 1087.599 72.482, 1089 72 M1089 72 C1089.5 57.086, 1088.861 43.887, 1089 13 M1089 13 C1089.412 11.234, 1089.665 8.879, 1092 10 M1092 10 C1092 10, 1092 10, 1092 10" stroke="rgb(218, 206, 243)" stroke-width="1" fill="none"></path></g><g class="text-container" transform="matrix(1 0 0 1 50 10)"><text style="text-anchor: middle; font-size: 16px; font-weight: 400;font-style: normal;font-weight: 400;font-size: 16px;font-family: Comic Sans MS, cursive;" class="actor actor-box" alignment-baseline="central" dominant-baseline="central" y="32.5" x="1114" stroke="rgb(218, 206, 243)" stroke-width="1px" fill="rgb(236, 236, 255)" text-anchor="middle"><tspan dy="0" x="1114" stroke="none" stroke-width="1px" fill="rgb(0, 0, 0)" text-anchor="middle" dominant-baseline="central">Neo4j</tspan></text></g><g><path d="M964.432 74.737 C962.792 300.621, 961.999 527.743, 963.925 805.709 M963.711 75.334 C963.553 308.922, 963.761 541.856, 963.666 804.856" stroke="rgb(218, 206, 243)" stroke-width="2" fill="none"></path></g><g><path d="M889.295 12.701 C889.295 12.701, 889.295 12.701, 889.295 12.701 M889.295 12.701 C889.295 12.701, 889.295 12.701, 889.295 12.701 M889.338 18.357 C891.159 16.334, 892.433 15.443, 894.952 12.658 M889.338 18.357 C891.41 16.655, 892.514 14.802, 894.952 12.658 M888.679 24.726 C890.746 22.375, 896.176 19.255, 900.608 12.615 M888.679 24.726 C892.304 21.172, 895.784 17.143, 900.608 12.615 M888.722 30.383 C896.914 23.98, 903.871 15.512, 906.265 12.572 M888.722 30.383 C893.999 24.457, 900.994 16.784, 906.265 12.572 M888.765 36.04 C894.928 28.851, 900.318 22.148, 911.922 12.529 M888.765 36.04 C897.212 27.088, 904.826 20.225, 911.922 12.529 M888.807 41.696 C901.091 29.819, 911.843 17.073, 917.578 12.486 M888.807 41.696 C897.988 32.239, 906.558 25.078, 917.578 12.486 M888.85 47.353 C900.102 38.939, 906.823 28.314, 922.533 13.156 M888.85 47.353 C898.69 36.177, 911.109 26.457, 922.533 13.156 M888.893 53.01 C901.94 36, 917.74 20.039, 928.19 13.113 M888.893 53.01 C900.176 40.338, 911.819 29.651, 928.19 13.113 M888.936 58.666 C900.356 46.589, 907.787 38.252, 933.847 13.07 M888.936 58.666 C899.182 48.567, 909.554 37.343, 933.847 13.07 M888.979 64.323 C904.285 50.441, 920.929 31.223, 939.503 13.028 M888.979 64.323 C907.158 45.952, 923.748 29.807, 939.503 13.028 M889.021 69.98 C907.877 54.495, 922.829 35.589, 945.16 12.985 M889.021 69.98 C910.785 47.846, 933.11 25.489, 945.16 12.985 M891.17 73.499 C913.031 53.873, 933.487 31.592, 950.817 12.942 M891.17 73.499 C914.715 48.955, 937.849 24.544, 950.817 12.942 M893.318 77.019 C913.022 57.633, 931.194 36.703, 956.474 12.899 M893.318 77.019 C914.213 56.104, 936.412 33.606, 956.474 12.899 M898.974 76.976 C914.537 60.62, 930.995 45.533, 962.13 12.856 M898.974 76.976 C922.597 54.237, 945.389 29.467, 962.13 12.856 M904.631 76.933 C922.804 58.853, 941.664 39.878, 967.787 12.813 M904.631 76.933 C925.194 54.001, 947.444 32.398, 967.787 12.813 M910.288 76.89 C930.546 58.159, 949.884 38.05, 973.444 12.771 M910.288 76.89 C933.659 54.744, 955.336 31.201, 973.444 12.771 M915.944 76.847 C935.286 54.989, 958.41 33.438, 979.1 12.728 M915.944 76.847 C930.454 61.589, 947.309 46.106, 979.1 12.728 M921.601 76.805 C941.661 55.703, 957.401 40.044, 984.757 12.685 M921.601 76.805 C947.091 50.545, 971.27 26.299, 984.757 12.685 M926.556 77.474 C945.147 56.922, 964.797 39.466, 990.414 12.642 M926.556 77.474 C942.797 59.406, 961.296 41.898, 990.414 12.642 M932.213 77.431 C956.562 53.442, 981.751 26.604, 995.369 13.312 M932.213 77.431 C954.626 54.821, 977.961 31.908, 995.369 13.312 M937.869 77.388 C959.037 53.653, 981.801 34.334, 1001.025 13.269 M937.869 77.388 C957.66 57.545, 977.979 37.166, 1001.025 13.269 M943.526 77.346 C963.962 55.838, 984.673 35.578, 1006.682 13.226 M943.526 77.346 C961.709 57.975, 981.871 40.304, 1006.682 13.226 M949.183 77.303 C962.729 60.003, 978.7 43.986, 1012.339 13.183 M949.183 77.303 C971.911 54.36, 993.138 33.296, 1012.339 13.183 M954.839 77.26 C970.236 61.522, 983.49 47.634, 1017.995 13.14 M954.839 77.26 C973.299 58.458, 992.198 39.986, 1017.995 13.14 M960.496 77.217 C982.662 54.889, 1003.125 32.084, 1023.652 13.098 M960.496 77.217 C980.836 56.381, 1001.301 34.528, 1023.652 13.098 M966.153 77.174 C981.324 64.094, 993.583 50.347, 1029.309 13.055 M966.153 77.174 C984.304 57.256, 1003.89 39.629, 1029.309 13.055 M971.809 77.132 C983.969 62.723, 1000.33 51.006, 1037.071 10.875 M971.809 77.132 C994.406 54.049, 1015.812 32.868, 1037.071 10.875 M977.466 77.089 C995.426 60.335, 1010.842 41.788, 1039.92 13.682 M977.466 77.089 C992.898 60.503, 1010.648 43.921, 1039.92 13.682 M983.123 77.046 C996.892 61.553, 1011.777 46.495, 1039.963 19.338 M983.123 77.046 C996.933 63.64, 1011.818 49.587, 1039.963 19.338 M988.78 77.003 C1007.506 56.309, 1027.003 37.256, 1040.006 24.995 M988.78 77.003 C1008.911 57.036, 1028.932 37.452, 1040.006 24.995 M994.436 76.96 C1013.134 58.304, 1027.075 40.502, 1040.049 30.652 M994.436 76.96 C1011.468 60.447, 1028.763 42.986, 1040.049 30.652 M999.391 77.63 C1014.873 63.398, 1030.46 46.257, 1039.39 37.021 M999.391 77.63 C1010.355 68.04, 1020.03 56.873, 1039.39 37.021 M1005.048 77.587 C1016.239 64.665, 1028.238 53.76, 1039.433 42.678 M1005.048 77.587 C1015.697 66.569, 1025.223 56.172, 1039.433 42.678 M1010.705 77.544 C1018.424 71.637, 1023.192 64.397, 1039.476 48.334 M1010.705 77.544 C1021.853 68.168, 1032.353 56.584, 1039.476 48.334 M1016.361 77.501 C1020.718 71.264, 1026.307 68.226, 1039.519 53.991 M1016.361 77.501 C1021.985 71.7, 1026.933 66.705, 1039.519 53.991 M1022.018 77.459 C1027.924 73.612, 1033.024 69.617, 1039.561 59.648 M1022.018 77.459 C1027.535 72.252, 1033.62 64.926, 1039.561 59.648 M1027.675 77.416 C1031.097 74.467, 1034.388 70.343, 1039.604 65.304 M1027.675 77.416 C1030.456 74.926, 1032.944 71.858, 1039.604 65.304 M1033.331 77.373 C1035.781 74.925, 1037.475 73.321, 1039.647 70.961 M1033.331 77.373 C1035.653 74.642, 1038.065 71.901, 1039.647 70.961" stroke="rgb(236, 236, 255)" stroke-width="2.352" fill="none"></path><path d="M892 10 C926.378 11.347, 960.804 10.542, 1036 10 M892 10 C940.714 8.122, 988.185 9.578, 1036 10 M1036 10 C1036.991 9.751, 1039.194 10.007, 1039 13 M1036 10 C1037.577 10.347, 1039.571 13.89, 1039 13 M1039 13 C1039.979 28.483, 1039.451 45.296, 1039 72 M1039 13 C1039.424 32.285, 1037.903 51.691, 1039 72 M1039 72 C1038.629 72.916, 1038.699 74.094, 1036 75 M1039 72 C1039.759 74.58, 1035.728 76.09, 1036 75 M1036 75 C981.077 75.65, 924.304 74.333, 892 75 M1036 75 C1001.932 74.591, 969.505 73.505, 892 75 M892 75 C890.815 75.738, 888.33 74.001, 889 72 M892 75 C890.355 74.669, 891.125 72.736, 889 72 M889 72 C889.326 52.815, 888.531 33.82, 889 13 M889 72 C889.297 55.669, 889.324 39.432, 889 13 M889 13 C888.751 13.182, 892.139 10.288, 892 10 M889 13 C890.725 12.351, 890.513 8.092, 892 10 M892 10 C892 10, 892 10, 892 10 M892 10 C892 10, 892 10, 892 10" stroke="rgb(218, 206, 243)" stroke-width="1" fill="none"></path></g><g class="text-container" transform="matrix(1 0 0 1 50 10)"><text style="text-anchor: middle; font-size: 16px; font-weight: 400;font-style: normal;font-weight: 400;font-size: 16px;font-family: Comic Sans MS, cursive;" class="actor actor-box" alignment-baseline="central" dominant-baseline="central" y="32.5" x="914" stroke="rgb(218, 206, 243)" stroke-width="1px" fill="rgb(236, 236, 255)" text-anchor="middle"><tspan dy="0" x="914" stroke="none" stroke-width="1px" fill="rgb(0, 0, 0)" text-anchor="middle" dominant-baseline="central">LLM</tspan></text></g><g><path d="M579.199 74.85 C577.138 263.017, 576.491 451.806, 578.67 804.936" stroke="rgb(218, 206, 243)" stroke-width="2" fill="none"></path></g><g><path d="M504.117 12.808 C504.117 12.808, 504.117 12.808, 504.117 12.808 M504.117 12.808 C504.117 12.808, 504.117 12.808, 504.117 12.808 M503.879 20.867 C505.797 18.275, 506.694 15.688, 509.617 11.481 M503.879 20.867 C505.658 19.035, 506.549 16.403, 509.617 11.481 M504.163 28.072 C507.555 21.5, 512.508 17.21, 514.073 11.861 M504.163 28.072 C506.842 24.163, 508.773 21.164, 514.073 11.861 M503.925 36.131 C507.321 30.557, 510.907 23.867, 519.05 11.388 M503.925 36.131 C508.208 27.714, 514.21 19.044, 519.05 11.388 M504.208 43.336 C507.096 36.664, 512.966 28.208, 523.506 11.767 M504.208 43.336 C512.739 30.497, 518.649 17.698, 523.506 11.767 M503.97 51.395 C515.57 34.748, 525.06 18.775, 528.484 11.294 M503.97 51.395 C513.513 36.853, 523.728 20.597, 528.484 11.294 M504.254 58.601 C513.77 42.394, 525.761 25.35, 532.94 11.674 M504.254 58.601 C511.659 43.51, 521.059 30.263, 532.94 11.674 M504.016 66.659 C517.244 45.846, 529.26 23.408, 537.917 11.2 M504.016 66.659 C513.959 51.726, 523.439 34.847, 537.917 11.2 M504.821 73.012 C517.924 48.227, 533.924 24.11, 542.373 11.58 M504.821 73.012 C515.755 56.623, 526.16 40.769, 542.373 11.58 M507.712 75.951 C520.426 50.464, 537.995 27.943, 546.829 11.96 M507.712 75.951 C520.454 56.577, 530.746 39.115, 546.829 11.96 M512.69 75.478 C525.759 52.526, 540.519 32.507, 551.807 11.487 M512.69 75.478 C524.097 57.433, 534.865 38.827, 551.807 11.487 M517.146 75.858 C528.798 56.986, 540.613 39.602, 556.263 11.867 M517.146 75.858 C526.541 61.398, 535.867 46.573, 556.263 11.867 M521.602 76.237 C534.71 58.794, 542.861 41.024, 561.24 11.393 M521.602 76.237 C534.979 53.633, 550.419 30.261, 561.24 11.393 M526.579 75.764 C537.104 56.882, 549.549 33.865, 565.696 11.773 M526.579 75.764 C535.27 60.591, 544.547 45.925, 565.696 11.773 M531.035 76.144 C542.096 57.126, 555.633 34.733, 570.674 11.3 M531.035 76.144 C541.895 59.528, 552.007 42.075, 570.674 11.3 M536.013 75.67 C553.041 50.938, 564.865 23.67, 575.13 11.679 M536.013 75.67 C551.11 51.174, 564.416 28.154, 575.13 11.679 M540.469 76.05 C556.64 52.58, 569.251 25.092, 579.586 12.059 M540.469 76.05 C554.139 52.377, 569.275 29.981, 579.586 12.059 M545.446 75.577 C558.253 52.515, 572.077 33.635, 584.563 11.586 M545.446 75.577 C555.242 59.654, 564.797 43.098, 584.563 11.586 M549.902 75.957 C564.99 50.021, 580.1 24.755, 589.019 11.966 M549.902 75.957 C565.227 51.156, 581.083 25.464, 589.019 11.966 M554.358 76.336 C568.212 52.697, 582.975 28.429, 593.997 11.492 M554.358 76.336 C569.81 52.375, 584.026 27.864, 593.997 11.492 M559.336 75.863 C568.509 61.898, 575.643 47.298, 598.453 11.872 M559.336 75.863 C567.596 62.408, 576.74 48.051, 598.453 11.872 M563.792 76.243 C574.219 55.49, 587.801 37.677, 603.43 11.399 M563.792 76.243 C573.623 60.221, 584.66 44.094, 603.43 11.399 M568.769 75.769 C582.172 55.17, 593.893 38.292, 607.886 11.778 M568.769 75.769 C578.944 58.578, 590.219 40.402, 607.886 11.778 M573.225 76.149 C584.435 58.262, 594.973 42.548, 612.342 12.158 M573.225 76.149 C586.276 55.101, 600.401 33.396, 612.342 12.158 M578.203 75.676 C591.985 54.457, 603.396 30.562, 617.32 11.685 M578.203 75.676 C592.619 51.981, 606.564 29.378, 617.32 11.685 M582.659 76.056 C597.058 53.403, 610.05 30.217, 621.776 12.065 M582.659 76.056 C595.211 57.996, 606.007 38.065, 621.776 12.065 M587.115 76.436 C601.81 55.221, 612.454 33.406, 626.753 11.591 M587.115 76.436 C601.071 52.636, 616.434 29.039, 626.753 11.591 M592.092 75.962 C607.054 54.022, 621.874 28.686, 631.209 11.971 M592.092 75.962 C605.334 55.171, 617.327 34.394, 631.209 11.971 M596.548 76.342 C611.612 55.355, 625.506 31.615, 636.187 11.498 M596.548 76.342 C604.439 61.718, 613.523 47.359, 636.187 11.498 M601.526 75.869 C612.722 57.509, 621.491 39.219, 640.643 11.877 M601.526 75.869 C615.196 52.286, 630.782 30.202, 640.643 11.877 M605.982 76.248 C616.2 57.229, 629.167 39.478, 645.62 11.404 M605.982 76.248 C621.388 50.575, 636.739 26.651, 645.62 11.404 M610.959 75.775 C623.891 51.235, 639.015 27.893, 650.076 11.784 M610.959 75.775 C625.243 53.197, 638.673 31.126, 650.076 11.784 M615.415 76.155 C631.009 52.022, 643.701 29.974, 654.011 13.017 M615.415 76.155 C625.025 58.932, 635.422 43.395, 654.011 13.017 M619.871 76.535 C629.719 61.755, 635.435 49.137, 653.773 21.076 M619.871 76.535 C631.648 57.253, 643.515 36.925, 653.773 21.076 M624.849 76.061 C634.032 58.396, 648.013 41.305, 654.056 28.281 M624.849 76.061 C633.977 60.615, 645.074 44.619, 654.056 28.281 M629.305 76.441 C637.071 66.55, 644.204 56.629, 653.818 36.34 M629.305 76.441 C637.508 61.81, 646.923 47.316, 653.818 36.34 M634.282 75.968 C641.195 67.549, 644.934 55.378, 654.101 43.545 M634.282 75.968 C639.86 67.584, 643.388 59.446, 654.101 43.545 M638.738 76.347 C644.438 70.573, 647.449 62.119, 653.863 51.604 M638.738 76.347 C643.776 67.722, 649.263 59.372, 653.863 51.604 M643.716 75.874 C644.312 72.461, 647.43 69.646, 653.625 59.663 M643.716 75.874 C646.2 71.023, 649.142 66.825, 653.625 59.663 M648.172 76.254 C649.232 74.742, 650.517 71.278, 653.909 66.868 M648.172 76.254 C649.815 73.895, 652.114 70.162, 653.909 66.868" stroke="rgb(236, 236, 255)" stroke-width="2.802" fill="none"></path><path d="M507 10 C542.193 10.666, 574.766 8.713, 651 10 M651 10 C654.501 11.133, 654.758 12.828, 654 13 M654 13 C654.535 33.264, 653.469 56.333, 654 72 M654 72 C654.72 73.805, 654.028 75.753, 651 75 M651 75 C617.889 74.918, 587.589 74.933, 507 75 M507 75 C506.81 75.858, 505.728 75.171, 504 72 M504 72 C503.004 54.26, 503.527 36.534, 504 13 M504 13 C502.048 11.174, 506.174 11.984, 507 10 M507 10 C507 10, 507 10, 507 10" stroke="rgb(218, 206, 243)" stroke-width="1" fill="none"></path></g><g class="text-container" transform="matrix(1 0 0 1 50 10)"><text style="text-anchor: middle; font-size: 16px; font-weight: 400;font-style: normal;font-weight: 400;font-size: 16px;font-family: Comic Sans MS, cursive;" class="actor actor-box" alignment-baseline="central" dominant-baseline="central" y="32.5" x="529" stroke="rgb(218, 206, 243)" stroke-width="1px" fill="rgb(236, 236, 255)" text-anchor="middle"><tspan dy="0" x="529" stroke="none" stroke-width="1px" fill="rgb(0, 0, 0)" text-anchor="middle" dominant-baseline="central">Backend</tspan></text></g><g><path d="M330.601 75.279 C332.058 230.387, 332.543 386.142, 329.331 805.512" stroke="rgb(218, 206, 243)" stroke-width="2" fill="none"></path></g><g><path d="M257.989 10.011 C257.989 10.011, 257.989 10.011, 257.989 10.011 M257.989 10.011 C257.989 10.011, 257.989 10.011, 257.989 10.011 M255.745 14.906 C257.196 14.544, 258.092 12.344, 260.817 10.081 M255.745 14.906 C256.959 13.759, 258.163 12.139, 260.817 10.081 M255.675 17.734 C259.253 14.11, 262.298 11.93, 263.644 10.151 M255.675 17.734 C257.976 15.721, 259.814 14.357, 263.644 10.151 M255.605 20.561 C257.258 17.893, 259.771 16.543, 266.472 10.221 M255.605 20.561 C258.873 17.768, 262.109 15.236, 266.472 10.221 M255.535 23.389 C258.923 21.237, 263.335 17.385, 269.299 10.292 M255.535 23.389 C260.114 17.509, 266.366 13.295, 269.299 10.292 M255.464 26.216 C261.449 21.358, 265.572 19.168, 272.127 10.362 M255.464 26.216 C260.598 20.199, 265.351 15.479, 272.127 10.362 M255.394 29.044 C263.062 23.213, 266.865 15.382, 275.679 9.743 M255.394 29.044 C260.963 24.051, 264.957 20.436, 275.679 9.743 M255.324 31.871 C262.887 23.691, 273.154 14.075, 278.506 9.813 M255.324 31.871 C262.048 25.389, 267.659 20.428, 278.506 9.813 M255.978 34.01 C264.219 23.96, 274.499 18.741, 281.334 9.883 M255.978 34.01 C262.344 28.926, 267.29 22.991, 281.334 9.883 M255.908 36.837 C264.891 28.308, 274.313 19.585, 284.161 9.953 M255.908 36.837 C262.966 28.892, 271.466 22.923, 284.161 9.953 M255.838 39.665 C267.672 27.935, 278.411 17.06, 286.989 10.024 M255.838 39.665 C263.889 31.409, 272.824 23.79, 286.989 10.024 M255.767 42.492 C263.836 31.447, 275.651 22.965, 289.817 10.094 M255.767 42.492 C267.596 29.944, 279.961 18.474, 289.817 10.094 M255.697 45.32 C267.1 33.785, 280.014 20.854, 292.644 10.164 M255.697 45.32 C269.294 33.463, 282.821 20.221, 292.644 10.164 M255.627 48.147 C265.482 39.735, 274.753 30.727, 295.472 10.234 M255.627 48.147 C267.083 37.927, 277.265 27.092, 295.472 10.234 M255.557 50.975 C266.246 39.931, 273.264 31.181, 298.299 10.305 M255.557 50.975 C269.748 37.156, 283.961 23.668, 298.299 10.305 M255.486 53.802 C270.522 37.978, 285.349 23.905, 301.127 10.375 M255.486 53.802 C270.16 39.22, 285.715 25.097, 301.127 10.375 M255.416 56.63 C266.754 45.539, 276.837 36.269, 304.679 9.756 M255.416 56.63 C268.659 45.117, 281.356 32.522, 304.679 9.756 M255.346 59.458 C271.789 47.016, 286.799 28.566, 307.506 9.826 M255.346 59.458 C269.094 47.289, 280.951 34.295, 307.506 9.826 M255.276 62.285 C275.739 41.526, 298.638 21.238, 310.334 9.896 M255.276 62.285 C276.622 41.773, 296.424 22.747, 310.334 9.896 M255.93 64.423 C273.978 47.584, 291.011 32.329, 313.161 9.967 M255.93 64.423 C272.85 47.949, 291.073 30.664, 313.161 9.967 M255.859 67.251 C271.41 52.547, 287.255 38.063, 315.989 10.037 M255.859 67.251 C273.494 49.58, 293.579 30.593, 315.989 10.037 M255.789 70.078 C271.176 54.281, 289.337 39.785, 318.817 10.107 M255.789 70.078 C278.485 48.304, 300.492 27.201, 318.817 10.107 M255.719 72.906 C271.244 58.262, 289.098 42.466, 321.644 10.177 M255.719 72.906 C271.205 58.847, 286.346 42.368, 321.644 10.177 M257.098 74.355 C281.113 49.174, 306.826 27.83, 324.472 10.248 M257.098 74.355 C282.643 48.51, 310.009 23.654, 324.472 10.248 M259.201 75.115 C279.069 57.706, 299.003 37.621, 327.299 10.318 M259.201 75.115 C273.719 61.791, 287.819 46.472, 327.299 10.318 M262.028 75.185 C284.756 55.746, 304.953 31.651, 330.127 10.388 M262.028 75.185 C286.293 52.308, 311.463 28.518, 330.127 10.388 M264.856 75.255 C291.001 50.313, 317.73 24.188, 332.954 10.458 M264.856 75.255 C287.22 53.632, 309.576 32.856, 332.954 10.458 M267.683 75.325 C290.567 53.411, 311.157 33.698, 336.506 9.839 M267.683 75.325 C293.65 50.445, 320.592 26.215, 336.506 9.839 M270.511 75.396 C288.592 57.362, 309.851 36.793, 339.334 9.91 M270.511 75.396 C284.398 62.306, 299.544 48.814, 339.334 9.91 M273.339 75.466 C289.908 58.488, 309.106 41.832, 342.161 9.98 M273.339 75.466 C298.507 50.891, 325.106 27.074, 342.161 9.98 M276.166 75.536 C298.867 57.272, 316.663 37.93, 344.989 10.05 M276.166 75.536 C291.514 61.664, 306.431 46.317, 344.989 10.05 M278.994 75.606 C301.158 55.666, 324.291 31.768, 347.817 10.12 M278.994 75.606 C299.259 56.204, 319.893 35.28, 347.817 10.12 M281.821 75.677 C305.974 52.507, 334.058 24.724, 350.644 10.191 M281.821 75.677 C304.597 52.805, 328.428 30.454, 350.644 10.191 M284.649 75.747 C301.729 61.408, 319.802 45.231, 353.472 10.261 M284.649 75.747 C303.854 56.719, 322.755 39.196, 353.472 10.261 M288.201 75.128 C308.444 57.815, 326.193 35.649, 356.299 10.331 M288.201 75.128 C304.264 59.398, 321.27 42.526, 356.299 10.331 M291.028 75.198 C304.265 62.035, 319.554 48.077, 359.127 10.401 M291.028 75.198 C316.644 50.479, 342.788 27.209, 359.127 10.401 M293.856 75.268 C315.95 57.228, 333.696 34.566, 361.954 10.472 M293.856 75.268 C315.239 54.635, 334.051 34.752, 361.954 10.472 M296.683 75.338 C314.872 54.98, 337.477 36.916, 364.782 10.542 M296.683 75.338 C320.662 51.845, 343.639 30.433, 364.782 10.542 M299.511 75.409 C321.577 52.13, 346.436 29.298, 368.334 9.923 M299.511 75.409 C324.686 52.491, 348.019 30.504, 368.334 9.923 M302.339 75.479 C318.314 59.279, 338.914 43.995, 371.161 9.993 M302.339 75.479 C321.057 57.849, 338.628 39.681, 371.161 9.993 M305.166 75.549 C325.252 60.038, 340.963 41.478, 373.989 10.063 M305.166 75.549 C326.756 55.454, 348.008 35.358, 373.989 10.063 M307.994 75.619 C325.723 59.404, 343.771 41.585, 376.817 10.134 M307.994 75.619 C322.835 61.649, 335.229 48.248, 376.817 10.134 M310.821 75.69 C328.131 55.893, 347.381 38.816, 379.644 10.204 M310.821 75.69 C334.526 52.758, 358.212 29.457, 379.644 10.204 M313.649 75.76 C329.345 58.985, 345.322 46.24, 382.472 10.274 M313.649 75.76 C330.946 58.471, 348.393 41.652, 382.472 10.274 M316.476 75.83 C336.815 56.498, 353.901 41.403, 385.299 10.344 M316.476 75.83 C331.542 60.337, 347.953 45.725, 385.299 10.344 M320.028 75.211 C335.617 61.683, 353.208 46.546, 388.127 10.415 M320.028 75.211 C337.521 58.12, 355.056 42.239, 388.127 10.415 M322.856 75.281 C348.368 49.064, 373.144 25.276, 390.954 10.485 M322.856 75.281 C345.488 54.654, 367.345 32.668, 390.954 10.485 M325.683 75.352 C346.004 55.094, 366.551 38.227, 393.782 10.555 M325.683 75.352 C343.476 59.822, 361.693 42.828, 393.782 10.555 M328.511 75.422 C350.642 55.468, 369.846 34.437, 397.334 9.936 M328.511 75.422 C355.813 51.489, 379.743 26.532, 397.334 9.936 M331.338 75.492 C343.926 62.915, 360.327 47.761, 400.161 10.006 M331.338 75.492 C349.387 59.872, 366.39 42.643, 400.161 10.006 M334.166 75.562 C358.002 51.889, 378.952 30.617, 402.989 10.076 M334.166 75.562 C354.998 53.944, 376.434 33.291, 402.989 10.076 M336.994 75.633 C361.015 50.37, 389.116 26.458, 404.368 11.525 M336.994 75.633 C360.197 51.793, 383.979 30.12, 404.368 11.525 M339.821 75.703 C363.314 52.869, 392.039 28.016, 405.022 13.664 M339.821 75.703 C353.217 63.579, 367.022 49.839, 405.022 13.664 M342.649 75.773 C356.887 62.93, 369.29 52.394, 405.676 15.802 M342.649 75.773 C360.374 59.619, 377.471 44.199, 405.676 15.802 M345.476 75.843 C368.832 52.369, 391.661 28.61, 405.606 18.629 M345.476 75.843 C358.415 62.372, 374.114 48.703, 405.606 18.629 M349.028 75.224 C364.178 62.366, 378.373 49.291, 405.535 21.457 M349.028 75.224 C362.435 61.986, 375.503 48.996, 405.535 21.457 M351.856 75.295 C367.025 59.069, 385.16 43.37, 405.465 24.284 M351.856 75.295 C362.438 64.593, 375.15 53.648, 405.465 24.284 M354.683 75.365 C371.067 59.047, 388.719 42.918, 405.395 27.112 M354.683 75.365 C370.418 61.282, 384.156 47.463, 405.395 27.112 M357.511 75.435 C370.943 63.59, 384.043 50.5, 405.325 29.94 M357.511 75.435 C371.622 61.303, 384.899 49.317, 405.325 29.94 M360.338 75.505 C371.901 63.196, 383.63 53.596, 405.254 32.767 M360.338 75.505 C371.352 66.039, 381.854 55.358, 405.254 32.767 M363.166 75.576 C372.254 65.786, 382.138 58.608, 405.184 35.595 M363.166 75.576 C371.365 66.853, 381.027 58.586, 405.184 35.595 M365.994 75.646 C378.926 62.594, 392.707 48.555, 405.114 38.422 M365.994 75.646 C376.088 64.464, 387.798 54.02, 405.114 38.422 M368.821 75.716 C375.274 67.117, 385.897 60.848, 405.044 41.25 M368.821 75.716 C377.279 67.058, 385.433 59.211, 405.044 41.25 M371.649 75.786 C381.764 66.457, 391.043 57.915, 404.973 44.077 M371.649 75.786 C380.58 67.712, 388.079 60.877, 404.973 44.077 M374.476 75.857 C382.948 65.429, 391.526 57.55, 404.903 46.905 M374.476 75.857 C382.973 68.984, 390.163 61.736, 404.903 46.905 M377.304 75.927 C385.65 66.853, 393.991 60.451, 404.833 49.732 M377.304 75.927 C388.146 65.453, 397.686 55.85, 404.833 49.732 M380.856 75.308 C388.168 68.856, 396.418 60.847, 405.487 51.871 M380.856 75.308 C389.1 66.504, 397.467 58.444, 405.487 51.871 M383.683 75.378 C390.57 67.687, 399.355 58.838, 405.417 54.698 M383.683 75.378 C388.942 70.245, 394.026 66.212, 405.417 54.698 M386.511 75.448 C391.499 68.657, 401.206 63.422, 405.347 57.526 M386.511 75.448 C393.772 68.068, 400.159 63, 405.347 57.526 M389.338 75.519 C393.191 73.45, 397.601 69.153, 405.276 60.353 M389.338 75.519 C393.132 70.832, 397.358 68.489, 405.276 60.353 M392.166 75.589 C392.912 73.218, 397.921 71.353, 405.206 63.181 M392.166 75.589 C396.136 72.917, 397.788 69.235, 405.206 63.181 M394.994 75.659 C396.488 73.505, 399.586 69.775, 405.136 66.008 M394.994 75.659 C398.218 72.814, 400.75 70.511, 405.136 66.008 M397.821 75.729 C399.042 74.404, 401.757 73.27, 405.066 68.836 M397.821 75.729 C399.108 74.252, 400.778 73.056, 405.066 68.836 M400.649 75.8 C401.517 74.993, 403.403 73.406, 404.995 71.664 M400.649 75.8 C402.58 74.382, 403.831 72.687, 404.995 71.664" stroke="rgb(236, 236, 255)" stroke-width="2.186" fill="none"></path><path d="M258 10 C298.788 10.276, 338.036 10.407, 402 10 M402 10 C404.273 10.59, 404.512 11.573, 405 13 M405 13 C406.244 27.763, 404.959 40.772, 405 72 M405 72 C406.925 74.472, 403.08 76.936, 402 75 M402 75 C358.718 76.119, 316.957 74.839, 258 75 M258 75 C257.358 73.844, 254.64 71.863, 255 72 M255 72 C256.32 51.028, 252.848 27.532, 255 13 M255 13 C255.986 12.849, 255.375 11.212, 258 10 M258 10 C258 10, 258 10, 258 10" stroke="rgb(218, 206, 243)" stroke-width="1" fill="none"></path></g><g class="text-container" transform="matrix(1 0 0 1 50 10)"><text style="text-anchor: middle; font-size: 16px; font-weight: 400;font-style: normal;font-weight: 400;font-size: 16px;font-family: Comic Sans MS, cursive;" class="actor actor-box" alignment-baseline="central" dominant-baseline="central" y="32.5" x="280" stroke="rgb(218, 206, 243)" stroke-width="1px" fill="rgb(236, 236, 255)" text-anchor="middle"><tspan dy="0" x="280" stroke="none" stroke-width="1px" fill="rgb(0, 0, 0)" text-anchor="middle" dominant-baseline="central">Angular Frontend</tspan></text></g><g><path d="M124.218 90.737 C123.594 248.148, 123.875 405.435, 124.439 805.652" stroke="rgb(218, 206, 243)" stroke-width="2" fill="none"></path></g><g><path d="M568.645 271.599 C778.986 270.602, 989.254 270.268, 1174.294 271.067" stroke="rgb(218, 206, 243)" stroke-width="2" fill="none" stroke-dasharray="2 2"></path></g><g><path d="M1175.087 271.153 C1172.576 340.817, 1172.54 409.255, 1175.697 471.54" stroke="rgb(218, 206, 243)" stroke-width="2" fill="none" stroke-dasharray="2 2"></path></g><g><path d="M568.183 473.706 C765.941 474.342, 964.881 475.128, 1175.163 472.607" stroke="rgb(218, 206, 243)" stroke-width="2" fill="none" stroke-dasharray="2 2"></path></g><g><path d="M566.743 269.295 C568.283 315.009, 570.08 357.457, 569.719 471.684 M567.369 270.7 C567.412 328.016, 566.802 382.719, 568.556 472.378" stroke="rgb(218, 206, 243)" stroke-width="2" fill="none" stroke-dasharray="2 2"></path></g><g><path d="M568.041 270.963 C568.041 270.963, 568.041 270.963, 568.041 270.963 M568.041 270.963 C568.041 270.963, 568.041 270.963, 568.041 270.963 M568.09 273.408 C569.265 272.656, 570.08 271.847, 570.899 270.751 M567.774 273.86 C568.948 272.805, 569.887 272.203, 570.684 271.122 M567.004 277.116 C569.87 275.581, 571.144 274.438, 573.053 271.811 M567.762 276.922 C569.893 274.848, 571.55 273.261, 573.425 271.266 M569.062 278.438 C569.912 276.593, 573.306 274.694, 576.252 271.731 M568.342 278.357 C570.98 277.081, 573.289 274.022, 577.354 270.799 M568.422 281.337 C572.872 277.891, 576.491 275.607, 579.091 271.672 M568.412 282.038 C572.219 277.913, 576.85 273.451, 579.687 270.793 M566.901 282.738 C571.712 278.852, 580.053 276.243, 582.081 271.894 M567.352 284.704 C574.329 279.642, 579.72 273.581, 582.999 271.426 M567.167 287.497 C571.557 282.659, 575.447 279.523, 587.743 272.379 M568.372 286.571 C573.614 282.107, 579.297 278.036, 586.957 270.795 M570.083 287.832 C574.818 283.655, 580.226 277.631, 588.949 271.394 M569.145 288.582 C576.868 282.236, 584.472 274.483, 590.21 270.433 M567.765 289.095 C576.32 285.451, 578.971 282.761, 593.473 269.396 M569.168 291.232 C578.309 284.376, 585.63 277.033, 591.852 270.233 M573.19 289.79 C577.731 287.539, 585.858 281.767, 596.452 269.364 M572.729 290.404 C580.319 285.238, 586.169 278.031, 595.084 270.566 M574.742 290.842 C581.911 285.167, 587.025 278.672, 600.201 272.662 M574.31 292.018 C579.829 286.175, 585.057 282.446, 598.423 270.931 M577.331 290.148 C586.289 283.493, 596.813 275.985, 599.366 269.419 M578.226 290.22 C584.659 286.03, 591.506 280.713, 601.842 271.104 M579.924 292.922 C588.495 285.48, 598.893 274.972, 602.901 272.092 M581.18 291.82 C589.151 284.373, 596.223 279.067, 604.943 271.241 M582.781 292.191 C591.21 285.315, 593.599 282.969, 605.066 271.106 M584.031 291.818 C590.012 285.126, 597.865 279.855, 607.372 271.876 M587.863 292.41 C594.519 284.833, 606.308 277.118, 610.721 270.715 M588.304 292.028 C595.682 283.421, 605.317 275.574, 610.806 269.769 M592.816 291.6 C595.341 283.694, 602.132 278.623, 613.49 270.383 M591.011 291.103 C597.663 283.858, 604.869 278.726, 614.353 270.49 M594.278 290.543 C599.401 283.91, 606.461 278.397, 617.372 271.175 M593.73 291.946 C598.773 284.821, 604.908 281.276, 615.78 272.062 M597.491 292.861 C602.907 288.668, 604.688 284.714, 619.403 271 M597.029 290.919 C604.084 284.525, 610.311 277.886, 619.181 271.657 M600.802 291.992 C604.703 287.724, 611.137 279.764, 618.52 275.228 M600.254 290.463 C605.667 285.007, 613.179 279.091, 618.229 273.641 M602.158 292.195 C605.602 285.944, 609.865 282.651, 616.77 278.773 M602.125 291.586 C608.235 286.479, 615.239 280.272, 618.323 276.195 M606.719 291.946 C608.959 288.373, 611.36 287.377, 617.884 278.519 M606.349 290.449 C609.163 287.736, 611.379 285.633, 617.825 279.361 M607.385 290.21 C610.703 289.09, 614.42 285.421, 619.558 282.093 M609.005 291.479 C611.375 287.741, 614.945 285.624, 618.525 282.19" stroke="rgb(236, 236, 255)" stroke-width="1.377" fill="none"></path><path d="M566.402 271.502 C580.053 271.711, 595.009 269.184, 619.418 269.162 M617.486 271.862 C618.525 276.616, 616.666 281.11, 617.242 285.18 M618.574 285.069 C613.798 286.494, 610.947 289.999, 608.772 290.166 M607.61 290.33 C598.561 291.589, 590.779 291.214, 568.23 289.792 M569.09 289.689 C566.578 286.844, 567.831 282.495, 567.56 272.955" stroke="rgb(218, 206, 243)" stroke-width="1" fill="none"></path></g><g class="text-container" transform="matrix(1 0 0 1 50 10)"><text style="font-size: 16px; font-weight: 400;font-style: normal;font-weight: 400;font-size: 16px;font-family: Comic Sans MS, cursive;" class="labelText" alignment-baseline="middle" dominant-baseline="middle" text-anchor="middle" y="274" x="543" stroke="none" stroke-width="1px" fill="rgb(0, 0, 0)">loop</text></g><g class="text-container" transform="matrix(1 0 0 1 50 10)"><text style="font-size: 16px; font-weight: 400;font-style: normal;font-weight: 400;font-size: 16px;font-family: Comic Sans MS, cursive;" class="loopText" text-anchor="middle" y="279" x="846.5" stroke="none" stroke-width="1px" fill="rgb(0, 0, 0)" dominant-baseline="auto"><tspan x="846.5" stroke="none" stroke-width="1px" fill="rgb(0, 0, 0)" text-anchor="middle" dominant-baseline="auto">[Image Segments]</tspan></text></g><g><path d="M126.356 36.428 C123.168 38.264, 124.319 43.3, 124.725 54.219" stroke="rgb(218, 206, 243)" stroke-width="2" fill="none"></path></g><g><path d="M107.592 41.322 C120.673 43.431, 133.057 41.419, 142.311 42.178" stroke="rgb(218, 206, 243)" stroke-width="2" fill="none"></path></g><g><path d="M107.804 70.364 C110.619 66.364, 116.433 64.157, 123.314 54.196" stroke="rgb(218, 206, 243)" stroke-width="2" fill="none"></path></g><g><path d="M124.108 56.067 C131.125 57.829, 135.884 63.9, 141.003 68.788" stroke="rgb(218, 206, 243)" stroke-width="2" fill="none"></path></g><g><path d="M110.389 12.608 C110.389 12.608, 110.389 12.608, 110.389 12.608 M110.389 12.608 C110.389 12.608, 110.389 12.608, 110.389 12.608 M110.342 14.021 C113.381 10.557, 116.302 9.488, 119.105 5.823 M110.342 14.021 C112.767 11.165, 116.357 8.906, 119.105 5.823 M110.295 15.435 C114.657 10.842, 116.959 8.931, 120.518 5.871 M110.295 15.435 C113.103 13.462, 116.01 10.331, 120.518 5.871 M110.248 16.848 C112.768 15.098, 116.942 11.502, 121.932 5.918 M110.248 16.848 C113.97 11.958, 118.786 8.021, 121.932 5.918 M110.2 18.262 C115.746 14.732, 119.24 11.527, 123.345 5.965 M110.2 18.262 C112.284 14.941, 116.021 13.304, 123.345 5.965 M110.153 19.675 C114.16 17.491, 117.963 11.587, 125.489 5.329 M110.153 19.675 C112.78 16.805, 117.185 12.013, 125.489 5.329 M110.106 21.088 C116.595 14.561, 119.911 9.76, 126.902 5.376 M110.106 21.088 C115.096 15.839, 120.008 11.067, 126.902 5.376 M110.059 22.502 C116.022 14.926, 123.432 10.63, 128.316 5.423 M110.059 22.502 C117.142 16.233, 123.337 8.953, 128.316 5.423 M110.742 23.232 C116.049 20.254, 119.124 16.263, 129.729 5.47 M110.742 23.232 C114.872 19.454, 119.263 15.336, 129.729 5.47 M110.695 24.646 C113.535 21.568, 120.622 15.778, 131.143 5.517 M110.695 24.646 C116.055 19.665, 119.712 15.945, 131.143 5.517 M111.378 25.376 C118.966 19.525, 126.928 11.07, 131.826 6.247 M111.378 25.376 C114.858 20.999, 118.721 18.618, 131.826 6.247 M112.062 26.106 C116.619 21.823, 123.38 15.395, 132.509 6.978 M112.062 26.106 C116.577 21.782, 123.073 15.3, 132.509 6.978 M112.745 26.836 C119.482 22.3, 123.771 15.034, 133.192 7.708 M112.745 26.836 C119.36 20.525, 126.106 13.891, 133.192 7.708 M112.698 28.25 C120.335 22.55, 123.281 18.487, 134.606 7.755 M112.698 28.25 C121.597 21.488, 129.056 12.953, 134.606 7.755 M113.381 28.98 C120.6 23.163, 127.252 16.166, 135.289 8.485 M113.381 28.98 C121.001 21.515, 128.131 14.299, 135.289 8.485 M114.064 29.71 C122.2 25.21, 127.332 17.023, 135.972 9.215 M114.064 29.71 C122.028 22.873, 127.563 15.82, 135.972 9.215 M114.747 30.441 C124.611 22.808, 131.66 16.943, 136.655 9.946 M114.747 30.441 C123.67 21.851, 132.276 14.644, 136.655 9.946 M114.7 31.854 C119.895 26.016, 127.95 18.632, 137.338 10.676 M114.7 31.854 C120.781 25.601, 128.338 18.872, 137.338 10.676 M115.383 32.584 C124.311 22.687, 132.721 18.362, 138.021 11.406 M115.383 32.584 C121.02 28.628, 126.555 22.415, 138.021 11.406 M116.797 32.631 C120.434 29.271, 125.325 23.85, 138.705 12.137 M116.797 32.631 C123.153 28.302, 127.974 22.353, 138.705 12.137 M117.48 33.362 C123.771 25.524, 132.354 19.844, 139.388 12.867 M117.48 33.362 C124.968 27.297, 130.921 20.894, 139.388 12.867 M118.893 33.409 C125.08 26.797, 132.391 22.501, 139.341 14.28 M118.893 33.409 C125.295 27.448, 132.499 20.121, 139.341 14.28 M120.307 33.456 C125.634 30.128, 130.692 26.613, 139.294 15.694 M120.307 33.456 C126.047 28.08, 129.523 23.977, 139.294 15.694 M120.99 34.186 C128.385 25.475, 136.359 21.751, 139.246 17.107 M120.99 34.186 C127.307 27.831, 132.207 22.432, 139.246 17.107 M122.403 34.233 C128.677 31.141, 131.409 26.935, 139.93 17.837 M122.403 34.233 C128.433 29.773, 132.949 24.969, 139.93 17.837 M123.817 34.28 C128.813 31.142, 132.148 24.561, 139.882 19.251 M123.817 34.28 C130.115 28.581, 136.284 22.911, 139.882 19.251 M125.23 34.327 C129.001 31.97, 131.102 28.46, 139.835 20.664 M125.23 34.327 C130.808 29.693, 135.629 24.956, 139.835 20.664 M125.913 35.058 C129.107 28.983, 134.205 27.293, 139.788 22.078 M125.913 35.058 C131.623 30.903, 135.54 25.862, 139.788 22.078 M126.596 35.788 C129.839 31.513, 135.747 27.39, 139.011 24.174 M126.596 35.788 C130.029 32.709, 133.187 28.823, 139.011 24.174 M129.47 34.469 C132.369 31.772, 133.989 30.409, 138.234 26.271 M129.47 34.469 C131.585 32.276, 135.181 29.335, 138.234 26.271 M132.344 33.15 C133.608 32.37, 135.112 30.563, 137.456 28.367 M132.344 33.15 C133.603 32.172, 135.056 31.043, 137.456 28.367" stroke="rgb(236, 236, 255)" stroke-width="1.656" fill="none"></path><path d="M118.717 5.506 C121.783 4.193, 127.206 3.921, 130.544 4.927 C133.881 5.934, 137.222 8.777, 138.742 11.546 C140.261 14.314, 140.056 18.357, 139.661 21.538 C139.266 24.719, 138.577 28.404, 136.373 30.632 C134.17 32.86, 129.955 34.57, 126.441 34.905 C122.926 35.24, 118.05 34.652, 115.286 32.644 C112.521 30.635, 110.665 26.199, 109.855 22.854 C109.045 19.509, 108.872 15.319, 110.425 12.574 C111.978 9.829, 117.521 7.48, 119.171 6.384 C120.822 5.289, 120.061 5.716, 120.327 6 M128.487 4.245 C131.259 4.752, 133.718 8.676, 135.754 11.281 C137.791 13.886, 140.607 16.584, 140.705 19.874 C140.803 23.165, 138.464 28.388, 136.341 31.024 C134.218 33.66, 130.964 35.422, 127.967 35.691 C124.971 35.96, 121.304 34.363, 118.361 32.638 C115.417 30.913, 111.409 28.185, 110.307 25.342 C109.204 22.5, 110.527 18.769, 111.746 15.583 C112.966 12.397, 114.763 8.231, 117.623 6.225 C120.483 4.22, 127.392 3.754, 128.908 3.55 C130.423 3.345, 126.82 4.663, 126.717 5" stroke="rgb(218, 206, 243)" stroke-width="2" fill="none"></path></g><g class="text-container" transform="matrix(1 0 0 1 50 10)"><text style="text-anchor: middle; font-size: 16px; font-weight: 400;font-style: normal;font-weight: 400;font-size: 16px;font-family: Comic Sans MS, cursive;" class="actor actor-man" alignment-baseline="central" dominant-baseline="central" y="67.5" x="75" stroke="rgb(218, 206, 243)" stroke-width="1px" fill="rgb(236, 236, 255)" text-anchor="middle"><tspan dy="0" x="75" stroke="none" stroke-width="1px" fill="rgb(0, 0, 0)" text-anchor="middle" dominant-baseline="central">User</tspan></text></g><g class="text-container" transform="matrix(1 0 0 1 50 10)"><text style="font-size: 16px; font-weight: 400;font-style: normal;font-weight: 400;font-size: 16px;font-family: Comic Sans MS, cursive;" dy="1em" class="messageText" alignment-baseline="middle" dominant-baseline="middle" text-anchor="middle" y="80" x="176" stroke="none" stroke-width="1px" fill="rgb(51, 51, 51)">Uploads Image(s)</text></g><g><path d="M125.821 126.762 C167.387 126.658, 208.53 128.736, 325.4 127.24 M125.855 127.496 C180.329 124.971, 233.616 125.643, 325.329 127.747" stroke="rgb(51, 51, 51)" stroke-width="1.5" fill="none"></path></g><g><path d="M316.878 122.256 C316.878 122.256, 316.878 122.256, 316.878 122.256 M316.878 122.256 C316.878 122.256, 316.878 122.256, 316.878 122.256 M318.109 125.525 C318.238 125.365, 318.786 124.55, 320.077 123.223 M317.758 125.602 C318.307 125.328, 318.626 124.79, 319.888 123.479 M317.447 129.672 C319.904 128.998, 321.172 127.28, 322.907 124.022 M318.411 129.964 C319.086 129.075, 319.915 127.832, 322.829 124.378 M320.445 131.746 C322.722 128.786, 325.045 126.577, 325.09 126.15 M321.365 131.374 C322.174 129.481, 324.098 127.664, 325.687 125.934" stroke="rgb(51, 51, 51)" stroke-width="0.989" fill="none"></path><path d="M317.559 123.06 C321.993 125.089, 324.98 126.626, 327.761 126.385 M328.775 128.115 C325.297 128.091, 321.523 129.771, 319.19 132.227 M318.824 131.589 C316.834 130.268, 318.584 126.86, 317.49 121.975" stroke="rgb(51, 51, 51)" stroke-width="1" fill="none"></path></g><g class="text-container" transform="matrix(1 0 0 1 50 10)"><text style="font-size: 16px; font-weight: 400;font-style: normal;font-weight: 400;font-size: 16px;font-family: Comic Sans MS, cursive;" dy="1em" class="messageText" alignment-baseline="middle" dominant-baseline="middle" text-anchor="middle" y="132" x="403" stroke="none" stroke-width="1px" fill="rgb(51, 51, 51)">Image(s) and their names</text></g><g><path d="M330.379 179.037 C420.227 179.289, 509.71 177.781, 575.673 180.241 M331.029 179.503 C422.677 178.261, 514.847 178.046, 574.429 179.653" stroke="rgb(51, 51, 51)" stroke-width="1.5" fill="none"></path></g><g><path d="M565.852 174.345 C565.852 174.345, 565.852 174.345, 565.852 174.345 M565.852 174.345 C565.852 174.345, 565.852 174.345, 565.852 174.345 M566.036 176.844 C566.928 176.226, 567.443 175.739, 568.007 174.733 M566.256 177.246 C566.822 176.606, 567.184 176.077, 568.037 174.691 M566.49 179.64 C567.638 179.316, 567.919 178.519, 569.7 175.719 M566.973 179.796 C567.666 178.456, 568.4 177.221, 569.774 175.684 M567.411 182.708 C567.89 181.055, 569.987 178.271, 572.166 175.469 M567.04 183.085 C567.983 180.989, 569.201 179.836, 571.952 176.019 M567.7 184.313 C569.633 182.288, 570.914 180.959, 574.289 177.46 M568.165 184.734 C569.818 182.85, 570.407 181.573, 573.372 177.572 M571.75 182.766 C572.992 181.583, 573.837 180.697, 575.457 178.949 M572.037 182.507 C573.313 181.199, 574.597 179.263, 575.093 178.365" stroke="rgb(51, 51, 51)" stroke-width="0.62" fill="none"></path><path d="M564.989 173.946 C568.072 175.685, 571.615 177.042, 576.898 177.959 M565.978 174.363 C570.578 176.317, 574.665 177.449, 577.674 179.423 M577.404 179.438 C574.573 179.993, 573.327 181.174, 568.044 184.153 M577.527 179.325 C572.794 180.73, 569.726 182.86, 566.824 184.533 M566.705 184.871 C566.41 181.794, 566.878 180.337, 566.204 173.558 M567.227 184.005 C566.372 180.116, 566.427 176.241, 566.349 173.759" stroke="rgb(51, 51, 51)" stroke-width="1" fill="none"></path></g><g class="text-container" transform="matrix(1 0 0 1 50 10)"><text style="font-size: 16px; font-weight: 400;font-style: normal;font-weight: 400;font-size: 16px;font-family: Comic Sans MS, cursive;" dy="1em" class="messageText" alignment-baseline="middle" dominant-baseline="middle" text-anchor="middle" y="184" x="530" stroke="none" stroke-width="1px" fill="rgb(51, 51, 51)">Divide Image into Segments</text></g><g><path d="M580 231 C641.292 221.932, 639.732 262.792, 580 251" stroke="rgb(51, 51, 51)" stroke-width="1.5" fill="none"></path></g><g><path d="M574.795 243.417 C574.795 243.417, 574.795 243.417, 574.795 243.417 M574.795 243.417 C574.795 243.417, 574.795 243.417, 574.795 243.417 M576.901 245.518 C577.726 244.717, 578.104 243.491, 578.547 242.357 M576.904 245.923 C577.333 244.987, 577.914 243.9, 579.093 242.347 M578.776 249.451 C578.862 247.441, 579.993 246.177, 582.349 242.677 M578.419 249.182 C579.144 247.689, 580.333 246.692, 582.248 242.333 M579.506 252.023 C580.17 251.984, 580.433 250.781, 581.973 248.546 M579.623 252.687 C580.416 251.054, 581.655 249.512, 582.295 248.116" stroke="rgb(51, 51, 51)" stroke-width="0.984" fill="none"></path><path d="M584.691 242.919 C584.005 246.228, 581.312 248.163, 580.045 254.108 M585.552 242.043 C583.252 246.03, 581.416 249.601, 579.775 252.635 M579.997 254.158 C579.777 251.651, 577.955 248.551, 574.283 243.749 M580.016 253.427 C578.334 250.373, 577.345 248.04, 574.599 243.214 M574.317 243.17 C577.57 243.725, 581.502 243.42, 584.738 242.792 M574.742 243.262 C577.71 243.076, 579.967 242.396, 584.741 242.501" stroke="rgb(51, 51, 51)" stroke-width="1" fill="none"></path></g><g class="text-container" transform="matrix(1 0 0 1 50 10)"><text style="font-size: 16px; font-weight: 400;font-style: normal;font-weight: 400;font-size: 16px;font-family: Comic Sans MS, cursive;" dy="1em" class="messageText" alignment-baseline="middle" dominant-baseline="middle" text-anchor="middle" y="312" x="720" stroke="none" stroke-width="1px" fill="rgb(51, 51, 51)">Image Segment</text></g><g><path d="M580.837 358.668 C686.819 359.211, 794.527 359.118, 959.404 359.533" stroke="rgb(51, 51, 51)" stroke-width="1.5" fill="none"></path></g><g><path d="M951.332 353.643 C951.332 353.643, 951.332 353.643, 951.332 353.643 M951.332 353.643 C951.332 353.643, 951.332 353.643, 951.332 353.643 M951.302 358.713 C952.277 357.994, 952.861 357.295, 953.926 355.352 M951.662 358.704 C952.16 357.804, 952.563 357.076, 953.903 355.406 M952.596 363.665 C952.469 362.402, 953.636 359.411, 956.899 356.335 M952.046 363.77 C953.735 361.081, 955.113 359.189, 956.144 356.586 M954.568 364.537 C955.163 362.889, 956.938 360.89, 959.362 357.284 M954.304 365.012 C955.265 362.986, 957.166 361.644, 959.069 357.72" stroke="rgb(51, 51, 51)" stroke-width="1.335" fill="none"></path><path d="M952.213 353.144 C954.371 354.894, 956.779 356.319, 962.552 359.686 M961.577 359.188 C958.601 361.233, 956.342 362.219, 952.187 365.107 M953.055 363.08 C952.476 361.604, 950.899 358.597, 950.462 353.742" stroke="rgb(51, 51, 51)" stroke-width="1" fill="none"></path></g><g class="text-container" transform="matrix(1 0 0 1 50 10)"><text style="font-size: 16px; font-weight: 400;font-style: normal;font-weight: 400;font-size: 16px;font-family: Comic Sans MS, cursive;" dy="1em" class="messageText" alignment-baseline="middle" dominant-baseline="middle" text-anchor="middle" y="364" x="723" stroke="none" stroke-width="1px" fill="rgb(51, 51, 51)">Extract Nodes and Edges</text></g><g><path d="M962.098 411.964 C870.755 408.758, 775.84 409.894, 583.79 411.222 M963.416 411.307 C820.815 413.043, 679.113 413.15, 582.974 411.51" stroke="rgb(51, 51, 51)" stroke-width="1.5" fill="none"></path></g><g><path d="M581.157 410.777 C581.157 410.777, 581.157 410.777, 581.157 410.777 M581.157 410.777 C581.157 410.777, 581.157 410.777, 581.157 410.777 M583.528 411.142 C583.789 410.555, 585.174 410.205, 587.276 407.965 M583.505 411.455 C584.558 410.611, 585.516 409.153, 588.013 407.625 M585.128 412.633 C587.261 411.649, 588.759 408.225, 590.867 408.095 M584.328 413.212 C586.552 411.257, 588.318 409.909, 591.623 406.994 M587.24 413.306 C588.395 412.751, 590.494 411.08, 592.365 408.897 M586.906 413.683 C588.169 412.752, 589.295 412.011, 591.72 409.167 M588.986 414.951 C590.357 414.004, 591.242 412.428, 592.688 412.073 M588.555 414.672 C590.374 413.38, 591.876 412.101, 592.355 411.541 M590.746 415.599 C591.303 415.444, 591.995 414.952, 592.347 414.377 M590.683 415.809 C591.194 415.444, 591.439 414.974, 592.195 414.41" stroke="rgb(51, 51, 51)" stroke-width="1.505" fill="none"></path><path d="M591.489 415.016 C587.11 414.94, 584.661 412.086, 579.805 410.44 M580.673 411.543 C582.555 409.202, 585.809 409.261, 590.675 406.106 M591.711 405.151 C590.523 407.802, 592.412 410.552, 592.421 416.764" stroke="rgb(51, 51, 51)" stroke-width="1" fill="none"></path></g><g class="text-container" transform="matrix(1 0 0 1 50 10)"><text style="font-size: 16px; font-weight: 400;font-style: normal;font-weight: 400;font-size: 16px;font-family: Comic Sans MS, cursive;" dy="1em" class="messageText" alignment-baseline="middle" dominant-baseline="middle" text-anchor="middle" y="416" x="820" stroke="none" stroke-width="1px" fill="rgb(51, 51, 51)">Saves Nodes and Edges</text></g><g><path d="M579.616 462.874 C709.024 463.12, 838.464 464.138, 1160.412 463.337 M579.903 462.801 C721.871 462.084, 864.172 462.009, 1159.918 462.685" stroke="rgb(51, 51, 51)" stroke-width="1.5" fill="none"></path></g><g><path d="M1151.405 457.727 C1151.405 457.727, 1151.405 457.727, 1151.405 457.727 M1151.405 457.727 C1151.405 457.727, 1151.405 457.727, 1151.405 457.727 M1151.121 460.535 C1151.601 460.037, 1151.949 459.908, 1152.548 459.165 M1151.203 460.551 C1151.486 460.172, 1151.944 460.002, 1152.805 459.185 M1152.098 462.663 C1153.086 461.516, 1153.825 460.822, 1154.912 459.715 M1151.863 462.587 C1152.76 461.762, 1153.664 460.992, 1154.667 459.984 M1151.1 466.168 C1152.679 464.925, 1154.822 463.8, 1156.493 461.098 M1151.673 465.394 C1153.11 464.289, 1154.857 462.842, 1156.853 460.753 M1153.173 467.195 C1154.236 465.654, 1155.049 463.874, 1159.733 461.407 M1152.492 468.125 C1154.059 465.601, 1156.813 463.769, 1159.362 462.07 M1155.995 467.664 C1157.362 466.036, 1158.297 464.697, 1160.8 462.298 M1155.568 467.218 C1157.069 466.31, 1158.054 464.841, 1161.213 462.573" stroke="rgb(51, 51, 51)" stroke-width="0.524" fill="none"></path><path d="M1151.024 457.27 C1155.296 458.689, 1157.917 461.8, 1161.824 462.559 M1162.285 463.771 C1159.331 465.341, 1157.097 464.615, 1152.657 468.436 M1151.37 468.8 C1151.751 465.441, 1151.056 462.115, 1151.92 457.409" stroke="rgb(51, 51, 51)" stroke-width="1" fill="none"></path></g><g class="text-container" transform="matrix(1 0 0 1 50 10)"><text style="font-size: 16px; font-weight: 400;font-style: normal;font-weight: 400;font-size: 16px;font-family: Comic Sans MS, cursive;" dy="1em" class="messageText" alignment-baseline="middle" dominant-baseline="middle" text-anchor="middle" y="478" x="823" stroke="none" stroke-width="1px" fill="rgb(51, 51, 51)">Get the full graph</text></g><g><path d="M1162.803 525.47 C1029.883 525.886, 897.938 525.671, 582.557 524.235" stroke="rgb(51, 51, 51)" stroke-width="1.5" fill="none"></path></g><g><path d="M580.573 525.313 C580.573 525.313, 580.573 525.313, 580.573 525.313 M580.573 525.313 C580.573 525.313, 580.573 525.313, 580.573 525.313 M584.123 526.32 C585.849 524.684, 588.672 521.489, 589.763 520.715 M584.384 526.347 C586.388 524.286, 588.091 522.039, 589.606 520.911 M587.503 527.641 C587.66 526.59, 589.951 525.75, 591.282 522.903 M586.781 527.231 C588.638 526.407, 589.903 524.788, 591.646 522.97 M589.859 528.815 C590.139 528.348, 591.315 527.792, 591.963 527.247 M589.76 529.053 C590.36 528.484, 591.04 527.905, 591.964 527.046" stroke="rgb(51, 51, 51)" stroke-width="1.188" fill="none"></path><path d="M591.037 530.713 C587.068 527.542, 583.639 526.263, 580.067 525.501 M582.01 525.164 C584.212 522.942, 587.177 523.134, 589.858 520.584 M591.877 520.184 C591.316 523.967, 592.523 527.043, 591.637 530.91" stroke="rgb(51, 51, 51)" stroke-width="1" fill="none"></path></g><g class="text-container" transform="matrix(1 0 0 1 50 10)"><text style="font-size: 16px; font-weight: 400;font-style: normal;font-weight: 400;font-size: 16px;font-family: Comic Sans MS, cursive;" dy="1em" class="messageText" alignment-baseline="middle" dominant-baseline="middle" text-anchor="middle" y="530" x="720" stroke="none" stroke-width="1px" fill="rgb(51, 51, 51)">Full graph to merge similar nodes and edges</text></g><g><path d="M580.194 576.056 C669.159 577.479, 759.151 576.73, 960.348 578.054" stroke="rgb(51, 51, 51)" stroke-width="1.5" fill="none"></path></g><g><path d="M951.097 572.005 C951.097 572.005, 951.097 572.005, 951.097 572.005 M951.097 572.005 C951.097 572.005, 951.097 572.005, 951.097 572.005 M951.349 573.435 C951.488 573.217, 951.56 573.046, 951.9 572.496 M951.287 573.414 C951.504 573.181, 951.695 572.953, 951.957 572.627 M951.427 574.651 C951.986 574.387, 952.561 573.693, 952.652 573.311 M951.58 574.705 C951.933 574.202, 952.381 573.679, 952.759 573.099 M951.47 576.297 C952.56 575.224, 953.164 574.017, 954.297 572.997 M951.924 576.281 C952.643 575.261, 953.451 574.073, 954.269 572.874 M951.176 578.601 C952.626 577.376, 953.532 575.43, 954.492 573.865 M951.62 578.613 C952.089 577.032, 953.203 576.061, 954.9 573.749 M952.243 580.355 C952.442 578.074, 954.104 576.275, 955.72 574.302 M951.735 579.476 C952.933 578.842, 953.196 577.503, 955.874 573.831 M951.77 580.483 C954.493 579.245, 955.014 576.342, 955.898 574.174 M951.853 581.375 C953.157 579.786, 954.058 578.576, 956.471 574.507 M952.119 583.002 C953.915 580.393, 955.953 577.773, 957.672 575.492 M952.216 582.73 C953.668 580.474, 955.734 577.458, 957.12 575.025 M954.571 580.9 C955.678 579.002, 957.173 576.071, 958.868 574.819 M953.789 581.608 C955.198 579.604, 955.996 578.409, 958.698 574.647 M956.703 580.88 C957.094 579.719, 958.247 577.284, 959.943 575.997 M956.168 580.369 C956.528 579.454, 957.445 578.502, 959.424 575.845 M958.076 579.703 C958.66 578.183, 959.346 577.95, 960.435 576.127 M957.933 579.227 C958.646 578.601, 959.084 578.214, 960.517 576.204 M959.913 578.361 C960.351 577.825, 960.56 577.283, 961.278 576.827 M960.135 578.431 C960.425 577.819, 960.847 577.189, 961.319 576.653" stroke="rgb(51, 51, 51)" stroke-width="0.607" fill="none"></path><path d="M950.428 572.97 C953.799 572.284, 955.598 575.156, 962.913 577.467 M961.59 577.635 C960.147 578.196, 957.865 579.012, 951.369 581.75 M952.085 581.428 C952.755 578.23, 950.76 575.339, 951.752 572.013" stroke="rgb(51, 51, 51)" stroke-width="1" fill="none"></path></g><g class="text-container" transform="matrix(1 0 0 1 50 10)"><text style="font-size: 16px; font-weight: 400;font-style: normal;font-weight: 400;font-size: 16px;font-family: Comic Sans MS, cursive;" dy="1em" class="messageText" alignment-baseline="middle" dominant-baseline="middle" text-anchor="middle" y="582" x="723" stroke="none" stroke-width="1px" fill="rgb(51, 51, 51)">Full graph with merged nodes and edges</text></g><g><path d="M962.341 628.239 C846.464 631.288, 731.876 631.182, 584.135 629.238" stroke="rgb(51, 51, 51)" stroke-width="1.5" fill="none"></path></g><g><path d="M580.837 629.068 C580.837 629.068, 580.837 629.068, 580.837 629.068 M580.837 629.068 C580.837 629.068, 580.837 629.068, 580.837 629.068 M581.793 629.595 C582.444 628.633, 583.119 627.962, 583.354 627.397 M581.437 629.861 C582.183 629.016, 582.851 628.605, 583.563 627.415 M582.975 630.066 C583.909 628.639, 584.939 627.991, 585.316 626.619 M583.105 629.585 C584.078 628.625, 584.998 627.703, 585.619 626.679 M584.366 630.232 C584.858 628.66, 586.523 627.153, 588.693 625.537 M583.553 630.723 C585.339 628.951, 586.623 627.344, 588.483 625.498 M583.788 630.255 C586.589 629.588, 588.099 627.163, 590.99 623.53 M583.959 630.692 C586.09 629.333, 587.119 628.322, 590.88 623.416 M585.496 630.833 C587.939 629.775, 589.599 628.445, 590.818 625.539 M585.498 631.068 C587.464 629.648, 588.418 628.237, 591.383 625.11 M586.836 631.156 C589.001 629.968, 590.035 628.116, 591.254 626.341 M586.336 631.804 C588.233 630.101, 589.933 628.234, 591.061 626.877 M587.308 632.794 C588.43 630.804, 590.543 629.267, 591.825 627.871 M587.313 632.603 C588.267 631.084, 589.061 630.44, 591.133 627.901 M588.419 632.012 C588.939 631.579, 589.609 631.384, 591.723 629.551 M588.625 632.253 C589.998 630.981, 590.986 630.137, 591.576 629.454 M589.448 632.754 C589.837 632.571, 590.837 631.821, 591.61 630.556 M589.323 633.062 C590.355 632.057, 591.071 631.377, 591.465 630.9 M590.052 633.564 C590.57 633.269, 590.78 632.846, 591.72 632.369 M590.295 633.701 C590.541 633.379, 590.868 632.932, 591.558 632.127 M591.616 633.631 C591.616 633.631, 591.616 633.631, 591.616 633.631 M591.616 633.631 C591.616 633.631, 591.616 633.631, 591.616 633.631" stroke="rgb(51, 51, 51)" stroke-width="1.495" fill="none"></path><path d="M592.277 633.376 C587.407 632.275, 584.406 630.574, 580.663 628.719 M579.879 628.246 C582.67 627.037, 586.366 626.322, 591.325 623.954 M591.287 623.063 C592.058 627.062, 591.045 631.295, 592.207 634.579" stroke="rgb(51, 51, 51)" stroke-width="1" fill="none"></path></g><g class="text-container" transform="matrix(1 0 0 1 50 10)"><text style="font-size: 16px; font-weight: 400;font-style: normal;font-weight: 400;font-size: 16px;font-family: Comic Sans MS, cursive;" dy="1em" class="messageText" alignment-baseline="middle" dominant-baseline="middle" text-anchor="middle" y="634" x="820" stroke="none" stroke-width="1px" fill="rgb(51, 51, 51)">Save the merged graph</text></g><g><path d="M580.47 680.504 C789.5 681.601, 998.816 681.762, 1159.306 680.494 M580.28 681.181 C728.563 679.513, 876.306 679.959, 1160.077 680.611" stroke="rgb(51, 51, 51)" stroke-width="1.5" fill="none"></path></g><g><path d="M1151.321 675.786 C1151.321 675.786, 1151.321 675.786, 1151.321 675.786 M1151.321 675.786 C1151.321 675.786, 1151.321 675.786, 1151.321 675.786 M1151.401 678.456 C1151.625 678.167, 1152.216 677.811, 1152.806 677.301 M1151.324 678.548 C1151.645 678.275, 1151.973 677.807, 1152.693 677.284 M1151.873 680.704 C1152.791 679.855, 1153.61 678.7, 1154.495 678.116 M1151.955 680.669 C1152.667 680.236, 1153.175 679.598, 1154.967 677.88 M1151.857 683.745 C1153.308 681.419, 1154.936 680.346, 1157.074 678.911 M1152.08 683.268 C1153.3 682.403, 1154.55 681.255, 1156.971 678.485 M1152.26 687.089 C1154.643 684.208, 1157.504 682.54, 1159.524 679.989 M1152.347 686.764 C1153.454 684.83, 1155.868 682.826, 1159.53 679.293 M1158.104 682.793 C1158.924 682.269, 1159.34 681.854, 1161.143 680.447 M1158.282 683.149 C1159.063 682.136, 1160.433 680.981, 1161.192 680.111" stroke="rgb(51, 51, 51)" stroke-width="1.649" fill="none"></path><path d="M1150.328 675.212 C1155.497 676.992, 1159.017 679.728, 1162.412 680.694 M1151.517 675.552 C1153.935 677.583, 1156.371 678.584, 1161.763 680.718 M1162.423 680.828 C1159.295 682.193, 1154.884 685.262, 1152.846 686.467 M1161.896 680.784 C1159.411 682.052, 1155.791 683.62, 1152.541 686.048 M1151.875 686.52 C1151.199 681.915, 1151.071 678.402, 1151.583 675.7 M1152.334 685.632 C1152.202 682.458, 1151.452 678.335, 1151.214 675.576" stroke="rgb(51, 51, 51)" stroke-width="1" fill="none"></path></g><g class="text-container" transform="matrix(1 0 0 1 50 10)"><text style="font-size: 16px; font-weight: 400;font-style: normal;font-weight: 400;font-size: 16px;font-family: Comic Sans MS, cursive;" dy="1em" class="messageText" alignment-baseline="middle" dominant-baseline="middle" text-anchor="middle" y="686" x="406" stroke="none" stroke-width="1px" fill="rgb(51, 51, 51)">Send the merged graph</text></g><g><path d="M577.316 733.615 C484.505 732.975, 392.619 734.35, 335.43 731.366 M578.489 733.188 C519.21 732.352, 460.432 731.853, 333.19 733.623" stroke="rgb(51, 51, 51)" stroke-width="1.5" fill="none"></path></g><g><path d="M332.142 732.598 C332.142 732.598, 332.142 732.598, 332.142 732.598 M332.142 732.598 C332.142 732.598, 332.142 732.598, 332.142 732.598 M335.06 734.393 C335.747 732.631, 335.898 731.528, 336.513 730.762 M334.879 734.137 C335.303 733.007, 336.318 731.592, 336.851 730.901 M336.739 736.269 C339.213 733.986, 339.343 730.709, 341.427 727.929 M337.574 735.525 C338.039 734.006, 339.765 732.336, 341.555 727.559 M340.631 736.208 C341.301 735.423, 342.029 733.999, 342.37 732.65 M340.555 736.386 C341.063 735.428, 341.264 734.826, 342.283 732.848 M342.943 737.919 C342.943 737.919, 342.943 737.919, 342.943 737.919 M342.943 737.919 C342.943 737.919, 342.943 737.919, 342.943 737.919" stroke="rgb(51, 51, 51)" stroke-width="0.915" fill="none"></path><path d="M343.746 737.434 C339.479 735.554, 337.978 736.504, 331.228 733.959 M330.961 732.838 C334.401 732.183, 338.394 730.186, 342.031 727.731 M342.181 727.229 C343.215 731.434, 342.169 736.637, 343.724 738.131" stroke="rgb(51, 51, 51)" stroke-width="1" fill="none"></path></g><g class="text-container" transform="matrix(1 0 0 1 50 10)"><text style="font-size: 16px; font-weight: 400;font-style: normal;font-weight: 400;font-size: 16px;font-family: Comic Sans MS, cursive;" dy="1em" class="messageText" alignment-baseline="middle" dominant-baseline="middle" text-anchor="middle" y="738" x="179" stroke="none" stroke-width="1px" fill="rgb(51, 51, 51)">Visualize the graph</text></g><g><path d="M328.433 785.048 C275.434 784.208, 218.225 786.376, 127.506 783.75" stroke="rgb(51, 51, 51)" stroke-width="1.5" fill="none"></path></g><g><path d="M126.949 784.921 C126.949 784.921, 126.949 784.921, 126.949 784.921 M126.949 784.921 C126.949 784.921, 126.949 784.921, 126.949 784.921 M129.098 786.098 C129.803 785.98, 130.916 784.146, 132.043 781.809 M129.476 786.437 C129.997 785.42, 130.526 784.703, 132.201 782.134 M131.958 787.74 C134.115 785.846, 134.124 784.53, 136.206 780.755 M132.208 786.848 C133.632 785.041, 134.88 783.087, 137.033 780.766 M134.923 788.896 C135.647 787.355, 136.97 786.567, 138.257 784.564 M134.959 789.067 C135.787 787.947, 136.065 786.869, 137.649 784.362" stroke="rgb(51, 51, 51)" stroke-width="1.196" fill="none"></path><path d="M138.467 790.056 C132.652 788.234, 128.88 784.841, 125.952 785.689 M126.779 785.238 C130.952 782.463, 134.099 782.773, 137.243 780.703 M136.299 780.791 C137.74 781.401, 137.665 784.721, 138.174 789.176" stroke="rgb(51, 51, 51)" stroke-width="1" fill="none"></path></g><g><path d="M126.026 829.606 C126.169 835.448, 124.873 842.455, 123.342 850.266" stroke="rgb(218, 206, 243)" stroke-width="2" fill="none"></path></g><g><path d="M108.375 839.355 C120.55 836.455, 134.74 836.8, 141.938 837.124" stroke="rgb(218, 206, 243)" stroke-width="2" fill="none"></path></g><g><path d="M105.366 865.029 C113.431 861.997, 117.234 856.173, 126.996 849.062 M107.895 864.199 C112.931 860.721, 118.917 856.729, 124.402 850.834" stroke="rgb(218, 206, 243)" stroke-width="2" fill="none"></path></g><g><path d="M123.754 850.791 C131.627 854.605, 137.645 860.486, 140.325 863.193" stroke="rgb(218, 206, 243)" stroke-width="2" fill="none"></path></g><g><path d="M114.993 806.442 C114.993 806.442, 114.993 806.442, 114.993 806.442 M114.993 806.442 C114.993 806.442, 114.993 806.442, 114.993 806.442 M112.635 811.284 C114.555 807.839, 119.179 806.569, 123.74 801.2 M112.635 811.284 C116.547 807.415, 119.615 804.921, 123.74 801.2 M111.019 815.454 C115.461 810.512, 120.594 806.051, 125.825 802.009 M111.019 815.454 C115.066 811.771, 117.959 809.214, 125.825 802.009 M112.363 816.934 C115.428 814.221, 119.103 807.548, 127.91 802.817 M112.363 816.934 C117.998 813.386, 121.977 807.987, 127.91 802.817 M112.967 819.087 C116.14 816.665, 123.125 812.733, 130.735 802.953 M112.967 819.087 C119.493 813.541, 125.104 808.528, 130.735 802.953 M113.572 821.24 C117.994 814.899, 124.459 810.114, 132.82 803.762 M113.572 821.24 C120.318 814.802, 126.478 810.752, 132.82 803.762 M114.176 823.393 C119.233 817.873, 126.31 810.774, 134.164 805.242 M114.176 823.393 C121.848 817.381, 127.631 811.907, 134.164 805.242 M115.52 824.874 C119.645 819.929, 124.379 818.56, 135.509 806.723 M115.52 824.874 C119.655 820.66, 124.764 816.851, 135.509 806.723 M116.865 826.354 C123.178 823.822, 125.494 816.176, 136.853 808.204 M116.865 826.354 C124.787 819.778, 131.597 813.311, 136.853 808.204 M118.95 827.163 C124.189 821.95, 130.264 816.645, 138.198 809.684 M118.95 827.163 C123.491 823.173, 129.101 819.092, 138.198 809.684 M120.294 828.643 C125.714 823.715, 126.79 822.966, 138.062 812.509 M120.294 828.643 C126.965 822.115, 131.689 816.521, 138.062 812.509 M122.379 829.452 C125.265 828.473, 127.583 824.209, 138.666 814.662 M122.379 829.452 C127.051 823.522, 133.262 819.739, 138.666 814.662 M125.204 829.588 C127.664 826.444, 134.104 821.002, 138.53 817.487 M125.204 829.588 C130.476 824.924, 135.93 819.568, 138.53 817.487 M128.77 829.052 C133.191 826.45, 135.16 823.626, 139.134 819.64 M128.77 829.052 C130.599 827.601, 132.586 824.451, 139.134 819.64" stroke="rgb(236, 236, 255)" stroke-width="1.183" fill="none"></path><path d="M121.861 800.362 C124.69 799.675, 130.003 801.621, 132.672 803.117 C135.342 804.613, 136.848 806.536, 137.876 809.337 C138.905 812.137, 139.882 816.79, 138.844 819.919 C137.806 823.048, 134.333 826.425, 131.648 828.112 C128.963 829.798, 125.524 830.666, 122.736 830.037 C119.948 829.408, 116.86 826.817, 114.923 824.338 C112.985 821.858, 111.118 818.125, 111.11 815.16 C111.101 812.196, 112.878 808.853, 114.873 806.551 C116.868 804.249, 121.39 802.335, 123.079 801.35 C124.768 800.366, 124.896 800.546, 125.006 800.643" stroke="rgb(218, 206, 243)" stroke-width="2" fill="none"></path></g><g class="text-container" transform="matrix(1 0 0 1 50 10)"><text style="text-anchor: middle; font-size: 16px; font-weight: 400;font-style: normal;font-weight: 400;font-size: 16px;font-family: Comic Sans MS, cursive;" class="actor actor-man" alignment-baseline="central" dominant-baseline="central" y="862.5" x="75" stroke="rgb(218, 206, 243)" stroke-width="1px" fill="rgb(236, 236, 255)" text-anchor="middle"><tspan dy="0" x="75" stroke="none" stroke-width="1px" fill="rgb(0, 0, 0)" text-anchor="middle" dominant-baseline="central">User</tspan></text></g></svg>